M48
;GenerationSoftware,Autodesk,EAGLE,9.6.2*%
;CreationDate,2021-11-04T18:18:18Z*%
FMAT,2
ICI,OFF
METRIC,TZ,000.000
T3C0.305
T2C1.016
T1C3.302
%
G90
M71
T1
X75659Y22860
X2540Y22860
X22860Y22860
X22860Y2540
X2540Y2540
X28941Y22860
X49261Y22860
X49261Y2540
X28941Y2540
X55339Y22860
X28941Y28941
X75659Y2540
X55339Y2540
X2540Y49261
X22860Y49261
X22860Y28941
X2540Y28941
X28941Y49261
X49261Y49261
X49261Y28941
X55339Y55339
X55339Y49261
X75659Y49261
X75659Y28941
X55339Y28941
X2540Y75659
X22860Y75659
X22860Y55339
X2540Y55339
X28941Y75659
X49261Y75659
X49261Y55339
X28941Y55339
X55339Y75659
X75659Y75659
X75659Y55339
T2
X44181Y24130
X17780Y24130
X15240Y24130
X12700Y24130
X10160Y24130
X7620Y24130
X41641Y24130
X39101Y24130
X36561Y24130
X34021Y24130
X70579Y24130
X68039Y24130
X65499Y24130
X62959Y24130
X60419Y24130
X17780Y50531
X15240Y50531
X12700Y50531
X10160Y50531
X7620Y50531
X44181Y50531
X41641Y50531
X39101Y50531
X36561Y50531
X34021Y50531
X70579Y50531
X68039Y50531
X65499Y50531
X62959Y50531
X60419Y50531
X17780Y76929
X15240Y76929
X12700Y76929
X10160Y76929
X7620Y76929
X44181Y76929
X41641Y76929
X39101Y76929
X36561Y76929
X34021Y76929
X70579Y76929
X68039Y76929
X65499Y76929
X62959Y76929
X60419Y76929
T3
X20320Y44181
X24130Y40371
X24130Y39101
X24130Y37831
X2540Y45451
X1270Y45451
X1270Y40371
X1270Y39101
X1270Y37831
X21844Y38593
X7874Y35799
X16256Y44689
X13462Y35799
X17272Y37069
X10160Y41387
X3810Y37577
X11938Y36561
X6350Y38593
X17018Y41895
X10160Y37323
X17780Y31989
X11176Y46213
X7620Y42149
X41641Y42911
X41641Y44181
X45451Y44181
X46721Y44181
X50531Y40371
X50531Y39101
X50531Y37831
X28941Y45451
X27671Y45451
X27671Y40371
X27671Y39101
X27671Y37831
X48245Y38593
X34275Y35799
X42657Y44689
X39863Y35799
X43673Y37069
X36561Y41387
X30211Y37577
X38339Y36561
X32751Y38593
X43419Y41895
X36561Y37323
X44181Y31989
X37577Y46213
X34021Y42149
X68039Y42911
X68039Y44181
X71849Y44181
X73119Y44181
X76929Y40371
X76929Y39101
X76929Y37831
X55339Y45451
X54069Y45451
X54069Y40371
X54069Y39101
X54069Y37831
X74643Y38593
X60673Y35799
X69055Y44689
X66261Y35799
X70071Y37069
X62959Y41387
X56609Y37577
X64737Y36561
X59149Y38593
X69817Y41895
X62959Y37323
X70579Y31989
X63975Y46213
X60419Y42149
X15240Y69309
X34275Y9398
X19050Y70579
X20320Y70579
X24130Y66769
X24130Y65499
X24130Y64229
X2540Y71849
X1270Y71849
X1270Y66769
X1270Y65499
X1270Y64229
X21844Y64991
X7874Y62197
X16256Y71087
X13462Y62197
X17272Y63467
X10160Y67785
X3810Y63975
X11938Y62959
X6350Y64991
X17018Y68293
X10160Y63721
X17780Y58387
X11176Y72611
X7620Y68547
X41641Y69309
X41641Y70579
X45451Y70579
X46721Y70579
X50531Y66769
X50531Y65499
X50531Y64229
X28941Y71849
X27671Y71849
X27671Y66769
X27671Y65499
X27671Y64229
X48245Y64991
X34275Y62197
X42657Y71087
X39863Y62197
X43673Y63467
X36561Y67785
X30211Y63975
X38339Y62959
X32751Y64991
X43419Y68293
X36561Y63721
X44181Y58387
X37577Y72611
X34021Y68547
X68039Y69309
X68039Y70579
X71849Y70579
X73119Y70579
X76929Y66769
X76929Y65499
X76929Y64229
X55339Y71849
X54069Y71849
X54069Y66769
X54069Y65499
X54069Y64229
X74643Y64991
X60673Y62197
X69055Y71087
X66261Y62197
X70071Y63467
X62959Y67785
X56609Y63975
X64737Y62959
X59149Y64991
X69817Y68293
X62959Y63721
X70579Y58387
X63975Y72611
X60419Y68547
X15240Y16510
X15240Y17780
X19050Y17780
X20320Y17780
X24130Y13970
X24130Y12700
X24130Y11430
X2540Y19050
X1270Y19050
X1270Y13970
X1270Y12700
X1270Y11430
X21844Y12192
X7874Y9398
X16256Y18288
X13462Y9398
X17272Y10668
X10160Y14986
X3810Y11176
X11938Y10160
X6350Y12192
X17018Y15494
X10160Y10922
X17780Y5588
X11176Y19812
X7620Y15748
X41641Y16510
X41641Y17780
X45451Y17780
X46721Y17780
X50531Y13970
X50531Y12700
X50531Y11430
X28941Y19050
X27671Y19050
X27671Y13970
X27671Y12700
X27671Y11430
X48245Y12192
X42657Y18288
X39863Y9398
X15240Y70579
X43673Y10668
X36561Y14986
X30211Y11176
X38339Y10160
X32751Y12192
X43419Y15494
X36561Y10922
X44181Y5588
X37577Y19812
X34021Y15748
X68039Y16510
X68039Y17780
X71849Y17780
X73119Y17780
X76929Y13970
X76929Y12700
X76929Y11430
X55339Y19050
X54069Y19050
X54069Y13970
X54069Y12700
X54069Y11430
X74643Y12192
X60673Y9398
X69055Y18288
X66261Y9398
X70071Y10668
X62959Y14986
X56609Y11176
X64737Y10160
X59149Y12192
X69817Y15494
X62959Y10922
X70579Y5588
X63975Y19812
X60419Y15748
X15240Y42911
X15240Y44181
X19050Y44181
M30