G04 EAGLE Gerber RS-274X export*
G75*
%MOMM*%
%FSLAX34Y34*%
%LPD*%
%INSoldermask Top*%
%IPPOS*%
%AMOC8*
5,1,8,0,0,1.08239X$1,22.5*%
G01*
%ADD10R,1.203200X1.303200*%
%ADD11C,0.505344*%
%ADD12C,1.203200*%
%ADD13C,3.505200*%
%ADD14R,2.203200X1.403200*%
%ADD15R,1.553200X0.803200*%
%ADD16C,2.082800*%
%ADD17C,0.427719*%
%ADD18C,1.270000*%
%ADD19C,1.703200*%


D10*
X177800Y169300D03*
X177800Y186300D03*
X127000Y169300D03*
X127000Y186300D03*
D11*
X54290Y183080D02*
X47310Y183080D01*
X47310Y190060D01*
X54290Y190060D01*
X54290Y183080D01*
X54290Y187880D02*
X47310Y187880D01*
X47310Y165540D02*
X54290Y165540D01*
X47310Y165540D02*
X47310Y172520D01*
X54290Y172520D01*
X54290Y165540D01*
X54290Y170340D02*
X47310Y170340D01*
D12*
X246380Y7620D03*
X7620Y246380D03*
D13*
X25400Y228600D03*
X228600Y228600D03*
X228600Y25400D03*
X25400Y25400D03*
D14*
X239950Y99000D03*
X239950Y155000D03*
D15*
X203200Y112000D03*
X203200Y122000D03*
X203200Y132000D03*
X203200Y142000D03*
D14*
X14050Y155000D03*
X14050Y99000D03*
D15*
X50800Y142000D03*
X50800Y132000D03*
X50800Y122000D03*
X50800Y112000D03*
D16*
X177800Y241300D03*
X152400Y241300D03*
X127000Y241300D03*
X101600Y241300D03*
X76200Y241300D03*
D10*
X76200Y169300D03*
X76200Y186300D03*
D17*
X119082Y115148D02*
X119082Y108892D01*
X119082Y115148D02*
X119838Y115148D01*
X119838Y108892D01*
X119082Y108892D01*
X119082Y112955D02*
X119838Y112955D01*
X124082Y115148D02*
X124082Y108892D01*
X124082Y115148D02*
X124838Y115148D01*
X124838Y108892D01*
X124082Y108892D01*
X124082Y112955D02*
X124838Y112955D01*
X129082Y115148D02*
X129082Y108892D01*
X129082Y115148D02*
X129838Y115148D01*
X129838Y108892D01*
X129082Y108892D01*
X129082Y112955D02*
X129838Y112955D01*
X134082Y115148D02*
X134082Y108892D01*
X134082Y115148D02*
X134838Y115148D01*
X134838Y108892D01*
X134082Y108892D01*
X134082Y112955D02*
X134838Y112955D01*
X138952Y119918D02*
X145208Y119918D01*
X145208Y119162D01*
X138952Y119162D01*
X138952Y119918D01*
X138952Y124918D02*
X145208Y124918D01*
X145208Y124162D01*
X138952Y124162D01*
X138952Y124918D01*
X138952Y129918D02*
X145208Y129918D01*
X145208Y129162D01*
X138952Y129162D01*
X138952Y129918D01*
X138952Y134918D02*
X145208Y134918D01*
X145208Y134162D01*
X138952Y134162D01*
X138952Y134918D01*
X134838Y138932D02*
X134838Y145188D01*
X134838Y138932D02*
X134082Y138932D01*
X134082Y145188D01*
X134838Y145188D01*
X134838Y142995D02*
X134082Y142995D01*
X129838Y145188D02*
X129838Y138932D01*
X129082Y138932D01*
X129082Y145188D01*
X129838Y145188D01*
X129838Y142995D02*
X129082Y142995D01*
X124838Y145188D02*
X124838Y138932D01*
X124082Y138932D01*
X124082Y145188D01*
X124838Y145188D01*
X124838Y142995D02*
X124082Y142995D01*
X119838Y145188D02*
X119838Y138932D01*
X119082Y138932D01*
X119082Y145188D01*
X119838Y145188D01*
X119838Y142995D02*
X119082Y142995D01*
X115168Y134262D02*
X108912Y134262D01*
X108912Y135018D01*
X115168Y135018D01*
X115168Y134262D01*
X115168Y129262D02*
X108912Y129262D01*
X108912Y130018D01*
X115168Y130018D01*
X115168Y129262D01*
X115168Y124262D02*
X108912Y124262D01*
X108912Y125018D01*
X115168Y125018D01*
X115168Y124262D01*
X115168Y119262D02*
X108912Y119262D01*
X108912Y120018D01*
X115168Y120018D01*
X115168Y119262D01*
D10*
X101600Y186300D03*
X101600Y169300D03*
X152400Y186300D03*
X152400Y169300D03*
X203200Y186300D03*
X203200Y169300D03*
D16*
X63500Y12700D03*
X88900Y12700D03*
X114300Y12700D03*
X139700Y12700D03*
X165100Y12700D03*
X190500Y12700D03*
D10*
X436880Y169300D03*
X436880Y186300D03*
X386080Y169300D03*
X386080Y186300D03*
D11*
X313370Y183080D02*
X306390Y183080D01*
X306390Y190060D01*
X313370Y190060D01*
X313370Y183080D01*
X313370Y187880D02*
X306390Y187880D01*
X306390Y165540D02*
X313370Y165540D01*
X306390Y165540D02*
X306390Y172520D01*
X313370Y172520D01*
X313370Y165540D01*
X313370Y170340D02*
X306390Y170340D01*
D12*
X505460Y7620D03*
X266700Y246380D03*
D13*
X284480Y228600D03*
X487680Y228600D03*
X487680Y25400D03*
X284480Y25400D03*
D14*
X499030Y99000D03*
X499030Y155000D03*
D15*
X462280Y112000D03*
X462280Y122000D03*
X462280Y132000D03*
X462280Y142000D03*
D14*
X273130Y155000D03*
X273130Y99000D03*
D15*
X309880Y142000D03*
X309880Y132000D03*
X309880Y122000D03*
X309880Y112000D03*
D16*
X436880Y241300D03*
X411480Y241300D03*
X386080Y241300D03*
X360680Y241300D03*
X335280Y241300D03*
D10*
X335280Y169300D03*
X335280Y186300D03*
D17*
X378162Y115148D02*
X378162Y108892D01*
X378162Y115148D02*
X378918Y115148D01*
X378918Y108892D01*
X378162Y108892D01*
X378162Y112955D02*
X378918Y112955D01*
X383162Y115148D02*
X383162Y108892D01*
X383162Y115148D02*
X383918Y115148D01*
X383918Y108892D01*
X383162Y108892D01*
X383162Y112955D02*
X383918Y112955D01*
X388162Y115148D02*
X388162Y108892D01*
X388162Y115148D02*
X388918Y115148D01*
X388918Y108892D01*
X388162Y108892D01*
X388162Y112955D02*
X388918Y112955D01*
X393162Y115148D02*
X393162Y108892D01*
X393162Y115148D02*
X393918Y115148D01*
X393918Y108892D01*
X393162Y108892D01*
X393162Y112955D02*
X393918Y112955D01*
X398032Y119918D02*
X404288Y119918D01*
X404288Y119162D01*
X398032Y119162D01*
X398032Y119918D01*
X398032Y124918D02*
X404288Y124918D01*
X404288Y124162D01*
X398032Y124162D01*
X398032Y124918D01*
X398032Y129918D02*
X404288Y129918D01*
X404288Y129162D01*
X398032Y129162D01*
X398032Y129918D01*
X398032Y134918D02*
X404288Y134918D01*
X404288Y134162D01*
X398032Y134162D01*
X398032Y134918D01*
X393918Y138932D02*
X393918Y145188D01*
X393918Y138932D02*
X393162Y138932D01*
X393162Y145188D01*
X393918Y145188D01*
X393918Y142995D02*
X393162Y142995D01*
X388918Y145188D02*
X388918Y138932D01*
X388162Y138932D01*
X388162Y145188D01*
X388918Y145188D01*
X388918Y142995D02*
X388162Y142995D01*
X383918Y145188D02*
X383918Y138932D01*
X383162Y138932D01*
X383162Y145188D01*
X383918Y145188D01*
X383918Y142995D02*
X383162Y142995D01*
X378918Y145188D02*
X378918Y138932D01*
X378162Y138932D01*
X378162Y145188D01*
X378918Y145188D01*
X378918Y142995D02*
X378162Y142995D01*
X374248Y134262D02*
X367992Y134262D01*
X367992Y135018D01*
X374248Y135018D01*
X374248Y134262D01*
X374248Y129262D02*
X367992Y129262D01*
X367992Y130018D01*
X374248Y130018D01*
X374248Y129262D01*
X374248Y124262D02*
X367992Y124262D01*
X367992Y125018D01*
X374248Y125018D01*
X374248Y124262D01*
X374248Y119262D02*
X367992Y119262D01*
X367992Y120018D01*
X374248Y120018D01*
X374248Y119262D01*
D10*
X360680Y186300D03*
X360680Y169300D03*
X411480Y186300D03*
X411480Y169300D03*
X462280Y186300D03*
X462280Y169300D03*
D16*
X322580Y12700D03*
X347980Y12700D03*
X373380Y12700D03*
X398780Y12700D03*
X424180Y12700D03*
X449580Y12700D03*
D10*
X695960Y169300D03*
X695960Y186300D03*
X645160Y169300D03*
X645160Y186300D03*
D11*
X572450Y183080D02*
X565470Y183080D01*
X565470Y190060D01*
X572450Y190060D01*
X572450Y183080D01*
X572450Y187880D02*
X565470Y187880D01*
X565470Y165540D02*
X572450Y165540D01*
X565470Y165540D02*
X565470Y172520D01*
X572450Y172520D01*
X572450Y165540D01*
X572450Y170340D02*
X565470Y170340D01*
D12*
X764540Y7620D03*
X525780Y246380D03*
D13*
X543560Y228600D03*
X746760Y228600D03*
X746760Y25400D03*
X543560Y25400D03*
D14*
X758110Y99000D03*
X758110Y155000D03*
D15*
X721360Y112000D03*
X721360Y122000D03*
X721360Y132000D03*
X721360Y142000D03*
D14*
X532210Y155000D03*
X532210Y99000D03*
D15*
X568960Y142000D03*
X568960Y132000D03*
X568960Y122000D03*
X568960Y112000D03*
D16*
X695960Y241300D03*
X670560Y241300D03*
X645160Y241300D03*
X619760Y241300D03*
X594360Y241300D03*
D10*
X594360Y169300D03*
X594360Y186300D03*
D17*
X637242Y115148D02*
X637242Y108892D01*
X637242Y115148D02*
X637998Y115148D01*
X637998Y108892D01*
X637242Y108892D01*
X637242Y112955D02*
X637998Y112955D01*
X642242Y115148D02*
X642242Y108892D01*
X642242Y115148D02*
X642998Y115148D01*
X642998Y108892D01*
X642242Y108892D01*
X642242Y112955D02*
X642998Y112955D01*
X647242Y115148D02*
X647242Y108892D01*
X647242Y115148D02*
X647998Y115148D01*
X647998Y108892D01*
X647242Y108892D01*
X647242Y112955D02*
X647998Y112955D01*
X652242Y115148D02*
X652242Y108892D01*
X652242Y115148D02*
X652998Y115148D01*
X652998Y108892D01*
X652242Y108892D01*
X652242Y112955D02*
X652998Y112955D01*
X657112Y119918D02*
X663368Y119918D01*
X663368Y119162D01*
X657112Y119162D01*
X657112Y119918D01*
X657112Y124918D02*
X663368Y124918D01*
X663368Y124162D01*
X657112Y124162D01*
X657112Y124918D01*
X657112Y129918D02*
X663368Y129918D01*
X663368Y129162D01*
X657112Y129162D01*
X657112Y129918D01*
X657112Y134918D02*
X663368Y134918D01*
X663368Y134162D01*
X657112Y134162D01*
X657112Y134918D01*
X652998Y138932D02*
X652998Y145188D01*
X652998Y138932D02*
X652242Y138932D01*
X652242Y145188D01*
X652998Y145188D01*
X652998Y142995D02*
X652242Y142995D01*
X647998Y145188D02*
X647998Y138932D01*
X647242Y138932D01*
X647242Y145188D01*
X647998Y145188D01*
X647998Y142995D02*
X647242Y142995D01*
X642998Y145188D02*
X642998Y138932D01*
X642242Y138932D01*
X642242Y145188D01*
X642998Y145188D01*
X642998Y142995D02*
X642242Y142995D01*
X637998Y145188D02*
X637998Y138932D01*
X637242Y138932D01*
X637242Y145188D01*
X637998Y145188D01*
X637998Y142995D02*
X637242Y142995D01*
X633328Y134262D02*
X627072Y134262D01*
X627072Y135018D01*
X633328Y135018D01*
X633328Y134262D01*
X633328Y129262D02*
X627072Y129262D01*
X627072Y130018D01*
X633328Y130018D01*
X633328Y129262D01*
X633328Y124262D02*
X627072Y124262D01*
X627072Y125018D01*
X633328Y125018D01*
X633328Y124262D01*
X633328Y119262D02*
X627072Y119262D01*
X627072Y120018D01*
X633328Y120018D01*
X633328Y119262D01*
D10*
X619760Y186300D03*
X619760Y169300D03*
X670560Y186300D03*
X670560Y169300D03*
X721360Y186300D03*
X721360Y169300D03*
D16*
X581660Y12700D03*
X607060Y12700D03*
X632460Y12700D03*
X657860Y12700D03*
X683260Y12700D03*
X708660Y12700D03*
D10*
X955040Y169300D03*
X955040Y186300D03*
X904240Y169300D03*
X904240Y186300D03*
D11*
X831530Y183080D02*
X824550Y183080D01*
X824550Y190060D01*
X831530Y190060D01*
X831530Y183080D01*
X831530Y187880D02*
X824550Y187880D01*
X824550Y165540D02*
X831530Y165540D01*
X824550Y165540D02*
X824550Y172520D01*
X831530Y172520D01*
X831530Y165540D01*
X831530Y170340D02*
X824550Y170340D01*
D12*
X1023620Y7620D03*
X784860Y246380D03*
D13*
X802640Y228600D03*
X1005840Y228600D03*
X1005840Y25400D03*
X802640Y25400D03*
D14*
X1017190Y99000D03*
X1017190Y155000D03*
D15*
X980440Y112000D03*
X980440Y122000D03*
X980440Y132000D03*
X980440Y142000D03*
D14*
X791290Y155000D03*
X791290Y99000D03*
D15*
X828040Y142000D03*
X828040Y132000D03*
X828040Y122000D03*
X828040Y112000D03*
D16*
X955040Y241300D03*
X929640Y241300D03*
X904240Y241300D03*
X878840Y241300D03*
X853440Y241300D03*
D10*
X853440Y169300D03*
X853440Y186300D03*
D17*
X896322Y115148D02*
X896322Y108892D01*
X896322Y115148D02*
X897078Y115148D01*
X897078Y108892D01*
X896322Y108892D01*
X896322Y112955D02*
X897078Y112955D01*
X901322Y115148D02*
X901322Y108892D01*
X901322Y115148D02*
X902078Y115148D01*
X902078Y108892D01*
X901322Y108892D01*
X901322Y112955D02*
X902078Y112955D01*
X906322Y115148D02*
X906322Y108892D01*
X906322Y115148D02*
X907078Y115148D01*
X907078Y108892D01*
X906322Y108892D01*
X906322Y112955D02*
X907078Y112955D01*
X911322Y115148D02*
X911322Y108892D01*
X911322Y115148D02*
X912078Y115148D01*
X912078Y108892D01*
X911322Y108892D01*
X911322Y112955D02*
X912078Y112955D01*
X916192Y119918D02*
X922448Y119918D01*
X922448Y119162D01*
X916192Y119162D01*
X916192Y119918D01*
X916192Y124918D02*
X922448Y124918D01*
X922448Y124162D01*
X916192Y124162D01*
X916192Y124918D01*
X916192Y129918D02*
X922448Y129918D01*
X922448Y129162D01*
X916192Y129162D01*
X916192Y129918D01*
X916192Y134918D02*
X922448Y134918D01*
X922448Y134162D01*
X916192Y134162D01*
X916192Y134918D01*
X912078Y138932D02*
X912078Y145188D01*
X912078Y138932D02*
X911322Y138932D01*
X911322Y145188D01*
X912078Y145188D01*
X912078Y142995D02*
X911322Y142995D01*
X907078Y145188D02*
X907078Y138932D01*
X906322Y138932D01*
X906322Y145188D01*
X907078Y145188D01*
X907078Y142995D02*
X906322Y142995D01*
X902078Y145188D02*
X902078Y138932D01*
X901322Y138932D01*
X901322Y145188D01*
X902078Y145188D01*
X902078Y142995D02*
X901322Y142995D01*
X897078Y145188D02*
X897078Y138932D01*
X896322Y138932D01*
X896322Y145188D01*
X897078Y145188D01*
X897078Y142995D02*
X896322Y142995D01*
X892408Y134262D02*
X886152Y134262D01*
X886152Y135018D01*
X892408Y135018D01*
X892408Y134262D01*
X892408Y129262D02*
X886152Y129262D01*
X886152Y130018D01*
X892408Y130018D01*
X892408Y129262D01*
X892408Y124262D02*
X886152Y124262D01*
X886152Y125018D01*
X892408Y125018D01*
X892408Y124262D01*
X892408Y119262D02*
X886152Y119262D01*
X886152Y120018D01*
X892408Y120018D01*
X892408Y119262D01*
D10*
X878840Y186300D03*
X878840Y169300D03*
X929640Y186300D03*
X929640Y169300D03*
X980440Y186300D03*
X980440Y169300D03*
D16*
X840740Y12700D03*
X866140Y12700D03*
X891540Y12700D03*
X916940Y12700D03*
X942340Y12700D03*
X967740Y12700D03*
D10*
X177800Y428380D03*
X177800Y445380D03*
X127000Y428380D03*
X127000Y445380D03*
D11*
X54290Y442160D02*
X47310Y442160D01*
X47310Y449140D01*
X54290Y449140D01*
X54290Y442160D01*
X54290Y446960D02*
X47310Y446960D01*
X47310Y424620D02*
X54290Y424620D01*
X47310Y424620D02*
X47310Y431600D01*
X54290Y431600D01*
X54290Y424620D01*
X54290Y429420D02*
X47310Y429420D01*
D12*
X246380Y266700D03*
X7620Y505460D03*
D13*
X25400Y487680D03*
X228600Y487680D03*
X228600Y284480D03*
X25400Y284480D03*
D14*
X239950Y358080D03*
X239950Y414080D03*
D15*
X203200Y371080D03*
X203200Y381080D03*
X203200Y391080D03*
X203200Y401080D03*
D14*
X14050Y414080D03*
X14050Y358080D03*
D15*
X50800Y401080D03*
X50800Y391080D03*
X50800Y381080D03*
X50800Y371080D03*
D16*
X177800Y500380D03*
X152400Y500380D03*
X127000Y500380D03*
X101600Y500380D03*
X76200Y500380D03*
D10*
X76200Y428380D03*
X76200Y445380D03*
D17*
X119082Y374228D02*
X119082Y367972D01*
X119082Y374228D02*
X119838Y374228D01*
X119838Y367972D01*
X119082Y367972D01*
X119082Y372035D02*
X119838Y372035D01*
X124082Y374228D02*
X124082Y367972D01*
X124082Y374228D02*
X124838Y374228D01*
X124838Y367972D01*
X124082Y367972D01*
X124082Y372035D02*
X124838Y372035D01*
X129082Y374228D02*
X129082Y367972D01*
X129082Y374228D02*
X129838Y374228D01*
X129838Y367972D01*
X129082Y367972D01*
X129082Y372035D02*
X129838Y372035D01*
X134082Y374228D02*
X134082Y367972D01*
X134082Y374228D02*
X134838Y374228D01*
X134838Y367972D01*
X134082Y367972D01*
X134082Y372035D02*
X134838Y372035D01*
X138952Y378998D02*
X145208Y378998D01*
X145208Y378242D01*
X138952Y378242D01*
X138952Y378998D01*
X138952Y383998D02*
X145208Y383998D01*
X145208Y383242D01*
X138952Y383242D01*
X138952Y383998D01*
X138952Y388998D02*
X145208Y388998D01*
X145208Y388242D01*
X138952Y388242D01*
X138952Y388998D01*
X138952Y393998D02*
X145208Y393998D01*
X145208Y393242D01*
X138952Y393242D01*
X138952Y393998D01*
X134838Y398012D02*
X134838Y404268D01*
X134838Y398012D02*
X134082Y398012D01*
X134082Y404268D01*
X134838Y404268D01*
X134838Y402075D02*
X134082Y402075D01*
X129838Y404268D02*
X129838Y398012D01*
X129082Y398012D01*
X129082Y404268D01*
X129838Y404268D01*
X129838Y402075D02*
X129082Y402075D01*
X124838Y404268D02*
X124838Y398012D01*
X124082Y398012D01*
X124082Y404268D01*
X124838Y404268D01*
X124838Y402075D02*
X124082Y402075D01*
X119838Y404268D02*
X119838Y398012D01*
X119082Y398012D01*
X119082Y404268D01*
X119838Y404268D01*
X119838Y402075D02*
X119082Y402075D01*
X115168Y393342D02*
X108912Y393342D01*
X108912Y394098D01*
X115168Y394098D01*
X115168Y393342D01*
X115168Y388342D02*
X108912Y388342D01*
X108912Y389098D01*
X115168Y389098D01*
X115168Y388342D01*
X115168Y383342D02*
X108912Y383342D01*
X108912Y384098D01*
X115168Y384098D01*
X115168Y383342D01*
X115168Y378342D02*
X108912Y378342D01*
X108912Y379098D01*
X115168Y379098D01*
X115168Y378342D01*
D10*
X101600Y445380D03*
X101600Y428380D03*
X152400Y445380D03*
X152400Y428380D03*
X203200Y445380D03*
X203200Y428380D03*
D16*
X63500Y271780D03*
X88900Y271780D03*
X114300Y271780D03*
X139700Y271780D03*
X165100Y271780D03*
X190500Y271780D03*
D10*
X436880Y428380D03*
X436880Y445380D03*
X386080Y428380D03*
X386080Y445380D03*
D11*
X313370Y442160D02*
X306390Y442160D01*
X306390Y449140D01*
X313370Y449140D01*
X313370Y442160D01*
X313370Y446960D02*
X306390Y446960D01*
X306390Y424620D02*
X313370Y424620D01*
X306390Y424620D02*
X306390Y431600D01*
X313370Y431600D01*
X313370Y424620D01*
X313370Y429420D02*
X306390Y429420D01*
D12*
X505460Y266700D03*
X266700Y505460D03*
D13*
X284480Y487680D03*
X487680Y487680D03*
X487680Y284480D03*
X284480Y284480D03*
D14*
X499030Y358080D03*
X499030Y414080D03*
D15*
X462280Y371080D03*
X462280Y381080D03*
X462280Y391080D03*
X462280Y401080D03*
D14*
X273130Y414080D03*
X273130Y358080D03*
D15*
X309880Y401080D03*
X309880Y391080D03*
X309880Y381080D03*
X309880Y371080D03*
D16*
X436880Y500380D03*
X411480Y500380D03*
X386080Y500380D03*
X360680Y500380D03*
X335280Y500380D03*
D10*
X335280Y428380D03*
X335280Y445380D03*
D17*
X378162Y374228D02*
X378162Y367972D01*
X378162Y374228D02*
X378918Y374228D01*
X378918Y367972D01*
X378162Y367972D01*
X378162Y372035D02*
X378918Y372035D01*
X383162Y374228D02*
X383162Y367972D01*
X383162Y374228D02*
X383918Y374228D01*
X383918Y367972D01*
X383162Y367972D01*
X383162Y372035D02*
X383918Y372035D01*
X388162Y374228D02*
X388162Y367972D01*
X388162Y374228D02*
X388918Y374228D01*
X388918Y367972D01*
X388162Y367972D01*
X388162Y372035D02*
X388918Y372035D01*
X393162Y374228D02*
X393162Y367972D01*
X393162Y374228D02*
X393918Y374228D01*
X393918Y367972D01*
X393162Y367972D01*
X393162Y372035D02*
X393918Y372035D01*
X398032Y378998D02*
X404288Y378998D01*
X404288Y378242D01*
X398032Y378242D01*
X398032Y378998D01*
X398032Y383998D02*
X404288Y383998D01*
X404288Y383242D01*
X398032Y383242D01*
X398032Y383998D01*
X398032Y388998D02*
X404288Y388998D01*
X404288Y388242D01*
X398032Y388242D01*
X398032Y388998D01*
X398032Y393998D02*
X404288Y393998D01*
X404288Y393242D01*
X398032Y393242D01*
X398032Y393998D01*
X393918Y398012D02*
X393918Y404268D01*
X393918Y398012D02*
X393162Y398012D01*
X393162Y404268D01*
X393918Y404268D01*
X393918Y402075D02*
X393162Y402075D01*
X388918Y404268D02*
X388918Y398012D01*
X388162Y398012D01*
X388162Y404268D01*
X388918Y404268D01*
X388918Y402075D02*
X388162Y402075D01*
X383918Y404268D02*
X383918Y398012D01*
X383162Y398012D01*
X383162Y404268D01*
X383918Y404268D01*
X383918Y402075D02*
X383162Y402075D01*
X378918Y404268D02*
X378918Y398012D01*
X378162Y398012D01*
X378162Y404268D01*
X378918Y404268D01*
X378918Y402075D02*
X378162Y402075D01*
X374248Y393342D02*
X367992Y393342D01*
X367992Y394098D01*
X374248Y394098D01*
X374248Y393342D01*
X374248Y388342D02*
X367992Y388342D01*
X367992Y389098D01*
X374248Y389098D01*
X374248Y388342D01*
X374248Y383342D02*
X367992Y383342D01*
X367992Y384098D01*
X374248Y384098D01*
X374248Y383342D01*
X374248Y378342D02*
X367992Y378342D01*
X367992Y379098D01*
X374248Y379098D01*
X374248Y378342D01*
D10*
X360680Y445380D03*
X360680Y428380D03*
X411480Y445380D03*
X411480Y428380D03*
X462280Y445380D03*
X462280Y428380D03*
D16*
X322580Y271780D03*
X347980Y271780D03*
X373380Y271780D03*
X398780Y271780D03*
X424180Y271780D03*
X449580Y271780D03*
D10*
X695960Y428380D03*
X695960Y445380D03*
X645160Y428380D03*
X645160Y445380D03*
D11*
X572450Y442160D02*
X565470Y442160D01*
X565470Y449140D01*
X572450Y449140D01*
X572450Y442160D01*
X572450Y446960D02*
X565470Y446960D01*
X565470Y424620D02*
X572450Y424620D01*
X565470Y424620D02*
X565470Y431600D01*
X572450Y431600D01*
X572450Y424620D01*
X572450Y429420D02*
X565470Y429420D01*
D12*
X764540Y266700D03*
X525780Y505460D03*
D13*
X543560Y487680D03*
X746760Y487680D03*
X746760Y284480D03*
X543560Y284480D03*
D14*
X758110Y358080D03*
X758110Y414080D03*
D15*
X721360Y371080D03*
X721360Y381080D03*
X721360Y391080D03*
X721360Y401080D03*
D14*
X532210Y414080D03*
X532210Y358080D03*
D15*
X568960Y401080D03*
X568960Y391080D03*
X568960Y381080D03*
X568960Y371080D03*
D16*
X695960Y500380D03*
X670560Y500380D03*
X645160Y500380D03*
X619760Y500380D03*
X594360Y500380D03*
D10*
X594360Y428380D03*
X594360Y445380D03*
D17*
X637242Y374228D02*
X637242Y367972D01*
X637242Y374228D02*
X637998Y374228D01*
X637998Y367972D01*
X637242Y367972D01*
X637242Y372035D02*
X637998Y372035D01*
X642242Y374228D02*
X642242Y367972D01*
X642242Y374228D02*
X642998Y374228D01*
X642998Y367972D01*
X642242Y367972D01*
X642242Y372035D02*
X642998Y372035D01*
X647242Y374228D02*
X647242Y367972D01*
X647242Y374228D02*
X647998Y374228D01*
X647998Y367972D01*
X647242Y367972D01*
X647242Y372035D02*
X647998Y372035D01*
X652242Y374228D02*
X652242Y367972D01*
X652242Y374228D02*
X652998Y374228D01*
X652998Y367972D01*
X652242Y367972D01*
X652242Y372035D02*
X652998Y372035D01*
X657112Y378998D02*
X663368Y378998D01*
X663368Y378242D01*
X657112Y378242D01*
X657112Y378998D01*
X657112Y383998D02*
X663368Y383998D01*
X663368Y383242D01*
X657112Y383242D01*
X657112Y383998D01*
X657112Y388998D02*
X663368Y388998D01*
X663368Y388242D01*
X657112Y388242D01*
X657112Y388998D01*
X657112Y393998D02*
X663368Y393998D01*
X663368Y393242D01*
X657112Y393242D01*
X657112Y393998D01*
X652998Y398012D02*
X652998Y404268D01*
X652998Y398012D02*
X652242Y398012D01*
X652242Y404268D01*
X652998Y404268D01*
X652998Y402075D02*
X652242Y402075D01*
X647998Y404268D02*
X647998Y398012D01*
X647242Y398012D01*
X647242Y404268D01*
X647998Y404268D01*
X647998Y402075D02*
X647242Y402075D01*
X642998Y404268D02*
X642998Y398012D01*
X642242Y398012D01*
X642242Y404268D01*
X642998Y404268D01*
X642998Y402075D02*
X642242Y402075D01*
X637998Y404268D02*
X637998Y398012D01*
X637242Y398012D01*
X637242Y404268D01*
X637998Y404268D01*
X637998Y402075D02*
X637242Y402075D01*
X633328Y393342D02*
X627072Y393342D01*
X627072Y394098D01*
X633328Y394098D01*
X633328Y393342D01*
X633328Y388342D02*
X627072Y388342D01*
X627072Y389098D01*
X633328Y389098D01*
X633328Y388342D01*
X633328Y383342D02*
X627072Y383342D01*
X627072Y384098D01*
X633328Y384098D01*
X633328Y383342D01*
X633328Y378342D02*
X627072Y378342D01*
X627072Y379098D01*
X633328Y379098D01*
X633328Y378342D01*
D10*
X619760Y445380D03*
X619760Y428380D03*
X670560Y445380D03*
X670560Y428380D03*
X721360Y445380D03*
X721360Y428380D03*
D16*
X581660Y271780D03*
X607060Y271780D03*
X632460Y271780D03*
X657860Y271780D03*
X683260Y271780D03*
X708660Y271780D03*
D10*
X955040Y428380D03*
X955040Y445380D03*
X904240Y428380D03*
X904240Y445380D03*
D11*
X831530Y442160D02*
X824550Y442160D01*
X824550Y449140D01*
X831530Y449140D01*
X831530Y442160D01*
X831530Y446960D02*
X824550Y446960D01*
X824550Y424620D02*
X831530Y424620D01*
X824550Y424620D02*
X824550Y431600D01*
X831530Y431600D01*
X831530Y424620D01*
X831530Y429420D02*
X824550Y429420D01*
D12*
X1023620Y266700D03*
X784860Y505460D03*
D13*
X802640Y487680D03*
X1005840Y487680D03*
X1005840Y284480D03*
X802640Y284480D03*
D14*
X1017190Y358080D03*
X1017190Y414080D03*
D15*
X980440Y371080D03*
X980440Y381080D03*
X980440Y391080D03*
X980440Y401080D03*
D14*
X791290Y414080D03*
X791290Y358080D03*
D15*
X828040Y401080D03*
X828040Y391080D03*
X828040Y381080D03*
X828040Y371080D03*
D16*
X955040Y500380D03*
X929640Y500380D03*
X904240Y500380D03*
X878840Y500380D03*
X853440Y500380D03*
D10*
X853440Y428380D03*
X853440Y445380D03*
D17*
X896322Y374228D02*
X896322Y367972D01*
X896322Y374228D02*
X897078Y374228D01*
X897078Y367972D01*
X896322Y367972D01*
X896322Y372035D02*
X897078Y372035D01*
X901322Y374228D02*
X901322Y367972D01*
X901322Y374228D02*
X902078Y374228D01*
X902078Y367972D01*
X901322Y367972D01*
X901322Y372035D02*
X902078Y372035D01*
X906322Y374228D02*
X906322Y367972D01*
X906322Y374228D02*
X907078Y374228D01*
X907078Y367972D01*
X906322Y367972D01*
X906322Y372035D02*
X907078Y372035D01*
X911322Y374228D02*
X911322Y367972D01*
X911322Y374228D02*
X912078Y374228D01*
X912078Y367972D01*
X911322Y367972D01*
X911322Y372035D02*
X912078Y372035D01*
X916192Y378998D02*
X922448Y378998D01*
X922448Y378242D01*
X916192Y378242D01*
X916192Y378998D01*
X916192Y383998D02*
X922448Y383998D01*
X922448Y383242D01*
X916192Y383242D01*
X916192Y383998D01*
X916192Y388998D02*
X922448Y388998D01*
X922448Y388242D01*
X916192Y388242D01*
X916192Y388998D01*
X916192Y393998D02*
X922448Y393998D01*
X922448Y393242D01*
X916192Y393242D01*
X916192Y393998D01*
X912078Y398012D02*
X912078Y404268D01*
X912078Y398012D02*
X911322Y398012D01*
X911322Y404268D01*
X912078Y404268D01*
X912078Y402075D02*
X911322Y402075D01*
X907078Y404268D02*
X907078Y398012D01*
X906322Y398012D01*
X906322Y404268D01*
X907078Y404268D01*
X907078Y402075D02*
X906322Y402075D01*
X902078Y404268D02*
X902078Y398012D01*
X901322Y398012D01*
X901322Y404268D01*
X902078Y404268D01*
X902078Y402075D02*
X901322Y402075D01*
X897078Y404268D02*
X897078Y398012D01*
X896322Y398012D01*
X896322Y404268D01*
X897078Y404268D01*
X897078Y402075D02*
X896322Y402075D01*
X892408Y393342D02*
X886152Y393342D01*
X886152Y394098D01*
X892408Y394098D01*
X892408Y393342D01*
X892408Y388342D02*
X886152Y388342D01*
X886152Y389098D01*
X892408Y389098D01*
X892408Y388342D01*
X892408Y383342D02*
X886152Y383342D01*
X886152Y384098D01*
X892408Y384098D01*
X892408Y383342D01*
X892408Y378342D02*
X886152Y378342D01*
X886152Y379098D01*
X892408Y379098D01*
X892408Y378342D01*
D10*
X878840Y445380D03*
X878840Y428380D03*
X929640Y445380D03*
X929640Y428380D03*
X980440Y445380D03*
X980440Y428380D03*
D16*
X840740Y271780D03*
X866140Y271780D03*
X891540Y271780D03*
X916940Y271780D03*
X942340Y271780D03*
X967740Y271780D03*
D10*
X177800Y687460D03*
X177800Y704460D03*
X127000Y687460D03*
X127000Y704460D03*
D11*
X54290Y701240D02*
X47310Y701240D01*
X47310Y708220D01*
X54290Y708220D01*
X54290Y701240D01*
X54290Y706040D02*
X47310Y706040D01*
X47310Y683700D02*
X54290Y683700D01*
X47310Y683700D02*
X47310Y690680D01*
X54290Y690680D01*
X54290Y683700D01*
X54290Y688500D02*
X47310Y688500D01*
D12*
X246380Y525780D03*
X7620Y764540D03*
D13*
X25400Y746760D03*
X228600Y746760D03*
X228600Y543560D03*
X25400Y543560D03*
D14*
X239950Y617160D03*
X239950Y673160D03*
D15*
X203200Y630160D03*
X203200Y640160D03*
X203200Y650160D03*
X203200Y660160D03*
D14*
X14050Y673160D03*
X14050Y617160D03*
D15*
X50800Y660160D03*
X50800Y650160D03*
X50800Y640160D03*
X50800Y630160D03*
D16*
X177800Y759460D03*
X152400Y759460D03*
X127000Y759460D03*
X101600Y759460D03*
X76200Y759460D03*
D10*
X76200Y687460D03*
X76200Y704460D03*
D17*
X119082Y633308D02*
X119082Y627052D01*
X119082Y633308D02*
X119838Y633308D01*
X119838Y627052D01*
X119082Y627052D01*
X119082Y631115D02*
X119838Y631115D01*
X124082Y633308D02*
X124082Y627052D01*
X124082Y633308D02*
X124838Y633308D01*
X124838Y627052D01*
X124082Y627052D01*
X124082Y631115D02*
X124838Y631115D01*
X129082Y633308D02*
X129082Y627052D01*
X129082Y633308D02*
X129838Y633308D01*
X129838Y627052D01*
X129082Y627052D01*
X129082Y631115D02*
X129838Y631115D01*
X134082Y633308D02*
X134082Y627052D01*
X134082Y633308D02*
X134838Y633308D01*
X134838Y627052D01*
X134082Y627052D01*
X134082Y631115D02*
X134838Y631115D01*
X138952Y638078D02*
X145208Y638078D01*
X145208Y637322D01*
X138952Y637322D01*
X138952Y638078D01*
X138952Y643078D02*
X145208Y643078D01*
X145208Y642322D01*
X138952Y642322D01*
X138952Y643078D01*
X138952Y648078D02*
X145208Y648078D01*
X145208Y647322D01*
X138952Y647322D01*
X138952Y648078D01*
X138952Y653078D02*
X145208Y653078D01*
X145208Y652322D01*
X138952Y652322D01*
X138952Y653078D01*
X134838Y657092D02*
X134838Y663348D01*
X134838Y657092D02*
X134082Y657092D01*
X134082Y663348D01*
X134838Y663348D01*
X134838Y661155D02*
X134082Y661155D01*
X129838Y663348D02*
X129838Y657092D01*
X129082Y657092D01*
X129082Y663348D01*
X129838Y663348D01*
X129838Y661155D02*
X129082Y661155D01*
X124838Y663348D02*
X124838Y657092D01*
X124082Y657092D01*
X124082Y663348D01*
X124838Y663348D01*
X124838Y661155D02*
X124082Y661155D01*
X119838Y663348D02*
X119838Y657092D01*
X119082Y657092D01*
X119082Y663348D01*
X119838Y663348D01*
X119838Y661155D02*
X119082Y661155D01*
X115168Y652422D02*
X108912Y652422D01*
X108912Y653178D01*
X115168Y653178D01*
X115168Y652422D01*
X115168Y647422D02*
X108912Y647422D01*
X108912Y648178D01*
X115168Y648178D01*
X115168Y647422D01*
X115168Y642422D02*
X108912Y642422D01*
X108912Y643178D01*
X115168Y643178D01*
X115168Y642422D01*
X115168Y637422D02*
X108912Y637422D01*
X108912Y638178D01*
X115168Y638178D01*
X115168Y637422D01*
D10*
X101600Y704460D03*
X101600Y687460D03*
X152400Y704460D03*
X152400Y687460D03*
X203200Y704460D03*
X203200Y687460D03*
D16*
X63500Y530860D03*
X88900Y530860D03*
X114300Y530860D03*
X139700Y530860D03*
X165100Y530860D03*
X190500Y530860D03*
D10*
X436880Y687460D03*
X436880Y704460D03*
X386080Y687460D03*
X386080Y704460D03*
D11*
X313370Y701240D02*
X306390Y701240D01*
X306390Y708220D01*
X313370Y708220D01*
X313370Y701240D01*
X313370Y706040D02*
X306390Y706040D01*
X306390Y683700D02*
X313370Y683700D01*
X306390Y683700D02*
X306390Y690680D01*
X313370Y690680D01*
X313370Y683700D01*
X313370Y688500D02*
X306390Y688500D01*
D12*
X505460Y525780D03*
X266700Y764540D03*
D13*
X284480Y746760D03*
X487680Y746760D03*
X487680Y543560D03*
X284480Y543560D03*
D14*
X499030Y617160D03*
X499030Y673160D03*
D15*
X462280Y630160D03*
X462280Y640160D03*
X462280Y650160D03*
X462280Y660160D03*
D14*
X273130Y673160D03*
X273130Y617160D03*
D15*
X309880Y660160D03*
X309880Y650160D03*
X309880Y640160D03*
X309880Y630160D03*
D16*
X436880Y759460D03*
X411480Y759460D03*
X386080Y759460D03*
X360680Y759460D03*
X335280Y759460D03*
D10*
X335280Y687460D03*
X335280Y704460D03*
D17*
X378162Y633308D02*
X378162Y627052D01*
X378162Y633308D02*
X378918Y633308D01*
X378918Y627052D01*
X378162Y627052D01*
X378162Y631115D02*
X378918Y631115D01*
X383162Y633308D02*
X383162Y627052D01*
X383162Y633308D02*
X383918Y633308D01*
X383918Y627052D01*
X383162Y627052D01*
X383162Y631115D02*
X383918Y631115D01*
X388162Y633308D02*
X388162Y627052D01*
X388162Y633308D02*
X388918Y633308D01*
X388918Y627052D01*
X388162Y627052D01*
X388162Y631115D02*
X388918Y631115D01*
X393162Y633308D02*
X393162Y627052D01*
X393162Y633308D02*
X393918Y633308D01*
X393918Y627052D01*
X393162Y627052D01*
X393162Y631115D02*
X393918Y631115D01*
X398032Y638078D02*
X404288Y638078D01*
X404288Y637322D01*
X398032Y637322D01*
X398032Y638078D01*
X398032Y643078D02*
X404288Y643078D01*
X404288Y642322D01*
X398032Y642322D01*
X398032Y643078D01*
X398032Y648078D02*
X404288Y648078D01*
X404288Y647322D01*
X398032Y647322D01*
X398032Y648078D01*
X398032Y653078D02*
X404288Y653078D01*
X404288Y652322D01*
X398032Y652322D01*
X398032Y653078D01*
X393918Y657092D02*
X393918Y663348D01*
X393918Y657092D02*
X393162Y657092D01*
X393162Y663348D01*
X393918Y663348D01*
X393918Y661155D02*
X393162Y661155D01*
X388918Y663348D02*
X388918Y657092D01*
X388162Y657092D01*
X388162Y663348D01*
X388918Y663348D01*
X388918Y661155D02*
X388162Y661155D01*
X383918Y663348D02*
X383918Y657092D01*
X383162Y657092D01*
X383162Y663348D01*
X383918Y663348D01*
X383918Y661155D02*
X383162Y661155D01*
X378918Y663348D02*
X378918Y657092D01*
X378162Y657092D01*
X378162Y663348D01*
X378918Y663348D01*
X378918Y661155D02*
X378162Y661155D01*
X374248Y652422D02*
X367992Y652422D01*
X367992Y653178D01*
X374248Y653178D01*
X374248Y652422D01*
X374248Y647422D02*
X367992Y647422D01*
X367992Y648178D01*
X374248Y648178D01*
X374248Y647422D01*
X374248Y642422D02*
X367992Y642422D01*
X367992Y643178D01*
X374248Y643178D01*
X374248Y642422D01*
X374248Y637422D02*
X367992Y637422D01*
X367992Y638178D01*
X374248Y638178D01*
X374248Y637422D01*
D10*
X360680Y704460D03*
X360680Y687460D03*
X411480Y704460D03*
X411480Y687460D03*
X462280Y704460D03*
X462280Y687460D03*
D16*
X322580Y530860D03*
X347980Y530860D03*
X373380Y530860D03*
X398780Y530860D03*
X424180Y530860D03*
X449580Y530860D03*
D10*
X695960Y687460D03*
X695960Y704460D03*
X645160Y687460D03*
X645160Y704460D03*
D11*
X572450Y701240D02*
X565470Y701240D01*
X565470Y708220D01*
X572450Y708220D01*
X572450Y701240D01*
X572450Y706040D02*
X565470Y706040D01*
X565470Y683700D02*
X572450Y683700D01*
X565470Y683700D02*
X565470Y690680D01*
X572450Y690680D01*
X572450Y683700D01*
X572450Y688500D02*
X565470Y688500D01*
D12*
X764540Y525780D03*
X525780Y764540D03*
D13*
X543560Y746760D03*
X746760Y746760D03*
X746760Y543560D03*
X543560Y543560D03*
D14*
X758110Y617160D03*
X758110Y673160D03*
D15*
X721360Y630160D03*
X721360Y640160D03*
X721360Y650160D03*
X721360Y660160D03*
D14*
X532210Y673160D03*
X532210Y617160D03*
D15*
X568960Y660160D03*
X568960Y650160D03*
X568960Y640160D03*
X568960Y630160D03*
D16*
X695960Y759460D03*
X670560Y759460D03*
X645160Y759460D03*
X619760Y759460D03*
X594360Y759460D03*
D10*
X594360Y687460D03*
X594360Y704460D03*
D17*
X637242Y633308D02*
X637242Y627052D01*
X637242Y633308D02*
X637998Y633308D01*
X637998Y627052D01*
X637242Y627052D01*
X637242Y631115D02*
X637998Y631115D01*
X642242Y633308D02*
X642242Y627052D01*
X642242Y633308D02*
X642998Y633308D01*
X642998Y627052D01*
X642242Y627052D01*
X642242Y631115D02*
X642998Y631115D01*
X647242Y633308D02*
X647242Y627052D01*
X647242Y633308D02*
X647998Y633308D01*
X647998Y627052D01*
X647242Y627052D01*
X647242Y631115D02*
X647998Y631115D01*
X652242Y633308D02*
X652242Y627052D01*
X652242Y633308D02*
X652998Y633308D01*
X652998Y627052D01*
X652242Y627052D01*
X652242Y631115D02*
X652998Y631115D01*
X657112Y638078D02*
X663368Y638078D01*
X663368Y637322D01*
X657112Y637322D01*
X657112Y638078D01*
X657112Y643078D02*
X663368Y643078D01*
X663368Y642322D01*
X657112Y642322D01*
X657112Y643078D01*
X657112Y648078D02*
X663368Y648078D01*
X663368Y647322D01*
X657112Y647322D01*
X657112Y648078D01*
X657112Y653078D02*
X663368Y653078D01*
X663368Y652322D01*
X657112Y652322D01*
X657112Y653078D01*
X652998Y657092D02*
X652998Y663348D01*
X652998Y657092D02*
X652242Y657092D01*
X652242Y663348D01*
X652998Y663348D01*
X652998Y661155D02*
X652242Y661155D01*
X647998Y663348D02*
X647998Y657092D01*
X647242Y657092D01*
X647242Y663348D01*
X647998Y663348D01*
X647998Y661155D02*
X647242Y661155D01*
X642998Y663348D02*
X642998Y657092D01*
X642242Y657092D01*
X642242Y663348D01*
X642998Y663348D01*
X642998Y661155D02*
X642242Y661155D01*
X637998Y663348D02*
X637998Y657092D01*
X637242Y657092D01*
X637242Y663348D01*
X637998Y663348D01*
X637998Y661155D02*
X637242Y661155D01*
X633328Y652422D02*
X627072Y652422D01*
X627072Y653178D01*
X633328Y653178D01*
X633328Y652422D01*
X633328Y647422D02*
X627072Y647422D01*
X627072Y648178D01*
X633328Y648178D01*
X633328Y647422D01*
X633328Y642422D02*
X627072Y642422D01*
X627072Y643178D01*
X633328Y643178D01*
X633328Y642422D01*
X633328Y637422D02*
X627072Y637422D01*
X627072Y638178D01*
X633328Y638178D01*
X633328Y637422D01*
D10*
X619760Y704460D03*
X619760Y687460D03*
X670560Y704460D03*
X670560Y687460D03*
X721360Y704460D03*
X721360Y687460D03*
D16*
X581660Y530860D03*
X607060Y530860D03*
X632460Y530860D03*
X657860Y530860D03*
X683260Y530860D03*
X708660Y530860D03*
D10*
X955040Y687460D03*
X955040Y704460D03*
X904240Y687460D03*
X904240Y704460D03*
D11*
X831530Y701240D02*
X824550Y701240D01*
X824550Y708220D01*
X831530Y708220D01*
X831530Y701240D01*
X831530Y706040D02*
X824550Y706040D01*
X824550Y683700D02*
X831530Y683700D01*
X824550Y683700D02*
X824550Y690680D01*
X831530Y690680D01*
X831530Y683700D01*
X831530Y688500D02*
X824550Y688500D01*
D12*
X1023620Y525780D03*
X784860Y764540D03*
D13*
X802640Y746760D03*
X1005840Y746760D03*
X1005840Y543560D03*
X802640Y543560D03*
D14*
X1017190Y617160D03*
X1017190Y673160D03*
D15*
X980440Y630160D03*
X980440Y640160D03*
X980440Y650160D03*
X980440Y660160D03*
D14*
X791290Y673160D03*
X791290Y617160D03*
D15*
X828040Y660160D03*
X828040Y650160D03*
X828040Y640160D03*
X828040Y630160D03*
D16*
X955040Y759460D03*
X929640Y759460D03*
X904240Y759460D03*
X878840Y759460D03*
X853440Y759460D03*
D10*
X853440Y687460D03*
X853440Y704460D03*
D17*
X896322Y633308D02*
X896322Y627052D01*
X896322Y633308D02*
X897078Y633308D01*
X897078Y627052D01*
X896322Y627052D01*
X896322Y631115D02*
X897078Y631115D01*
X901322Y633308D02*
X901322Y627052D01*
X901322Y633308D02*
X902078Y633308D01*
X902078Y627052D01*
X901322Y627052D01*
X901322Y631115D02*
X902078Y631115D01*
X906322Y633308D02*
X906322Y627052D01*
X906322Y633308D02*
X907078Y633308D01*
X907078Y627052D01*
X906322Y627052D01*
X906322Y631115D02*
X907078Y631115D01*
X911322Y633308D02*
X911322Y627052D01*
X911322Y633308D02*
X912078Y633308D01*
X912078Y627052D01*
X911322Y627052D01*
X911322Y631115D02*
X912078Y631115D01*
X916192Y638078D02*
X922448Y638078D01*
X922448Y637322D01*
X916192Y637322D01*
X916192Y638078D01*
X916192Y643078D02*
X922448Y643078D01*
X922448Y642322D01*
X916192Y642322D01*
X916192Y643078D01*
X916192Y648078D02*
X922448Y648078D01*
X922448Y647322D01*
X916192Y647322D01*
X916192Y648078D01*
X916192Y653078D02*
X922448Y653078D01*
X922448Y652322D01*
X916192Y652322D01*
X916192Y653078D01*
X912078Y657092D02*
X912078Y663348D01*
X912078Y657092D02*
X911322Y657092D01*
X911322Y663348D01*
X912078Y663348D01*
X912078Y661155D02*
X911322Y661155D01*
X907078Y663348D02*
X907078Y657092D01*
X906322Y657092D01*
X906322Y663348D01*
X907078Y663348D01*
X907078Y661155D02*
X906322Y661155D01*
X902078Y663348D02*
X902078Y657092D01*
X901322Y657092D01*
X901322Y663348D01*
X902078Y663348D01*
X902078Y661155D02*
X901322Y661155D01*
X897078Y663348D02*
X897078Y657092D01*
X896322Y657092D01*
X896322Y663348D01*
X897078Y663348D01*
X897078Y661155D02*
X896322Y661155D01*
X892408Y652422D02*
X886152Y652422D01*
X886152Y653178D01*
X892408Y653178D01*
X892408Y652422D01*
X892408Y647422D02*
X886152Y647422D01*
X886152Y648178D01*
X892408Y648178D01*
X892408Y647422D01*
X892408Y642422D02*
X886152Y642422D01*
X886152Y643178D01*
X892408Y643178D01*
X892408Y642422D01*
X892408Y637422D02*
X886152Y637422D01*
X886152Y638178D01*
X892408Y638178D01*
X892408Y637422D01*
D10*
X878840Y704460D03*
X878840Y687460D03*
X929640Y704460D03*
X929640Y687460D03*
X980440Y704460D03*
X980440Y687460D03*
D16*
X840740Y530860D03*
X866140Y530860D03*
X891540Y530860D03*
X916940Y530860D03*
X942340Y530860D03*
X967740Y530860D03*
D10*
X177800Y946540D03*
X177800Y963540D03*
X127000Y946540D03*
X127000Y963540D03*
D11*
X54290Y960320D02*
X47310Y960320D01*
X47310Y967300D01*
X54290Y967300D01*
X54290Y960320D01*
X54290Y965120D02*
X47310Y965120D01*
X47310Y942780D02*
X54290Y942780D01*
X47310Y942780D02*
X47310Y949760D01*
X54290Y949760D01*
X54290Y942780D01*
X54290Y947580D02*
X47310Y947580D01*
D12*
X246380Y784860D03*
X7620Y1023620D03*
D13*
X25400Y1005840D03*
X228600Y1005840D03*
X228600Y802640D03*
X25400Y802640D03*
D14*
X239950Y876240D03*
X239950Y932240D03*
D15*
X203200Y889240D03*
X203200Y899240D03*
X203200Y909240D03*
X203200Y919240D03*
D14*
X14050Y932240D03*
X14050Y876240D03*
D15*
X50800Y919240D03*
X50800Y909240D03*
X50800Y899240D03*
X50800Y889240D03*
D16*
X177800Y1018540D03*
X152400Y1018540D03*
X127000Y1018540D03*
X101600Y1018540D03*
X76200Y1018540D03*
D10*
X76200Y946540D03*
X76200Y963540D03*
D17*
X119082Y892388D02*
X119082Y886132D01*
X119082Y892388D02*
X119838Y892388D01*
X119838Y886132D01*
X119082Y886132D01*
X119082Y890195D02*
X119838Y890195D01*
X124082Y892388D02*
X124082Y886132D01*
X124082Y892388D02*
X124838Y892388D01*
X124838Y886132D01*
X124082Y886132D01*
X124082Y890195D02*
X124838Y890195D01*
X129082Y892388D02*
X129082Y886132D01*
X129082Y892388D02*
X129838Y892388D01*
X129838Y886132D01*
X129082Y886132D01*
X129082Y890195D02*
X129838Y890195D01*
X134082Y892388D02*
X134082Y886132D01*
X134082Y892388D02*
X134838Y892388D01*
X134838Y886132D01*
X134082Y886132D01*
X134082Y890195D02*
X134838Y890195D01*
X138952Y897158D02*
X145208Y897158D01*
X145208Y896402D01*
X138952Y896402D01*
X138952Y897158D01*
X138952Y902158D02*
X145208Y902158D01*
X145208Y901402D01*
X138952Y901402D01*
X138952Y902158D01*
X138952Y907158D02*
X145208Y907158D01*
X145208Y906402D01*
X138952Y906402D01*
X138952Y907158D01*
X138952Y912158D02*
X145208Y912158D01*
X145208Y911402D01*
X138952Y911402D01*
X138952Y912158D01*
X134838Y916172D02*
X134838Y922428D01*
X134838Y916172D02*
X134082Y916172D01*
X134082Y922428D01*
X134838Y922428D01*
X134838Y920235D02*
X134082Y920235D01*
X129838Y922428D02*
X129838Y916172D01*
X129082Y916172D01*
X129082Y922428D01*
X129838Y922428D01*
X129838Y920235D02*
X129082Y920235D01*
X124838Y922428D02*
X124838Y916172D01*
X124082Y916172D01*
X124082Y922428D01*
X124838Y922428D01*
X124838Y920235D02*
X124082Y920235D01*
X119838Y922428D02*
X119838Y916172D01*
X119082Y916172D01*
X119082Y922428D01*
X119838Y922428D01*
X119838Y920235D02*
X119082Y920235D01*
X115168Y911502D02*
X108912Y911502D01*
X108912Y912258D01*
X115168Y912258D01*
X115168Y911502D01*
X115168Y906502D02*
X108912Y906502D01*
X108912Y907258D01*
X115168Y907258D01*
X115168Y906502D01*
X115168Y901502D02*
X108912Y901502D01*
X108912Y902258D01*
X115168Y902258D01*
X115168Y901502D01*
X115168Y896502D02*
X108912Y896502D01*
X108912Y897258D01*
X115168Y897258D01*
X115168Y896502D01*
D10*
X101600Y963540D03*
X101600Y946540D03*
X152400Y963540D03*
X152400Y946540D03*
X203200Y963540D03*
X203200Y946540D03*
D16*
X63500Y789940D03*
X88900Y789940D03*
X114300Y789940D03*
X139700Y789940D03*
X165100Y789940D03*
X190500Y789940D03*
D10*
X436880Y946540D03*
X436880Y963540D03*
X386080Y946540D03*
X386080Y963540D03*
D11*
X313370Y960320D02*
X306390Y960320D01*
X306390Y967300D01*
X313370Y967300D01*
X313370Y960320D01*
X313370Y965120D02*
X306390Y965120D01*
X306390Y942780D02*
X313370Y942780D01*
X306390Y942780D02*
X306390Y949760D01*
X313370Y949760D01*
X313370Y942780D01*
X313370Y947580D02*
X306390Y947580D01*
D12*
X505460Y784860D03*
X266700Y1023620D03*
D13*
X284480Y1005840D03*
X487680Y1005840D03*
X487680Y802640D03*
X284480Y802640D03*
D14*
X499030Y876240D03*
X499030Y932240D03*
D15*
X462280Y889240D03*
X462280Y899240D03*
X462280Y909240D03*
X462280Y919240D03*
D14*
X273130Y932240D03*
X273130Y876240D03*
D15*
X309880Y919240D03*
X309880Y909240D03*
X309880Y899240D03*
X309880Y889240D03*
D16*
X436880Y1018540D03*
X411480Y1018540D03*
X386080Y1018540D03*
X360680Y1018540D03*
X335280Y1018540D03*
D10*
X335280Y946540D03*
X335280Y963540D03*
D17*
X378162Y892388D02*
X378162Y886132D01*
X378162Y892388D02*
X378918Y892388D01*
X378918Y886132D01*
X378162Y886132D01*
X378162Y890195D02*
X378918Y890195D01*
X383162Y892388D02*
X383162Y886132D01*
X383162Y892388D02*
X383918Y892388D01*
X383918Y886132D01*
X383162Y886132D01*
X383162Y890195D02*
X383918Y890195D01*
X388162Y892388D02*
X388162Y886132D01*
X388162Y892388D02*
X388918Y892388D01*
X388918Y886132D01*
X388162Y886132D01*
X388162Y890195D02*
X388918Y890195D01*
X393162Y892388D02*
X393162Y886132D01*
X393162Y892388D02*
X393918Y892388D01*
X393918Y886132D01*
X393162Y886132D01*
X393162Y890195D02*
X393918Y890195D01*
X398032Y897158D02*
X404288Y897158D01*
X404288Y896402D01*
X398032Y896402D01*
X398032Y897158D01*
X398032Y902158D02*
X404288Y902158D01*
X404288Y901402D01*
X398032Y901402D01*
X398032Y902158D01*
X398032Y907158D02*
X404288Y907158D01*
X404288Y906402D01*
X398032Y906402D01*
X398032Y907158D01*
X398032Y912158D02*
X404288Y912158D01*
X404288Y911402D01*
X398032Y911402D01*
X398032Y912158D01*
X393918Y916172D02*
X393918Y922428D01*
X393918Y916172D02*
X393162Y916172D01*
X393162Y922428D01*
X393918Y922428D01*
X393918Y920235D02*
X393162Y920235D01*
X388918Y922428D02*
X388918Y916172D01*
X388162Y916172D01*
X388162Y922428D01*
X388918Y922428D01*
X388918Y920235D02*
X388162Y920235D01*
X383918Y922428D02*
X383918Y916172D01*
X383162Y916172D01*
X383162Y922428D01*
X383918Y922428D01*
X383918Y920235D02*
X383162Y920235D01*
X378918Y922428D02*
X378918Y916172D01*
X378162Y916172D01*
X378162Y922428D01*
X378918Y922428D01*
X378918Y920235D02*
X378162Y920235D01*
X374248Y911502D02*
X367992Y911502D01*
X367992Y912258D01*
X374248Y912258D01*
X374248Y911502D01*
X374248Y906502D02*
X367992Y906502D01*
X367992Y907258D01*
X374248Y907258D01*
X374248Y906502D01*
X374248Y901502D02*
X367992Y901502D01*
X367992Y902258D01*
X374248Y902258D01*
X374248Y901502D01*
X374248Y896502D02*
X367992Y896502D01*
X367992Y897258D01*
X374248Y897258D01*
X374248Y896502D01*
D10*
X360680Y963540D03*
X360680Y946540D03*
X411480Y963540D03*
X411480Y946540D03*
X462280Y963540D03*
X462280Y946540D03*
D16*
X322580Y789940D03*
X347980Y789940D03*
X373380Y789940D03*
X398780Y789940D03*
X424180Y789940D03*
X449580Y789940D03*
D10*
X695960Y946540D03*
X695960Y963540D03*
X645160Y946540D03*
X645160Y963540D03*
D11*
X572450Y960320D02*
X565470Y960320D01*
X565470Y967300D01*
X572450Y967300D01*
X572450Y960320D01*
X572450Y965120D02*
X565470Y965120D01*
X565470Y942780D02*
X572450Y942780D01*
X565470Y942780D02*
X565470Y949760D01*
X572450Y949760D01*
X572450Y942780D01*
X572450Y947580D02*
X565470Y947580D01*
D12*
X764540Y784860D03*
X525780Y1023620D03*
D13*
X543560Y1005840D03*
X746760Y1005840D03*
X746760Y802640D03*
X543560Y802640D03*
D14*
X758110Y876240D03*
X758110Y932240D03*
D15*
X721360Y889240D03*
X721360Y899240D03*
X721360Y909240D03*
X721360Y919240D03*
D14*
X532210Y932240D03*
X532210Y876240D03*
D15*
X568960Y919240D03*
X568960Y909240D03*
X568960Y899240D03*
X568960Y889240D03*
D16*
X695960Y1018540D03*
X670560Y1018540D03*
X645160Y1018540D03*
X619760Y1018540D03*
X594360Y1018540D03*
D10*
X594360Y946540D03*
X594360Y963540D03*
D17*
X637242Y892388D02*
X637242Y886132D01*
X637242Y892388D02*
X637998Y892388D01*
X637998Y886132D01*
X637242Y886132D01*
X637242Y890195D02*
X637998Y890195D01*
X642242Y892388D02*
X642242Y886132D01*
X642242Y892388D02*
X642998Y892388D01*
X642998Y886132D01*
X642242Y886132D01*
X642242Y890195D02*
X642998Y890195D01*
X647242Y892388D02*
X647242Y886132D01*
X647242Y892388D02*
X647998Y892388D01*
X647998Y886132D01*
X647242Y886132D01*
X647242Y890195D02*
X647998Y890195D01*
X652242Y892388D02*
X652242Y886132D01*
X652242Y892388D02*
X652998Y892388D01*
X652998Y886132D01*
X652242Y886132D01*
X652242Y890195D02*
X652998Y890195D01*
X657112Y897158D02*
X663368Y897158D01*
X663368Y896402D01*
X657112Y896402D01*
X657112Y897158D01*
X657112Y902158D02*
X663368Y902158D01*
X663368Y901402D01*
X657112Y901402D01*
X657112Y902158D01*
X657112Y907158D02*
X663368Y907158D01*
X663368Y906402D01*
X657112Y906402D01*
X657112Y907158D01*
X657112Y912158D02*
X663368Y912158D01*
X663368Y911402D01*
X657112Y911402D01*
X657112Y912158D01*
X652998Y916172D02*
X652998Y922428D01*
X652998Y916172D02*
X652242Y916172D01*
X652242Y922428D01*
X652998Y922428D01*
X652998Y920235D02*
X652242Y920235D01*
X647998Y922428D02*
X647998Y916172D01*
X647242Y916172D01*
X647242Y922428D01*
X647998Y922428D01*
X647998Y920235D02*
X647242Y920235D01*
X642998Y922428D02*
X642998Y916172D01*
X642242Y916172D01*
X642242Y922428D01*
X642998Y922428D01*
X642998Y920235D02*
X642242Y920235D01*
X637998Y922428D02*
X637998Y916172D01*
X637242Y916172D01*
X637242Y922428D01*
X637998Y922428D01*
X637998Y920235D02*
X637242Y920235D01*
X633328Y911502D02*
X627072Y911502D01*
X627072Y912258D01*
X633328Y912258D01*
X633328Y911502D01*
X633328Y906502D02*
X627072Y906502D01*
X627072Y907258D01*
X633328Y907258D01*
X633328Y906502D01*
X633328Y901502D02*
X627072Y901502D01*
X627072Y902258D01*
X633328Y902258D01*
X633328Y901502D01*
X633328Y896502D02*
X627072Y896502D01*
X627072Y897258D01*
X633328Y897258D01*
X633328Y896502D01*
D10*
X619760Y963540D03*
X619760Y946540D03*
X670560Y963540D03*
X670560Y946540D03*
X721360Y963540D03*
X721360Y946540D03*
D16*
X581660Y789940D03*
X607060Y789940D03*
X632460Y789940D03*
X657860Y789940D03*
X683260Y789940D03*
X708660Y789940D03*
D10*
X955040Y946540D03*
X955040Y963540D03*
X904240Y946540D03*
X904240Y963540D03*
D11*
X831530Y960320D02*
X824550Y960320D01*
X824550Y967300D01*
X831530Y967300D01*
X831530Y960320D01*
X831530Y965120D02*
X824550Y965120D01*
X824550Y942780D02*
X831530Y942780D01*
X824550Y942780D02*
X824550Y949760D01*
X831530Y949760D01*
X831530Y942780D01*
X831530Y947580D02*
X824550Y947580D01*
D12*
X1023620Y784860D03*
X784860Y1023620D03*
D13*
X802640Y1005840D03*
X1005840Y1005840D03*
X1005840Y802640D03*
X802640Y802640D03*
D14*
X1017190Y876240D03*
X1017190Y932240D03*
D15*
X980440Y889240D03*
X980440Y899240D03*
X980440Y909240D03*
X980440Y919240D03*
D14*
X791290Y932240D03*
X791290Y876240D03*
D15*
X828040Y919240D03*
X828040Y909240D03*
X828040Y899240D03*
X828040Y889240D03*
D16*
X955040Y1018540D03*
X929640Y1018540D03*
X904240Y1018540D03*
X878840Y1018540D03*
X853440Y1018540D03*
D10*
X853440Y946540D03*
X853440Y963540D03*
D17*
X896322Y892388D02*
X896322Y886132D01*
X896322Y892388D02*
X897078Y892388D01*
X897078Y886132D01*
X896322Y886132D01*
X896322Y890195D02*
X897078Y890195D01*
X901322Y892388D02*
X901322Y886132D01*
X901322Y892388D02*
X902078Y892388D01*
X902078Y886132D01*
X901322Y886132D01*
X901322Y890195D02*
X902078Y890195D01*
X906322Y892388D02*
X906322Y886132D01*
X906322Y892388D02*
X907078Y892388D01*
X907078Y886132D01*
X906322Y886132D01*
X906322Y890195D02*
X907078Y890195D01*
X911322Y892388D02*
X911322Y886132D01*
X911322Y892388D02*
X912078Y892388D01*
X912078Y886132D01*
X911322Y886132D01*
X911322Y890195D02*
X912078Y890195D01*
X916192Y897158D02*
X922448Y897158D01*
X922448Y896402D01*
X916192Y896402D01*
X916192Y897158D01*
X916192Y902158D02*
X922448Y902158D01*
X922448Y901402D01*
X916192Y901402D01*
X916192Y902158D01*
X916192Y907158D02*
X922448Y907158D01*
X922448Y906402D01*
X916192Y906402D01*
X916192Y907158D01*
X916192Y912158D02*
X922448Y912158D01*
X922448Y911402D01*
X916192Y911402D01*
X916192Y912158D01*
X912078Y916172D02*
X912078Y922428D01*
X912078Y916172D02*
X911322Y916172D01*
X911322Y922428D01*
X912078Y922428D01*
X912078Y920235D02*
X911322Y920235D01*
X907078Y922428D02*
X907078Y916172D01*
X906322Y916172D01*
X906322Y922428D01*
X907078Y922428D01*
X907078Y920235D02*
X906322Y920235D01*
X902078Y922428D02*
X902078Y916172D01*
X901322Y916172D01*
X901322Y922428D01*
X902078Y922428D01*
X902078Y920235D02*
X901322Y920235D01*
X897078Y922428D02*
X897078Y916172D01*
X896322Y916172D01*
X896322Y922428D01*
X897078Y922428D01*
X897078Y920235D02*
X896322Y920235D01*
X892408Y911502D02*
X886152Y911502D01*
X886152Y912258D01*
X892408Y912258D01*
X892408Y911502D01*
X892408Y906502D02*
X886152Y906502D01*
X886152Y907258D01*
X892408Y907258D01*
X892408Y906502D01*
X892408Y901502D02*
X886152Y901502D01*
X886152Y902258D01*
X892408Y902258D01*
X892408Y901502D01*
X892408Y896502D02*
X886152Y896502D01*
X886152Y897258D01*
X892408Y897258D01*
X892408Y896502D01*
D10*
X878840Y963540D03*
X878840Y946540D03*
X929640Y963540D03*
X929640Y946540D03*
X980440Y963540D03*
X980440Y946540D03*
D16*
X840740Y789940D03*
X866140Y789940D03*
X891540Y789940D03*
X916940Y789940D03*
X942340Y789940D03*
X967740Y789940D03*
D12*
X-26238Y1004570D03*
X1057478Y1004570D03*
D18*
X-35293Y63500D02*
X-35290Y63722D01*
X-35282Y63944D01*
X-35268Y64166D01*
X-35249Y64388D01*
X-35225Y64608D01*
X-35195Y64829D01*
X-35160Y65048D01*
X-35119Y65267D01*
X-35073Y65484D01*
X-35022Y65700D01*
X-34965Y65915D01*
X-34903Y66129D01*
X-34836Y66340D01*
X-34764Y66551D01*
X-34686Y66759D01*
X-34604Y66965D01*
X-34516Y67169D01*
X-34424Y67372D01*
X-34326Y67571D01*
X-34224Y67768D01*
X-34117Y67963D01*
X-34005Y68155D01*
X-33888Y68344D01*
X-33767Y68531D01*
X-33641Y68714D01*
X-33511Y68894D01*
X-33376Y69071D01*
X-33238Y69244D01*
X-33095Y69414D01*
X-32947Y69581D01*
X-32796Y69744D01*
X-32641Y69903D01*
X-32482Y70058D01*
X-32319Y70209D01*
X-32152Y70357D01*
X-31982Y70500D01*
X-31809Y70638D01*
X-31632Y70773D01*
X-31452Y70903D01*
X-31269Y71029D01*
X-31082Y71150D01*
X-30893Y71267D01*
X-30701Y71379D01*
X-30506Y71486D01*
X-30309Y71588D01*
X-30110Y71686D01*
X-29907Y71778D01*
X-29703Y71866D01*
X-29497Y71948D01*
X-29289Y72026D01*
X-29078Y72098D01*
X-28867Y72165D01*
X-28653Y72227D01*
X-28438Y72284D01*
X-28222Y72335D01*
X-28005Y72381D01*
X-27786Y72422D01*
X-27567Y72457D01*
X-27346Y72487D01*
X-27126Y72511D01*
X-26904Y72530D01*
X-26682Y72544D01*
X-26460Y72552D01*
X-26238Y72555D01*
X-26016Y72552D01*
X-25794Y72544D01*
X-25572Y72530D01*
X-25350Y72511D01*
X-25130Y72487D01*
X-24909Y72457D01*
X-24690Y72422D01*
X-24471Y72381D01*
X-24254Y72335D01*
X-24038Y72284D01*
X-23823Y72227D01*
X-23609Y72165D01*
X-23398Y72098D01*
X-23187Y72026D01*
X-22979Y71948D01*
X-22773Y71866D01*
X-22569Y71778D01*
X-22366Y71686D01*
X-22167Y71588D01*
X-21970Y71486D01*
X-21775Y71379D01*
X-21583Y71267D01*
X-21394Y71150D01*
X-21207Y71029D01*
X-21024Y70903D01*
X-20844Y70773D01*
X-20667Y70638D01*
X-20494Y70500D01*
X-20324Y70357D01*
X-20157Y70209D01*
X-19994Y70058D01*
X-19835Y69903D01*
X-19680Y69744D01*
X-19529Y69581D01*
X-19381Y69414D01*
X-19238Y69244D01*
X-19100Y69071D01*
X-18965Y68894D01*
X-18835Y68714D01*
X-18709Y68531D01*
X-18588Y68344D01*
X-18471Y68155D01*
X-18359Y67963D01*
X-18252Y67768D01*
X-18150Y67571D01*
X-18052Y67372D01*
X-17960Y67169D01*
X-17872Y66965D01*
X-17790Y66759D01*
X-17712Y66551D01*
X-17640Y66340D01*
X-17573Y66129D01*
X-17511Y65915D01*
X-17454Y65700D01*
X-17403Y65484D01*
X-17357Y65267D01*
X-17316Y65048D01*
X-17281Y64829D01*
X-17251Y64608D01*
X-17227Y64388D01*
X-17208Y64166D01*
X-17194Y63944D01*
X-17186Y63722D01*
X-17183Y63500D01*
X-17186Y63278D01*
X-17194Y63056D01*
X-17208Y62834D01*
X-17227Y62612D01*
X-17251Y62392D01*
X-17281Y62171D01*
X-17316Y61952D01*
X-17357Y61733D01*
X-17403Y61516D01*
X-17454Y61300D01*
X-17511Y61085D01*
X-17573Y60871D01*
X-17640Y60660D01*
X-17712Y60449D01*
X-17790Y60241D01*
X-17872Y60035D01*
X-17960Y59831D01*
X-18052Y59628D01*
X-18150Y59429D01*
X-18252Y59232D01*
X-18359Y59037D01*
X-18471Y58845D01*
X-18588Y58656D01*
X-18709Y58469D01*
X-18835Y58286D01*
X-18965Y58106D01*
X-19100Y57929D01*
X-19238Y57756D01*
X-19381Y57586D01*
X-19529Y57419D01*
X-19680Y57256D01*
X-19835Y57097D01*
X-19994Y56942D01*
X-20157Y56791D01*
X-20324Y56643D01*
X-20494Y56500D01*
X-20667Y56362D01*
X-20844Y56227D01*
X-21024Y56097D01*
X-21207Y55971D01*
X-21394Y55850D01*
X-21583Y55733D01*
X-21775Y55621D01*
X-21970Y55514D01*
X-22167Y55412D01*
X-22366Y55314D01*
X-22569Y55222D01*
X-22773Y55134D01*
X-22979Y55052D01*
X-23187Y54974D01*
X-23398Y54902D01*
X-23609Y54835D01*
X-23823Y54773D01*
X-24038Y54716D01*
X-24254Y54665D01*
X-24471Y54619D01*
X-24690Y54578D01*
X-24909Y54543D01*
X-25130Y54513D01*
X-25350Y54489D01*
X-25572Y54470D01*
X-25794Y54456D01*
X-26016Y54448D01*
X-26238Y54445D01*
X-26460Y54448D01*
X-26682Y54456D01*
X-26904Y54470D01*
X-27126Y54489D01*
X-27346Y54513D01*
X-27567Y54543D01*
X-27786Y54578D01*
X-28005Y54619D01*
X-28222Y54665D01*
X-28438Y54716D01*
X-28653Y54773D01*
X-28867Y54835D01*
X-29078Y54902D01*
X-29289Y54974D01*
X-29497Y55052D01*
X-29703Y55134D01*
X-29907Y55222D01*
X-30110Y55314D01*
X-30309Y55412D01*
X-30506Y55514D01*
X-30701Y55621D01*
X-30893Y55733D01*
X-31082Y55850D01*
X-31269Y55971D01*
X-31452Y56097D01*
X-31632Y56227D01*
X-31809Y56362D01*
X-31982Y56500D01*
X-32152Y56643D01*
X-32319Y56791D01*
X-32482Y56942D01*
X-32641Y57097D01*
X-32796Y57256D01*
X-32947Y57419D01*
X-33095Y57586D01*
X-33238Y57756D01*
X-33376Y57929D01*
X-33511Y58106D01*
X-33641Y58286D01*
X-33767Y58469D01*
X-33888Y58656D01*
X-34005Y58845D01*
X-34117Y59037D01*
X-34224Y59232D01*
X-34326Y59429D01*
X-34424Y59628D01*
X-34516Y59831D01*
X-34604Y60035D01*
X-34686Y60241D01*
X-34764Y60449D01*
X-34836Y60660D01*
X-34903Y60871D01*
X-34965Y61085D01*
X-35022Y61300D01*
X-35073Y61516D01*
X-35119Y61733D01*
X-35160Y61952D01*
X-35195Y62171D01*
X-35225Y62392D01*
X-35249Y62612D01*
X-35268Y62834D01*
X-35282Y63056D01*
X-35290Y63278D01*
X-35293Y63500D01*
D19*
X-26238Y63500D03*
M02*
