M48
;GenerationSoftware,Autodesk,EAGLE,9.6.2*%
;CreationDate,2021-11-09T15:02:48Z*%
FMAT,2
ICI,OFF
METRIC,TZ,000.000
T4C0.305
T3C0.381
T2C1.016
T1C3.302
%
G90
M71
T1
X74676Y2540
X100584Y100584
X100584Y80264
X2540Y22860
X22860Y22860
X22860Y2540
X2540Y2540
X28448Y22860
X48768Y22860
X48768Y2540
X28448Y2540
X54356Y22860
X74676Y22860
X80264Y80264
X54356Y2540
X80264Y22860
X100584Y22860
X100584Y2540
X80264Y2540
X2540Y48768
X22860Y48768
X22860Y28448
X2540Y28448
X28448Y48768
X48768Y48768
X48768Y28448
X28448Y28448
X54356Y48768
X74676Y48768
X74676Y28448
X54356Y28448
X80264Y48768
X100584Y48768
X80264Y28448
X2540Y74676
X22860Y74676
X22860Y54356
X2540Y54356
X28448Y74676
X48768Y74676
X48768Y54356
X28448Y54356
X54356Y74676
X74676Y74676
X74676Y54356
X54356Y54356
X80264Y74676
X100584Y74676
X100584Y54356
X80264Y54356
X2540Y100584
X22860Y100584
X100584Y28448
X22860Y80264
X2540Y80264
X28448Y100584
X48768Y100584
X48768Y80264
X28448Y80264
X54356Y100584
X74676Y100584
X74676Y80264
X54356Y80264
X80264Y100584
T2
X64516Y75946
X61976Y75946
X59436Y75946
X58166Y53340
X60706Y53340
X63246Y53340
X65786Y53340
X68326Y53340
X70866Y53340
X95504Y75946
X92964Y75946
X90424Y75946
X87884Y75946
X85344Y75946
X84074Y53340
X34798Y53340
X86614Y53340
X89154Y53340
X91694Y53340
X94234Y53340
X96774Y53340
X17780Y101854
X15240Y101854
X12700Y101854
X10160Y101854
X7620Y101854
X8890Y79248
X11430Y79248
X13970Y79248
X16510Y79248
X19050Y79248
X43688Y101854
X41148Y101854
X38608Y101854
X36068Y101854
X33528Y101854
X32258Y79248
X67056Y24130
X34798Y79248
X37338Y79248
X39878Y79248
X42418Y79248
X44958Y79248
X69596Y101854
X67056Y101854
X64516Y101854
X61976Y101854
X59436Y101854
X58166Y79248
X60706Y79248
X63246Y79248
X65786Y79248
X68326Y79248
X70866Y79248
X95504Y101854
X92964Y101854
X90424Y101854
X87884Y101854
X85344Y101854
X84074Y79248
X86614Y79248
X89154Y79248
X91694Y79248
X94234Y79248
X96774Y79248
X17780Y24130
X15240Y24130
X12700Y24130
X10160Y24130
X7620Y24130
X6350Y1524
X8890Y1524
X11430Y1524
X13970Y1524
X16510Y1524
X19050Y1524
X43688Y24130
X41148Y24130
X38608Y24130
X36068Y24130
X33528Y24130
X32258Y1524
X34798Y1524
X37338Y1524
X39878Y1524
X42418Y1524
X44958Y1524
X69596Y24130
X6350Y79248
X64516Y24130
X61976Y24130
X59436Y24130
X58166Y1524
X60706Y1524
X63246Y1524
X65786Y1524
X68326Y1524
X70866Y1524
X95504Y24130
X92964Y24130
X90424Y24130
X87884Y24130
X85344Y24130
X84074Y1524
X86614Y1524
X89154Y1524
X91694Y1524
X94234Y1524
X96774Y1524
X17780Y50038
X15240Y50038
X12700Y50038
X10160Y50038
X7620Y50038
X6350Y27432
X8890Y27432
X11430Y27432
X13970Y27432
X16510Y27432
X19050Y27432
X43688Y50038
X41148Y50038
X38608Y50038
X36068Y50038
X33528Y50038
X32258Y27432
X34798Y27432
X37338Y27432
X39878Y27432
X42418Y27432
X44958Y27432
X69596Y50038
X67056Y50038
X64516Y50038
X61976Y50038
X59436Y50038
X58166Y27432
X60706Y27432
X63246Y27432
X65786Y27432
X68326Y27432
X70866Y27432
X95504Y50038
X92964Y50038
X90424Y50038
X87884Y50038
X85344Y50038
X84074Y27432
X86614Y27432
X89154Y27432
X91694Y27432
X94234Y27432
X96774Y27432
X17780Y75946
X15240Y75946
X12700Y75946
X10160Y75946
X7620Y75946
X6350Y53340
X8890Y53340
X11430Y53340
X13970Y53340
X16510Y53340
X19050Y53340
X43688Y75946
X41148Y75946
X38608Y75946
X36068Y75946
X33528Y75946
X32258Y53340
X37338Y53340
X39878Y53340
X42418Y53340
X44958Y53340
X69596Y75946
X67056Y75946
T3
X37338Y71628
X11430Y97536
X29464Y39116
X44196Y38100
X13970Y71628
X11430Y71628
X3556Y13208
X18288Y12192
X65786Y71628
X81280Y39116
X81280Y13208
X96012Y12192
X13970Y19812
X11430Y19812
X39878Y45720
X37338Y45720
X96012Y38100
X91694Y19812
X89154Y19812
X63246Y71628
X81280Y65024
X96012Y64008
X3556Y90932
X91694Y45720
X89154Y45720
X29464Y13208
X44196Y12192
X18288Y89916
X29464Y90932
X44196Y89916
X91694Y71628
X39878Y19812
X37338Y19812
X89154Y71628
X55372Y39116
X3556Y39116
X70104Y38100
X39878Y97536
X55372Y65024
X29464Y65024
X13970Y45720
X11430Y45720
X44196Y64008
X65786Y45720
X55372Y13208
X70104Y12192
X63246Y45720
X70104Y64008
X37338Y97536
X65786Y19812
X63246Y19812
X3556Y65024
X18288Y64008
X13970Y97536
X55372Y90932
X70104Y89916
X65786Y97536
X63246Y97536
X81280Y90932
X96012Y89916
X91694Y97536
X89154Y97536
X18288Y38100
X39878Y71628
T4
X94234Y100330
X98044Y86614
X99060Y86614
X16510Y22606
X20320Y8890
X95504Y93472
X90424Y89916
X86360Y97282
X87884Y93218
X21336Y8890
X17780Y15748
X87884Y86868
X94488Y89916
X93472Y88290
X98044Y97536
X96774Y86614
X12700Y12192
X8636Y19558
X10160Y15494
X10160Y9144
X16764Y12192
X15748Y10566
X20320Y19812
X19050Y8890
X37338Y21336
X37338Y22606
X39878Y22606
X42418Y21336
X42418Y22606
X46228Y8890
X47244Y8890
X43688Y15748
X38608Y12192
X34544Y19558
X36068Y15494
X36068Y9144
X42672Y12192
X41656Y10566
X46228Y19812
X44958Y8890
X63246Y21336
X63246Y22606
X65786Y22606
X68326Y21336
X68326Y22606
X72136Y8890
X63246Y99060
X73152Y8890
X69596Y15748
X64516Y12192
X60452Y19558
X61976Y15494
X61976Y9144
X68580Y12192
X67564Y10566
X72136Y19812
X70866Y8890
X89154Y21336
X89154Y22606
X91694Y22606
X94234Y21336
X94234Y22606
X98044Y8890
X99060Y8890
X95504Y15748
X86360Y19558
X87884Y15494
X87884Y9144
X94488Y12192
X93472Y10566
X98044Y19812
X96774Y8890
X11430Y47244
X11430Y48514
X13970Y48514
X16510Y47244
X16510Y48514
X20320Y34798
X21336Y34798
X17780Y41656
X12700Y38100
X8636Y45466
X10160Y41402
X10160Y35052
X16764Y38100
X15748Y36474
X20320Y45720
X19050Y34798
X37338Y47244
X37338Y48514
X39878Y48514
X42418Y47244
X42418Y48514
X46228Y34798
X47244Y34798
X43688Y41656
X38608Y38100
X34544Y45466
X36068Y41402
X36068Y35052
X42672Y38100
X41656Y36474
X46228Y45720
X44958Y34798
X63246Y47244
X63246Y48514
X65786Y48514
X68326Y47244
X68326Y48514
X72136Y34798
X73152Y34798
X69596Y41656
X64516Y38100
X60452Y45466
X61976Y41402
X61976Y35052
X68580Y38100
X67564Y36474
X72136Y45720
X70866Y34798
X89154Y47244
X89154Y48514
X91694Y48514
X94234Y47244
X94234Y48514
X98044Y34798
X99060Y34798
X95504Y41656
X90424Y38100
X86360Y45466
X87884Y41402
X87884Y35052
X94488Y38100
X93472Y36474
X98044Y45720
X96774Y34798
X11430Y73152
X11430Y74422
X13970Y74422
X16510Y73152
X16510Y74422
X20320Y60706
X21336Y60706
X17780Y67564
X12700Y64008
X8636Y71374
X10160Y67310
X10160Y60960
X16764Y64008
X15748Y62382
X20320Y71628
X19050Y60706
X37338Y73152
X37338Y74422
X39878Y74422
X42418Y73152
X42418Y74422
X46228Y60706
X47244Y60706
X43688Y67564
X38608Y64008
X34544Y71374
X36068Y67310
X36068Y60960
X42672Y64008
X41656Y62382
X46228Y71628
X44958Y60706
X63246Y73152
X63246Y74422
X65786Y74422
X68326Y73152
X68326Y74422
X72136Y60706
X73152Y60706
X69596Y67564
X60452Y71374
X61976Y67310
X61976Y60960
X68580Y64008
X67564Y62382
X72136Y71628
X70866Y60706
X89154Y73152
X89154Y74422
X64516Y64008
X91694Y74422
X94234Y73152
X94234Y74422
X98044Y60706
X99060Y60706
X95504Y67564
X90424Y64008
X86360Y71374
X87884Y67310
X87884Y60960
X94488Y64008
X93472Y62382
X98044Y71628
X96774Y60706
X11430Y99060
X11430Y100330
X13970Y100330
X16510Y99060
X16510Y100330
X20320Y86614
X21336Y86614
X17780Y93472
X12700Y89916
X8636Y97282
X10160Y93218
X10160Y86868
X16764Y89916
X15748Y88290
X20320Y97536
X19050Y86614
X37338Y99060
X37338Y100330
X39878Y100330
X42418Y99060
X42418Y100330
X46228Y86614
X47244Y86614
X43688Y93472
X38608Y89916
X34544Y97282
X36068Y93218
X36068Y86868
X42672Y89916
X41656Y88290
X46228Y97536
X44958Y86614
X90424Y12192
X63246Y100330
X65786Y100330
X68326Y99060
X68326Y100330
X72136Y86614
X73152Y86614
X11430Y21336
X11430Y22606
X69596Y93472
X64516Y89916
X60452Y97282
X61976Y93218
X13970Y22606
X16510Y21336
X61976Y86868
X68580Y89916
X67564Y88290
X72136Y97536
X70866Y86614
X89154Y99060
X89154Y100330
X91694Y100330
X94234Y99060
M30