G04 EAGLE Gerber RS-274X export*
G75*
%MOMM*%
%FSLAX34Y34*%
%LPD*%
%INSoldermask Bottom*%
%IPPOS*%
%AMOC8*
5,1,8,0,0,1.08239X$1,22.5*%
G01*
%ADD10C,3.505200*%
%ADD11C,2.082800*%
%ADD12R,0.863600X1.473200*%
%ADD13C,1.203200*%
%ADD14C,1.270000*%
%ADD15C,1.703200*%

G36*
X372657Y703897D02*
X372657Y703897D01*
X372723Y703899D01*
X372767Y703917D01*
X372813Y703925D01*
X372870Y703959D01*
X372931Y703983D01*
X372966Y704015D01*
X373007Y704039D01*
X373048Y704090D01*
X373097Y704135D01*
X373118Y704177D01*
X373148Y704214D01*
X373169Y704276D01*
X373199Y704334D01*
X373207Y704389D01*
X373220Y704426D01*
X373219Y704465D01*
X373227Y704520D01*
X373227Y707060D01*
X373215Y707125D01*
X373213Y707190D01*
X373196Y707234D01*
X373187Y707281D01*
X373154Y707337D01*
X373129Y707398D01*
X373097Y707433D01*
X373073Y707474D01*
X373022Y707515D01*
X372978Y707564D01*
X372936Y707585D01*
X372899Y707615D01*
X372837Y707636D01*
X372778Y707666D01*
X372724Y707675D01*
X372686Y707687D01*
X372647Y707686D01*
X372593Y707694D01*
X368783Y707694D01*
X368718Y707682D01*
X368652Y707680D01*
X368608Y707663D01*
X368562Y707654D01*
X368505Y707621D01*
X368444Y707596D01*
X368409Y707564D01*
X368369Y707540D01*
X368327Y707489D01*
X368279Y707445D01*
X368257Y707403D01*
X368227Y707366D01*
X368206Y707304D01*
X368176Y707245D01*
X368168Y707191D01*
X368155Y707154D01*
X368155Y707151D01*
X368156Y707114D01*
X368148Y707060D01*
X368148Y704520D01*
X368160Y704455D01*
X368162Y704389D01*
X368180Y704346D01*
X368188Y704299D01*
X368222Y704242D01*
X368246Y704181D01*
X368278Y704147D01*
X368302Y704106D01*
X368353Y704064D01*
X368398Y704016D01*
X368440Y703994D01*
X368476Y703964D01*
X368539Y703943D01*
X368597Y703913D01*
X368652Y703905D01*
X368689Y703893D01*
X368728Y703894D01*
X368783Y703886D01*
X372593Y703886D01*
X372657Y703897D01*
G37*
G36*
X108650Y703897D02*
X108650Y703897D01*
X108716Y703899D01*
X108759Y703917D01*
X108806Y703925D01*
X108863Y703959D01*
X108923Y703983D01*
X108958Y704015D01*
X108999Y704039D01*
X109041Y704090D01*
X109089Y704135D01*
X109111Y704177D01*
X109140Y704214D01*
X109161Y704276D01*
X109192Y704334D01*
X109200Y704389D01*
X109212Y704426D01*
X109211Y704465D01*
X109219Y704520D01*
X109219Y707060D01*
X109208Y707125D01*
X109206Y707190D01*
X109188Y707234D01*
X109180Y707281D01*
X109146Y707337D01*
X109121Y707398D01*
X109090Y707433D01*
X109065Y707474D01*
X109014Y707515D01*
X108970Y707564D01*
X108928Y707585D01*
X108891Y707615D01*
X108829Y707636D01*
X108770Y707666D01*
X108716Y707675D01*
X108679Y707687D01*
X108639Y707686D01*
X108585Y707694D01*
X104775Y707694D01*
X104710Y707682D01*
X104644Y707680D01*
X104601Y707663D01*
X104554Y707654D01*
X104497Y707621D01*
X104437Y707596D01*
X104402Y707564D01*
X104361Y707540D01*
X104320Y707489D01*
X104271Y707445D01*
X104249Y707403D01*
X104220Y707366D01*
X104199Y707304D01*
X104168Y707245D01*
X104160Y707191D01*
X104148Y707154D01*
X104148Y707151D01*
X104149Y707114D01*
X104141Y707060D01*
X104141Y704520D01*
X104152Y704455D01*
X104154Y704389D01*
X104172Y704346D01*
X104180Y704299D01*
X104214Y704242D01*
X104239Y704181D01*
X104270Y704147D01*
X104295Y704106D01*
X104346Y704064D01*
X104390Y704016D01*
X104432Y703994D01*
X104469Y703964D01*
X104531Y703943D01*
X104590Y703913D01*
X104644Y703905D01*
X104681Y703893D01*
X104721Y703894D01*
X104775Y703886D01*
X108585Y703886D01*
X108650Y703897D01*
G37*
G36*
X98490Y703897D02*
X98490Y703897D01*
X98556Y703899D01*
X98599Y703917D01*
X98646Y703925D01*
X98703Y703959D01*
X98763Y703983D01*
X98798Y704015D01*
X98839Y704039D01*
X98881Y704090D01*
X98929Y704135D01*
X98951Y704177D01*
X98980Y704214D01*
X99001Y704276D01*
X99032Y704334D01*
X99040Y704389D01*
X99052Y704426D01*
X99051Y704465D01*
X99059Y704520D01*
X99059Y707060D01*
X99048Y707125D01*
X99046Y707190D01*
X99028Y707234D01*
X99020Y707281D01*
X98986Y707337D01*
X98961Y707398D01*
X98930Y707433D01*
X98905Y707474D01*
X98854Y707515D01*
X98810Y707564D01*
X98768Y707585D01*
X98731Y707615D01*
X98669Y707636D01*
X98610Y707666D01*
X98556Y707675D01*
X98519Y707687D01*
X98479Y707686D01*
X98425Y707694D01*
X94615Y707694D01*
X94550Y707682D01*
X94484Y707680D01*
X94441Y707663D01*
X94394Y707654D01*
X94337Y707621D01*
X94277Y707596D01*
X94242Y707564D01*
X94201Y707540D01*
X94160Y707489D01*
X94111Y707445D01*
X94089Y707403D01*
X94060Y707366D01*
X94039Y707304D01*
X94008Y707245D01*
X94000Y707191D01*
X93988Y707154D01*
X93988Y707151D01*
X93989Y707114D01*
X93981Y707060D01*
X93981Y704520D01*
X93992Y704455D01*
X93994Y704389D01*
X94012Y704346D01*
X94020Y704299D01*
X94054Y704242D01*
X94079Y704181D01*
X94110Y704147D01*
X94135Y704106D01*
X94186Y704064D01*
X94230Y704016D01*
X94272Y703994D01*
X94309Y703964D01*
X94371Y703943D01*
X94430Y703913D01*
X94484Y703905D01*
X94521Y703893D01*
X94561Y703894D01*
X94615Y703886D01*
X98425Y703886D01*
X98490Y703897D01*
G37*
G36*
X636640Y703897D02*
X636640Y703897D01*
X636705Y703899D01*
X636749Y703917D01*
X636796Y703925D01*
X636852Y703959D01*
X636913Y703983D01*
X636948Y704015D01*
X636989Y704039D01*
X637030Y704090D01*
X637079Y704135D01*
X637100Y704177D01*
X637130Y704214D01*
X637151Y704276D01*
X637181Y704334D01*
X637190Y704389D01*
X637202Y704426D01*
X637201Y704465D01*
X637209Y704520D01*
X637209Y707060D01*
X637197Y707125D01*
X637195Y707190D01*
X637178Y707234D01*
X637169Y707281D01*
X637136Y707337D01*
X637111Y707398D01*
X637079Y707433D01*
X637055Y707474D01*
X637004Y707515D01*
X636960Y707564D01*
X636918Y707585D01*
X636881Y707615D01*
X636819Y707636D01*
X636760Y707666D01*
X636706Y707675D01*
X636669Y707687D01*
X636629Y707686D01*
X636575Y707694D01*
X632765Y707694D01*
X632700Y707682D01*
X632634Y707680D01*
X632591Y707663D01*
X632544Y707654D01*
X632487Y707621D01*
X632426Y707596D01*
X632392Y707564D01*
X632351Y707540D01*
X632309Y707489D01*
X632261Y707445D01*
X632239Y707403D01*
X632209Y707366D01*
X632188Y707304D01*
X632158Y707245D01*
X632150Y707191D01*
X632138Y707154D01*
X632138Y707151D01*
X632139Y707114D01*
X632131Y707060D01*
X632131Y704520D01*
X632142Y704455D01*
X632144Y704389D01*
X632162Y704346D01*
X632170Y704299D01*
X632204Y704242D01*
X632228Y704181D01*
X632260Y704147D01*
X632284Y704106D01*
X632335Y704064D01*
X632380Y704016D01*
X632422Y703994D01*
X632459Y703964D01*
X632521Y703943D01*
X632579Y703913D01*
X632634Y703905D01*
X632671Y703893D01*
X632710Y703894D01*
X632765Y703886D01*
X636575Y703886D01*
X636640Y703897D01*
G37*
G36*
X626480Y703897D02*
X626480Y703897D01*
X626545Y703899D01*
X626589Y703917D01*
X626636Y703925D01*
X626692Y703959D01*
X626753Y703983D01*
X626788Y704015D01*
X626829Y704039D01*
X626870Y704090D01*
X626919Y704135D01*
X626940Y704177D01*
X626970Y704214D01*
X626991Y704276D01*
X627021Y704334D01*
X627030Y704389D01*
X627042Y704426D01*
X627041Y704465D01*
X627049Y704520D01*
X627049Y707060D01*
X627037Y707125D01*
X627035Y707190D01*
X627018Y707234D01*
X627009Y707281D01*
X626976Y707337D01*
X626951Y707398D01*
X626919Y707433D01*
X626895Y707474D01*
X626844Y707515D01*
X626800Y707564D01*
X626758Y707585D01*
X626721Y707615D01*
X626659Y707636D01*
X626600Y707666D01*
X626546Y707675D01*
X626509Y707687D01*
X626469Y707686D01*
X626415Y707694D01*
X622605Y707694D01*
X622540Y707682D01*
X622474Y707680D01*
X622431Y707663D01*
X622384Y707654D01*
X622327Y707621D01*
X622266Y707596D01*
X622232Y707564D01*
X622191Y707540D01*
X622149Y707489D01*
X622101Y707445D01*
X622079Y707403D01*
X622049Y707366D01*
X622028Y707304D01*
X621998Y707245D01*
X621990Y707191D01*
X621978Y707154D01*
X621978Y707151D01*
X621979Y707114D01*
X621971Y707060D01*
X621971Y704520D01*
X621982Y704455D01*
X621984Y704389D01*
X622002Y704346D01*
X622010Y704299D01*
X622044Y704242D01*
X622068Y704181D01*
X622100Y704147D01*
X622124Y704106D01*
X622175Y704064D01*
X622220Y704016D01*
X622262Y703994D01*
X622299Y703964D01*
X622361Y703943D01*
X622419Y703913D01*
X622474Y703905D01*
X622511Y703893D01*
X622550Y703894D01*
X622605Y703886D01*
X626415Y703886D01*
X626480Y703897D01*
G37*
G36*
X362497Y703897D02*
X362497Y703897D01*
X362563Y703899D01*
X362607Y703917D01*
X362653Y703925D01*
X362710Y703959D01*
X362771Y703983D01*
X362806Y704015D01*
X362847Y704039D01*
X362888Y704090D01*
X362937Y704135D01*
X362958Y704177D01*
X362988Y704214D01*
X363009Y704276D01*
X363039Y704334D01*
X363047Y704389D01*
X363060Y704426D01*
X363059Y704465D01*
X363067Y704520D01*
X363067Y707060D01*
X363055Y707125D01*
X363053Y707190D01*
X363036Y707234D01*
X363027Y707281D01*
X362994Y707337D01*
X362969Y707398D01*
X362937Y707433D01*
X362913Y707474D01*
X362862Y707515D01*
X362818Y707564D01*
X362776Y707585D01*
X362739Y707615D01*
X362677Y707636D01*
X362618Y707666D01*
X362564Y707675D01*
X362526Y707687D01*
X362487Y707686D01*
X362433Y707694D01*
X358623Y707694D01*
X358558Y707682D01*
X358492Y707680D01*
X358448Y707663D01*
X358402Y707654D01*
X358345Y707621D01*
X358284Y707596D01*
X358249Y707564D01*
X358209Y707540D01*
X358167Y707489D01*
X358119Y707445D01*
X358097Y707403D01*
X358067Y707366D01*
X358046Y707304D01*
X358016Y707245D01*
X358008Y707191D01*
X357995Y707154D01*
X357995Y707151D01*
X357996Y707114D01*
X357988Y707060D01*
X357988Y704520D01*
X358000Y704455D01*
X358002Y704389D01*
X358020Y704346D01*
X358028Y704299D01*
X358062Y704242D01*
X358086Y704181D01*
X358118Y704147D01*
X358142Y704106D01*
X358193Y704064D01*
X358238Y704016D01*
X358280Y703994D01*
X358316Y703964D01*
X358379Y703943D01*
X358437Y703913D01*
X358492Y703905D01*
X358529Y703893D01*
X358568Y703894D01*
X358623Y703886D01*
X362433Y703886D01*
X362497Y703897D01*
G37*
G36*
X707760Y602297D02*
X707760Y602297D01*
X707825Y602299D01*
X707869Y602317D01*
X707916Y602325D01*
X707972Y602359D01*
X708033Y602383D01*
X708068Y602415D01*
X708109Y602439D01*
X708150Y602490D01*
X708199Y602535D01*
X708220Y602577D01*
X708250Y602614D01*
X708271Y602676D01*
X708301Y602734D01*
X708310Y602789D01*
X708322Y602826D01*
X708321Y602865D01*
X708329Y602920D01*
X708329Y605460D01*
X708317Y605525D01*
X708315Y605590D01*
X708298Y605634D01*
X708289Y605681D01*
X708256Y605737D01*
X708231Y605798D01*
X708199Y605833D01*
X708175Y605874D01*
X708124Y605915D01*
X708080Y605964D01*
X708038Y605985D01*
X708001Y606015D01*
X707939Y606036D01*
X707880Y606066D01*
X707826Y606075D01*
X707789Y606087D01*
X707749Y606086D01*
X707695Y606094D01*
X703885Y606094D01*
X703820Y606082D01*
X703754Y606080D01*
X703711Y606063D01*
X703664Y606054D01*
X703607Y606021D01*
X703546Y605996D01*
X703512Y605964D01*
X703471Y605940D01*
X703429Y605889D01*
X703381Y605845D01*
X703359Y605803D01*
X703329Y605766D01*
X703308Y605704D01*
X703278Y605645D01*
X703270Y605591D01*
X703258Y605554D01*
X703258Y605551D01*
X703259Y605514D01*
X703251Y605460D01*
X703251Y602920D01*
X703262Y602855D01*
X703264Y602789D01*
X703282Y602746D01*
X703290Y602699D01*
X703324Y602642D01*
X703348Y602581D01*
X703380Y602547D01*
X703404Y602506D01*
X703455Y602464D01*
X703500Y602416D01*
X703542Y602394D01*
X703579Y602364D01*
X703641Y602343D01*
X703699Y602313D01*
X703754Y602305D01*
X703791Y602293D01*
X703830Y602294D01*
X703885Y602286D01*
X707695Y602286D01*
X707760Y602297D01*
G37*
G36*
X179770Y602297D02*
X179770Y602297D01*
X179836Y602299D01*
X179879Y602317D01*
X179926Y602325D01*
X179983Y602359D01*
X180043Y602383D01*
X180078Y602415D01*
X180119Y602439D01*
X180161Y602490D01*
X180209Y602535D01*
X180231Y602577D01*
X180260Y602614D01*
X180281Y602676D01*
X180312Y602734D01*
X180320Y602789D01*
X180332Y602826D01*
X180331Y602865D01*
X180339Y602920D01*
X180339Y605460D01*
X180328Y605525D01*
X180326Y605590D01*
X180308Y605634D01*
X180300Y605681D01*
X180266Y605737D01*
X180241Y605798D01*
X180210Y605833D01*
X180185Y605874D01*
X180134Y605915D01*
X180090Y605964D01*
X180048Y605985D01*
X180011Y606015D01*
X179949Y606036D01*
X179890Y606066D01*
X179836Y606075D01*
X179799Y606087D01*
X179759Y606086D01*
X179705Y606094D01*
X175895Y606094D01*
X175830Y606082D01*
X175764Y606080D01*
X175721Y606063D01*
X175674Y606054D01*
X175617Y606021D01*
X175557Y605996D01*
X175522Y605964D01*
X175481Y605940D01*
X175440Y605889D01*
X175391Y605845D01*
X175369Y605803D01*
X175340Y605766D01*
X175319Y605704D01*
X175288Y605645D01*
X175280Y605591D01*
X175268Y605554D01*
X175268Y605551D01*
X175269Y605514D01*
X175261Y605460D01*
X175261Y602920D01*
X175272Y602855D01*
X175274Y602789D01*
X175292Y602746D01*
X175300Y602699D01*
X175334Y602642D01*
X175359Y602581D01*
X175390Y602547D01*
X175415Y602506D01*
X175466Y602464D01*
X175510Y602416D01*
X175552Y602394D01*
X175589Y602364D01*
X175651Y602343D01*
X175710Y602313D01*
X175764Y602305D01*
X175801Y602293D01*
X175841Y602294D01*
X175895Y602286D01*
X179705Y602286D01*
X179770Y602297D01*
G37*
G36*
X443777Y602297D02*
X443777Y602297D01*
X443843Y602299D01*
X443887Y602317D01*
X443933Y602325D01*
X443990Y602359D01*
X444051Y602383D01*
X444086Y602415D01*
X444127Y602439D01*
X444168Y602490D01*
X444217Y602535D01*
X444238Y602577D01*
X444268Y602614D01*
X444289Y602676D01*
X444319Y602734D01*
X444327Y602789D01*
X444340Y602826D01*
X444339Y602865D01*
X444347Y602920D01*
X444347Y605460D01*
X444335Y605525D01*
X444333Y605590D01*
X444316Y605634D01*
X444307Y605681D01*
X444274Y605737D01*
X444249Y605798D01*
X444217Y605833D01*
X444193Y605874D01*
X444142Y605915D01*
X444098Y605964D01*
X444056Y605985D01*
X444019Y606015D01*
X443957Y606036D01*
X443898Y606066D01*
X443844Y606075D01*
X443806Y606087D01*
X443767Y606086D01*
X443713Y606094D01*
X439903Y606094D01*
X439838Y606082D01*
X439772Y606080D01*
X439728Y606063D01*
X439682Y606054D01*
X439625Y606021D01*
X439564Y605996D01*
X439529Y605964D01*
X439489Y605940D01*
X439447Y605889D01*
X439399Y605845D01*
X439377Y605803D01*
X439347Y605766D01*
X439326Y605704D01*
X439296Y605645D01*
X439288Y605591D01*
X439275Y605554D01*
X439275Y605551D01*
X439276Y605514D01*
X439268Y605460D01*
X439268Y602920D01*
X439280Y602855D01*
X439282Y602789D01*
X439300Y602746D01*
X439308Y602699D01*
X439342Y602642D01*
X439366Y602581D01*
X439398Y602547D01*
X439422Y602506D01*
X439473Y602464D01*
X439518Y602416D01*
X439560Y602394D01*
X439596Y602364D01*
X439659Y602343D01*
X439717Y602313D01*
X439772Y602305D01*
X439809Y602293D01*
X439848Y602294D01*
X439903Y602286D01*
X443713Y602286D01*
X443777Y602297D01*
G37*
G36*
X108650Y439915D02*
X108650Y439915D01*
X108716Y439917D01*
X108759Y439935D01*
X108806Y439943D01*
X108863Y439977D01*
X108923Y440001D01*
X108958Y440033D01*
X108999Y440057D01*
X109041Y440108D01*
X109089Y440153D01*
X109111Y440195D01*
X109140Y440231D01*
X109161Y440294D01*
X109192Y440352D01*
X109200Y440407D01*
X109212Y440444D01*
X109211Y440483D01*
X109219Y440538D01*
X109219Y443078D01*
X109208Y443142D01*
X109206Y443208D01*
X109188Y443252D01*
X109180Y443298D01*
X109146Y443355D01*
X109121Y443416D01*
X109090Y443451D01*
X109065Y443492D01*
X109014Y443533D01*
X108970Y443582D01*
X108928Y443603D01*
X108891Y443633D01*
X108829Y443654D01*
X108770Y443684D01*
X108716Y443692D01*
X108679Y443705D01*
X108639Y443704D01*
X108585Y443712D01*
X104775Y443712D01*
X104710Y443700D01*
X104644Y443698D01*
X104601Y443681D01*
X104554Y443672D01*
X104497Y443639D01*
X104437Y443614D01*
X104402Y443582D01*
X104361Y443558D01*
X104320Y443507D01*
X104271Y443463D01*
X104249Y443421D01*
X104220Y443384D01*
X104199Y443322D01*
X104168Y443263D01*
X104160Y443209D01*
X104148Y443171D01*
X104148Y443169D01*
X104148Y443168D01*
X104149Y443132D01*
X104141Y443078D01*
X104141Y440538D01*
X104152Y440473D01*
X104154Y440407D01*
X104172Y440363D01*
X104180Y440317D01*
X104214Y440260D01*
X104239Y440199D01*
X104270Y440164D01*
X104295Y440124D01*
X104346Y440082D01*
X104390Y440034D01*
X104432Y440012D01*
X104469Y439982D01*
X104531Y439961D01*
X104590Y439931D01*
X104644Y439923D01*
X104681Y439910D01*
X104721Y439911D01*
X104775Y439903D01*
X108585Y439903D01*
X108650Y439915D01*
G37*
G36*
X362497Y439915D02*
X362497Y439915D01*
X362563Y439917D01*
X362607Y439935D01*
X362653Y439943D01*
X362710Y439977D01*
X362771Y440001D01*
X362806Y440033D01*
X362847Y440057D01*
X362888Y440108D01*
X362937Y440153D01*
X362958Y440195D01*
X362988Y440231D01*
X363009Y440294D01*
X363039Y440352D01*
X363047Y440407D01*
X363060Y440444D01*
X363059Y440483D01*
X363067Y440538D01*
X363067Y443078D01*
X363055Y443142D01*
X363053Y443208D01*
X363036Y443252D01*
X363027Y443298D01*
X362994Y443355D01*
X362969Y443416D01*
X362937Y443451D01*
X362913Y443492D01*
X362862Y443533D01*
X362818Y443582D01*
X362776Y443603D01*
X362739Y443633D01*
X362677Y443654D01*
X362618Y443684D01*
X362564Y443692D01*
X362526Y443705D01*
X362487Y443704D01*
X362433Y443712D01*
X358623Y443712D01*
X358558Y443700D01*
X358492Y443698D01*
X358448Y443681D01*
X358402Y443672D01*
X358345Y443639D01*
X358284Y443614D01*
X358249Y443582D01*
X358209Y443558D01*
X358167Y443507D01*
X358119Y443463D01*
X358097Y443421D01*
X358067Y443384D01*
X358046Y443322D01*
X358016Y443263D01*
X358008Y443209D01*
X357995Y443171D01*
X357995Y443169D01*
X357995Y443168D01*
X357996Y443132D01*
X357988Y443078D01*
X357988Y440538D01*
X358000Y440473D01*
X358002Y440407D01*
X358020Y440363D01*
X358028Y440317D01*
X358062Y440260D01*
X358086Y440199D01*
X358118Y440164D01*
X358142Y440124D01*
X358193Y440082D01*
X358238Y440034D01*
X358280Y440012D01*
X358316Y439982D01*
X358379Y439961D01*
X358437Y439931D01*
X358492Y439923D01*
X358529Y439910D01*
X358568Y439911D01*
X358623Y439903D01*
X362433Y439903D01*
X362497Y439915D01*
G37*
G36*
X98490Y439915D02*
X98490Y439915D01*
X98556Y439917D01*
X98599Y439935D01*
X98646Y439943D01*
X98703Y439977D01*
X98763Y440001D01*
X98798Y440033D01*
X98839Y440057D01*
X98881Y440108D01*
X98929Y440153D01*
X98951Y440195D01*
X98980Y440231D01*
X99001Y440294D01*
X99032Y440352D01*
X99040Y440407D01*
X99052Y440444D01*
X99051Y440483D01*
X99059Y440538D01*
X99059Y443078D01*
X99048Y443142D01*
X99046Y443208D01*
X99028Y443252D01*
X99020Y443298D01*
X98986Y443355D01*
X98961Y443416D01*
X98930Y443451D01*
X98905Y443492D01*
X98854Y443533D01*
X98810Y443582D01*
X98768Y443603D01*
X98731Y443633D01*
X98669Y443654D01*
X98610Y443684D01*
X98556Y443692D01*
X98519Y443705D01*
X98479Y443704D01*
X98425Y443712D01*
X94615Y443712D01*
X94550Y443700D01*
X94484Y443698D01*
X94441Y443681D01*
X94394Y443672D01*
X94337Y443639D01*
X94277Y443614D01*
X94242Y443582D01*
X94201Y443558D01*
X94160Y443507D01*
X94111Y443463D01*
X94089Y443421D01*
X94060Y443384D01*
X94039Y443322D01*
X94008Y443263D01*
X94000Y443209D01*
X93988Y443171D01*
X93988Y443169D01*
X93988Y443168D01*
X93989Y443132D01*
X93981Y443078D01*
X93981Y440538D01*
X93992Y440473D01*
X93994Y440407D01*
X94012Y440363D01*
X94020Y440317D01*
X94054Y440260D01*
X94079Y440199D01*
X94110Y440164D01*
X94135Y440124D01*
X94186Y440082D01*
X94230Y440034D01*
X94272Y440012D01*
X94309Y439982D01*
X94371Y439961D01*
X94430Y439931D01*
X94484Y439923D01*
X94521Y439910D01*
X94561Y439911D01*
X94615Y439903D01*
X98425Y439903D01*
X98490Y439915D01*
G37*
G36*
X636640Y439915D02*
X636640Y439915D01*
X636705Y439917D01*
X636749Y439935D01*
X636796Y439943D01*
X636852Y439977D01*
X636913Y440001D01*
X636948Y440033D01*
X636989Y440057D01*
X637030Y440108D01*
X637079Y440153D01*
X637100Y440195D01*
X637130Y440231D01*
X637151Y440294D01*
X637181Y440352D01*
X637190Y440407D01*
X637202Y440444D01*
X637201Y440483D01*
X637209Y440538D01*
X637209Y443078D01*
X637197Y443142D01*
X637195Y443208D01*
X637178Y443252D01*
X637169Y443298D01*
X637136Y443355D01*
X637111Y443416D01*
X637079Y443451D01*
X637055Y443492D01*
X637004Y443533D01*
X636960Y443582D01*
X636918Y443603D01*
X636881Y443633D01*
X636819Y443654D01*
X636760Y443684D01*
X636706Y443692D01*
X636669Y443705D01*
X636629Y443704D01*
X636575Y443712D01*
X632765Y443712D01*
X632700Y443700D01*
X632634Y443698D01*
X632591Y443681D01*
X632544Y443672D01*
X632487Y443639D01*
X632426Y443614D01*
X632392Y443582D01*
X632351Y443558D01*
X632309Y443507D01*
X632261Y443463D01*
X632239Y443421D01*
X632209Y443384D01*
X632188Y443322D01*
X632158Y443263D01*
X632150Y443209D01*
X632138Y443171D01*
X632138Y443169D01*
X632138Y443168D01*
X632139Y443132D01*
X632131Y443078D01*
X632131Y440538D01*
X632142Y440473D01*
X632144Y440407D01*
X632162Y440363D01*
X632170Y440317D01*
X632204Y440260D01*
X632228Y440199D01*
X632260Y440164D01*
X632284Y440124D01*
X632335Y440082D01*
X632380Y440034D01*
X632422Y440012D01*
X632459Y439982D01*
X632521Y439961D01*
X632579Y439931D01*
X632634Y439923D01*
X632671Y439910D01*
X632710Y439911D01*
X632765Y439903D01*
X636575Y439903D01*
X636640Y439915D01*
G37*
G36*
X626480Y439915D02*
X626480Y439915D01*
X626545Y439917D01*
X626589Y439935D01*
X626636Y439943D01*
X626692Y439977D01*
X626753Y440001D01*
X626788Y440033D01*
X626829Y440057D01*
X626870Y440108D01*
X626919Y440153D01*
X626940Y440195D01*
X626970Y440231D01*
X626991Y440294D01*
X627021Y440352D01*
X627030Y440407D01*
X627042Y440444D01*
X627041Y440483D01*
X627049Y440538D01*
X627049Y443078D01*
X627037Y443142D01*
X627035Y443208D01*
X627018Y443252D01*
X627009Y443298D01*
X626976Y443355D01*
X626951Y443416D01*
X626919Y443451D01*
X626895Y443492D01*
X626844Y443533D01*
X626800Y443582D01*
X626758Y443603D01*
X626721Y443633D01*
X626659Y443654D01*
X626600Y443684D01*
X626546Y443692D01*
X626509Y443705D01*
X626469Y443704D01*
X626415Y443712D01*
X622605Y443712D01*
X622540Y443700D01*
X622474Y443698D01*
X622431Y443681D01*
X622384Y443672D01*
X622327Y443639D01*
X622266Y443614D01*
X622232Y443582D01*
X622191Y443558D01*
X622149Y443507D01*
X622101Y443463D01*
X622079Y443421D01*
X622049Y443384D01*
X622028Y443322D01*
X621998Y443263D01*
X621990Y443209D01*
X621978Y443171D01*
X621978Y443169D01*
X621978Y443168D01*
X621979Y443132D01*
X621971Y443078D01*
X621971Y440538D01*
X621982Y440473D01*
X621984Y440407D01*
X622002Y440363D01*
X622010Y440317D01*
X622044Y440260D01*
X622068Y440199D01*
X622100Y440164D01*
X622124Y440124D01*
X622175Y440082D01*
X622220Y440034D01*
X622262Y440012D01*
X622299Y439982D01*
X622361Y439961D01*
X622419Y439931D01*
X622474Y439923D01*
X622511Y439910D01*
X622550Y439911D01*
X622605Y439903D01*
X626415Y439903D01*
X626480Y439915D01*
G37*
G36*
X372657Y439915D02*
X372657Y439915D01*
X372723Y439917D01*
X372767Y439935D01*
X372813Y439943D01*
X372870Y439977D01*
X372931Y440001D01*
X372966Y440033D01*
X373007Y440057D01*
X373048Y440108D01*
X373097Y440153D01*
X373118Y440195D01*
X373148Y440231D01*
X373169Y440294D01*
X373199Y440352D01*
X373207Y440407D01*
X373220Y440444D01*
X373219Y440483D01*
X373227Y440538D01*
X373227Y443078D01*
X373215Y443142D01*
X373213Y443208D01*
X373196Y443252D01*
X373187Y443298D01*
X373154Y443355D01*
X373129Y443416D01*
X373097Y443451D01*
X373073Y443492D01*
X373022Y443533D01*
X372978Y443582D01*
X372936Y443603D01*
X372899Y443633D01*
X372837Y443654D01*
X372778Y443684D01*
X372724Y443692D01*
X372686Y443705D01*
X372647Y443704D01*
X372593Y443712D01*
X368783Y443712D01*
X368718Y443700D01*
X368652Y443698D01*
X368608Y443681D01*
X368562Y443672D01*
X368505Y443639D01*
X368444Y443614D01*
X368409Y443582D01*
X368369Y443558D01*
X368327Y443507D01*
X368279Y443463D01*
X368257Y443421D01*
X368227Y443384D01*
X368206Y443322D01*
X368176Y443263D01*
X368168Y443209D01*
X368155Y443171D01*
X368155Y443169D01*
X368155Y443168D01*
X368156Y443132D01*
X368148Y443078D01*
X368148Y440538D01*
X368160Y440473D01*
X368162Y440407D01*
X368180Y440363D01*
X368188Y440317D01*
X368222Y440260D01*
X368246Y440199D01*
X368278Y440164D01*
X368302Y440124D01*
X368353Y440082D01*
X368398Y440034D01*
X368440Y440012D01*
X368476Y439982D01*
X368539Y439961D01*
X368597Y439931D01*
X368652Y439923D01*
X368689Y439910D01*
X368728Y439911D01*
X368783Y439903D01*
X372593Y439903D01*
X372657Y439915D01*
G37*
G36*
X443777Y338315D02*
X443777Y338315D01*
X443843Y338317D01*
X443887Y338335D01*
X443933Y338343D01*
X443990Y338377D01*
X444051Y338401D01*
X444086Y338433D01*
X444127Y338457D01*
X444168Y338508D01*
X444217Y338553D01*
X444238Y338595D01*
X444268Y338631D01*
X444289Y338694D01*
X444319Y338752D01*
X444327Y338807D01*
X444340Y338844D01*
X444339Y338883D01*
X444347Y338938D01*
X444347Y341478D01*
X444335Y341542D01*
X444333Y341608D01*
X444316Y341652D01*
X444307Y341698D01*
X444274Y341755D01*
X444249Y341816D01*
X444217Y341851D01*
X444193Y341892D01*
X444142Y341933D01*
X444098Y341982D01*
X444056Y342003D01*
X444019Y342033D01*
X443957Y342054D01*
X443898Y342084D01*
X443844Y342092D01*
X443806Y342105D01*
X443767Y342104D01*
X443713Y342112D01*
X439903Y342112D01*
X439838Y342100D01*
X439772Y342098D01*
X439728Y342081D01*
X439682Y342072D01*
X439625Y342039D01*
X439564Y342014D01*
X439529Y341982D01*
X439489Y341958D01*
X439447Y341907D01*
X439399Y341863D01*
X439377Y341821D01*
X439347Y341784D01*
X439326Y341722D01*
X439296Y341663D01*
X439288Y341609D01*
X439275Y341571D01*
X439275Y341569D01*
X439275Y341568D01*
X439276Y341532D01*
X439268Y341478D01*
X439268Y338938D01*
X439280Y338873D01*
X439282Y338807D01*
X439300Y338763D01*
X439308Y338717D01*
X439342Y338660D01*
X439366Y338599D01*
X439398Y338564D01*
X439422Y338524D01*
X439473Y338482D01*
X439518Y338434D01*
X439560Y338412D01*
X439596Y338382D01*
X439659Y338361D01*
X439717Y338331D01*
X439772Y338323D01*
X439809Y338310D01*
X439848Y338311D01*
X439903Y338303D01*
X443713Y338303D01*
X443777Y338315D01*
G37*
G36*
X179770Y338315D02*
X179770Y338315D01*
X179836Y338317D01*
X179879Y338335D01*
X179926Y338343D01*
X179983Y338377D01*
X180043Y338401D01*
X180078Y338433D01*
X180119Y338457D01*
X180161Y338508D01*
X180209Y338553D01*
X180231Y338595D01*
X180260Y338631D01*
X180281Y338694D01*
X180312Y338752D01*
X180320Y338807D01*
X180332Y338844D01*
X180331Y338883D01*
X180339Y338938D01*
X180339Y341478D01*
X180328Y341542D01*
X180326Y341608D01*
X180308Y341652D01*
X180300Y341698D01*
X180266Y341755D01*
X180241Y341816D01*
X180210Y341851D01*
X180185Y341892D01*
X180134Y341933D01*
X180090Y341982D01*
X180048Y342003D01*
X180011Y342033D01*
X179949Y342054D01*
X179890Y342084D01*
X179836Y342092D01*
X179799Y342105D01*
X179759Y342104D01*
X179705Y342112D01*
X175895Y342112D01*
X175830Y342100D01*
X175764Y342098D01*
X175721Y342081D01*
X175674Y342072D01*
X175617Y342039D01*
X175557Y342014D01*
X175522Y341982D01*
X175481Y341958D01*
X175440Y341907D01*
X175391Y341863D01*
X175369Y341821D01*
X175340Y341784D01*
X175319Y341722D01*
X175288Y341663D01*
X175280Y341609D01*
X175268Y341571D01*
X175268Y341569D01*
X175268Y341568D01*
X175269Y341532D01*
X175261Y341478D01*
X175261Y338938D01*
X175272Y338873D01*
X175274Y338807D01*
X175292Y338763D01*
X175300Y338717D01*
X175334Y338660D01*
X175359Y338599D01*
X175390Y338564D01*
X175415Y338524D01*
X175466Y338482D01*
X175510Y338434D01*
X175552Y338412D01*
X175589Y338382D01*
X175651Y338361D01*
X175710Y338331D01*
X175764Y338323D01*
X175801Y338310D01*
X175841Y338311D01*
X175895Y338303D01*
X179705Y338303D01*
X179770Y338315D01*
G37*
G36*
X707760Y338315D02*
X707760Y338315D01*
X707825Y338317D01*
X707869Y338335D01*
X707916Y338343D01*
X707972Y338377D01*
X708033Y338401D01*
X708068Y338433D01*
X708109Y338457D01*
X708150Y338508D01*
X708199Y338553D01*
X708220Y338595D01*
X708250Y338631D01*
X708271Y338694D01*
X708301Y338752D01*
X708310Y338807D01*
X708322Y338844D01*
X708321Y338883D01*
X708329Y338938D01*
X708329Y341478D01*
X708317Y341542D01*
X708315Y341608D01*
X708298Y341652D01*
X708289Y341698D01*
X708256Y341755D01*
X708231Y341816D01*
X708199Y341851D01*
X708175Y341892D01*
X708124Y341933D01*
X708080Y341982D01*
X708038Y342003D01*
X708001Y342033D01*
X707939Y342054D01*
X707880Y342084D01*
X707826Y342092D01*
X707789Y342105D01*
X707749Y342104D01*
X707695Y342112D01*
X703885Y342112D01*
X703820Y342100D01*
X703754Y342098D01*
X703711Y342081D01*
X703664Y342072D01*
X703607Y342039D01*
X703546Y342014D01*
X703512Y341982D01*
X703471Y341958D01*
X703429Y341907D01*
X703381Y341863D01*
X703359Y341821D01*
X703329Y341784D01*
X703308Y341722D01*
X703278Y341663D01*
X703270Y341609D01*
X703258Y341571D01*
X703258Y341569D01*
X703258Y341568D01*
X703259Y341532D01*
X703251Y341478D01*
X703251Y338938D01*
X703262Y338873D01*
X703264Y338807D01*
X703282Y338763D01*
X703290Y338717D01*
X703324Y338660D01*
X703348Y338599D01*
X703380Y338564D01*
X703404Y338524D01*
X703455Y338482D01*
X703500Y338434D01*
X703542Y338412D01*
X703579Y338382D01*
X703641Y338361D01*
X703699Y338331D01*
X703754Y338323D01*
X703791Y338310D01*
X703830Y338311D01*
X703885Y338303D01*
X707695Y338303D01*
X707760Y338315D01*
G37*
G36*
X626480Y175907D02*
X626480Y175907D01*
X626545Y175909D01*
X626589Y175927D01*
X626636Y175935D01*
X626692Y175969D01*
X626753Y175994D01*
X626788Y176025D01*
X626829Y176050D01*
X626870Y176101D01*
X626919Y176145D01*
X626940Y176187D01*
X626970Y176224D01*
X626991Y176286D01*
X627021Y176345D01*
X627030Y176399D01*
X627042Y176436D01*
X627041Y176476D01*
X627049Y176530D01*
X627049Y179070D01*
X627037Y179135D01*
X627035Y179201D01*
X627018Y179244D01*
X627009Y179291D01*
X626976Y179348D01*
X626951Y179408D01*
X626919Y179443D01*
X626895Y179484D01*
X626844Y179526D01*
X626800Y179574D01*
X626758Y179596D01*
X626721Y179625D01*
X626659Y179646D01*
X626600Y179677D01*
X626546Y179685D01*
X626509Y179697D01*
X626469Y179696D01*
X626415Y179704D01*
X622605Y179704D01*
X622540Y179693D01*
X622474Y179691D01*
X622431Y179673D01*
X622384Y179665D01*
X622327Y179631D01*
X622266Y179606D01*
X622232Y179575D01*
X622191Y179550D01*
X622149Y179499D01*
X622101Y179455D01*
X622079Y179413D01*
X622049Y179376D01*
X622028Y179314D01*
X621998Y179255D01*
X621990Y179201D01*
X621978Y179164D01*
X621978Y179161D01*
X621979Y179124D01*
X621971Y179070D01*
X621971Y176530D01*
X621982Y176465D01*
X621984Y176399D01*
X622002Y176356D01*
X622010Y176309D01*
X622044Y176252D01*
X622068Y176192D01*
X622100Y176157D01*
X622124Y176116D01*
X622175Y176075D01*
X622220Y176026D01*
X622262Y176004D01*
X622299Y175975D01*
X622361Y175954D01*
X622419Y175923D01*
X622474Y175915D01*
X622511Y175903D01*
X622550Y175904D01*
X622605Y175896D01*
X626415Y175896D01*
X626480Y175907D01*
G37*
G36*
X372657Y175907D02*
X372657Y175907D01*
X372723Y175909D01*
X372767Y175927D01*
X372813Y175935D01*
X372870Y175969D01*
X372931Y175994D01*
X372966Y176025D01*
X373007Y176050D01*
X373048Y176101D01*
X373097Y176145D01*
X373118Y176187D01*
X373148Y176224D01*
X373169Y176286D01*
X373199Y176345D01*
X373207Y176399D01*
X373220Y176436D01*
X373219Y176476D01*
X373227Y176530D01*
X373227Y179070D01*
X373215Y179135D01*
X373213Y179201D01*
X373196Y179244D01*
X373187Y179291D01*
X373154Y179348D01*
X373129Y179408D01*
X373097Y179443D01*
X373073Y179484D01*
X373022Y179526D01*
X372978Y179574D01*
X372936Y179596D01*
X372899Y179625D01*
X372837Y179646D01*
X372778Y179677D01*
X372724Y179685D01*
X372686Y179697D01*
X372647Y179696D01*
X372593Y179704D01*
X368783Y179704D01*
X368718Y179693D01*
X368652Y179691D01*
X368608Y179673D01*
X368562Y179665D01*
X368505Y179631D01*
X368444Y179606D01*
X368409Y179575D01*
X368369Y179550D01*
X368327Y179499D01*
X368279Y179455D01*
X368257Y179413D01*
X368227Y179376D01*
X368206Y179314D01*
X368176Y179255D01*
X368168Y179201D01*
X368155Y179164D01*
X368155Y179161D01*
X368156Y179124D01*
X368148Y179070D01*
X368148Y176530D01*
X368160Y176465D01*
X368162Y176399D01*
X368180Y176356D01*
X368188Y176309D01*
X368222Y176252D01*
X368246Y176192D01*
X368278Y176157D01*
X368302Y176116D01*
X368353Y176075D01*
X368398Y176026D01*
X368440Y176004D01*
X368476Y175975D01*
X368539Y175954D01*
X368597Y175923D01*
X368652Y175915D01*
X368689Y175903D01*
X368728Y175904D01*
X368783Y175896D01*
X372593Y175896D01*
X372657Y175907D01*
G37*
G36*
X108650Y175907D02*
X108650Y175907D01*
X108716Y175909D01*
X108759Y175927D01*
X108806Y175935D01*
X108863Y175969D01*
X108923Y175994D01*
X108958Y176025D01*
X108999Y176050D01*
X109041Y176101D01*
X109089Y176145D01*
X109111Y176187D01*
X109140Y176224D01*
X109161Y176286D01*
X109192Y176345D01*
X109200Y176399D01*
X109212Y176436D01*
X109211Y176476D01*
X109219Y176530D01*
X109219Y179070D01*
X109208Y179135D01*
X109206Y179201D01*
X109188Y179244D01*
X109180Y179291D01*
X109146Y179348D01*
X109121Y179408D01*
X109090Y179443D01*
X109065Y179484D01*
X109014Y179526D01*
X108970Y179574D01*
X108928Y179596D01*
X108891Y179625D01*
X108829Y179646D01*
X108770Y179677D01*
X108716Y179685D01*
X108679Y179697D01*
X108639Y179696D01*
X108585Y179704D01*
X104775Y179704D01*
X104710Y179693D01*
X104644Y179691D01*
X104601Y179673D01*
X104554Y179665D01*
X104497Y179631D01*
X104437Y179606D01*
X104402Y179575D01*
X104361Y179550D01*
X104320Y179499D01*
X104271Y179455D01*
X104249Y179413D01*
X104220Y179376D01*
X104199Y179314D01*
X104168Y179255D01*
X104160Y179201D01*
X104148Y179164D01*
X104148Y179161D01*
X104149Y179124D01*
X104141Y179070D01*
X104141Y176530D01*
X104152Y176465D01*
X104154Y176399D01*
X104172Y176356D01*
X104180Y176309D01*
X104214Y176252D01*
X104239Y176192D01*
X104270Y176157D01*
X104295Y176116D01*
X104346Y176075D01*
X104390Y176026D01*
X104432Y176004D01*
X104469Y175975D01*
X104531Y175954D01*
X104590Y175923D01*
X104644Y175915D01*
X104681Y175903D01*
X104721Y175904D01*
X104775Y175896D01*
X108585Y175896D01*
X108650Y175907D01*
G37*
G36*
X98490Y175907D02*
X98490Y175907D01*
X98556Y175909D01*
X98599Y175927D01*
X98646Y175935D01*
X98703Y175969D01*
X98763Y175994D01*
X98798Y176025D01*
X98839Y176050D01*
X98881Y176101D01*
X98929Y176145D01*
X98951Y176187D01*
X98980Y176224D01*
X99001Y176286D01*
X99032Y176345D01*
X99040Y176399D01*
X99052Y176436D01*
X99051Y176476D01*
X99059Y176530D01*
X99059Y179070D01*
X99048Y179135D01*
X99046Y179201D01*
X99028Y179244D01*
X99020Y179291D01*
X98986Y179348D01*
X98961Y179408D01*
X98930Y179443D01*
X98905Y179484D01*
X98854Y179526D01*
X98810Y179574D01*
X98768Y179596D01*
X98731Y179625D01*
X98669Y179646D01*
X98610Y179677D01*
X98556Y179685D01*
X98519Y179697D01*
X98479Y179696D01*
X98425Y179704D01*
X94615Y179704D01*
X94550Y179693D01*
X94484Y179691D01*
X94441Y179673D01*
X94394Y179665D01*
X94337Y179631D01*
X94277Y179606D01*
X94242Y179575D01*
X94201Y179550D01*
X94160Y179499D01*
X94111Y179455D01*
X94089Y179413D01*
X94060Y179376D01*
X94039Y179314D01*
X94008Y179255D01*
X94000Y179201D01*
X93988Y179164D01*
X93988Y179161D01*
X93989Y179124D01*
X93981Y179070D01*
X93981Y176530D01*
X93992Y176465D01*
X93994Y176399D01*
X94012Y176356D01*
X94020Y176309D01*
X94054Y176252D01*
X94079Y176192D01*
X94110Y176157D01*
X94135Y176116D01*
X94186Y176075D01*
X94230Y176026D01*
X94272Y176004D01*
X94309Y175975D01*
X94371Y175954D01*
X94430Y175923D01*
X94484Y175915D01*
X94521Y175903D01*
X94561Y175904D01*
X94615Y175896D01*
X98425Y175896D01*
X98490Y175907D01*
G37*
G36*
X362497Y175907D02*
X362497Y175907D01*
X362563Y175909D01*
X362607Y175927D01*
X362653Y175935D01*
X362710Y175969D01*
X362771Y175994D01*
X362806Y176025D01*
X362847Y176050D01*
X362888Y176101D01*
X362937Y176145D01*
X362958Y176187D01*
X362988Y176224D01*
X363009Y176286D01*
X363039Y176345D01*
X363047Y176399D01*
X363060Y176436D01*
X363059Y176476D01*
X363067Y176530D01*
X363067Y179070D01*
X363055Y179135D01*
X363053Y179201D01*
X363036Y179244D01*
X363027Y179291D01*
X362994Y179348D01*
X362969Y179408D01*
X362937Y179443D01*
X362913Y179484D01*
X362862Y179526D01*
X362818Y179574D01*
X362776Y179596D01*
X362739Y179625D01*
X362677Y179646D01*
X362618Y179677D01*
X362564Y179685D01*
X362526Y179697D01*
X362487Y179696D01*
X362433Y179704D01*
X358623Y179704D01*
X358558Y179693D01*
X358492Y179691D01*
X358448Y179673D01*
X358402Y179665D01*
X358345Y179631D01*
X358284Y179606D01*
X358249Y179575D01*
X358209Y179550D01*
X358167Y179499D01*
X358119Y179455D01*
X358097Y179413D01*
X358067Y179376D01*
X358046Y179314D01*
X358016Y179255D01*
X358008Y179201D01*
X357995Y179164D01*
X357995Y179161D01*
X357996Y179124D01*
X357988Y179070D01*
X357988Y176530D01*
X358000Y176465D01*
X358002Y176399D01*
X358020Y176356D01*
X358028Y176309D01*
X358062Y176252D01*
X358086Y176192D01*
X358118Y176157D01*
X358142Y176116D01*
X358193Y176075D01*
X358238Y176026D01*
X358280Y176004D01*
X358316Y175975D01*
X358379Y175954D01*
X358437Y175923D01*
X358492Y175915D01*
X358529Y175903D01*
X358568Y175904D01*
X358623Y175896D01*
X362433Y175896D01*
X362497Y175907D01*
G37*
G36*
X636640Y175907D02*
X636640Y175907D01*
X636705Y175909D01*
X636749Y175927D01*
X636796Y175935D01*
X636852Y175969D01*
X636913Y175994D01*
X636948Y176025D01*
X636989Y176050D01*
X637030Y176101D01*
X637079Y176145D01*
X637100Y176187D01*
X637130Y176224D01*
X637151Y176286D01*
X637181Y176345D01*
X637190Y176399D01*
X637202Y176436D01*
X637201Y176476D01*
X637209Y176530D01*
X637209Y179070D01*
X637197Y179135D01*
X637195Y179201D01*
X637178Y179244D01*
X637169Y179291D01*
X637136Y179348D01*
X637111Y179408D01*
X637079Y179443D01*
X637055Y179484D01*
X637004Y179526D01*
X636960Y179574D01*
X636918Y179596D01*
X636881Y179625D01*
X636819Y179646D01*
X636760Y179677D01*
X636706Y179685D01*
X636669Y179697D01*
X636629Y179696D01*
X636575Y179704D01*
X632765Y179704D01*
X632700Y179693D01*
X632634Y179691D01*
X632591Y179673D01*
X632544Y179665D01*
X632487Y179631D01*
X632426Y179606D01*
X632392Y179575D01*
X632351Y179550D01*
X632309Y179499D01*
X632261Y179455D01*
X632239Y179413D01*
X632209Y179376D01*
X632188Y179314D01*
X632158Y179255D01*
X632150Y179201D01*
X632138Y179164D01*
X632138Y179161D01*
X632139Y179124D01*
X632131Y179070D01*
X632131Y176530D01*
X632142Y176465D01*
X632144Y176399D01*
X632162Y176356D01*
X632170Y176309D01*
X632204Y176252D01*
X632228Y176192D01*
X632260Y176157D01*
X632284Y176116D01*
X632335Y176075D01*
X632380Y176026D01*
X632422Y176004D01*
X632459Y175975D01*
X632521Y175954D01*
X632579Y175923D01*
X632634Y175915D01*
X632671Y175903D01*
X632710Y175904D01*
X632765Y175896D01*
X636575Y175896D01*
X636640Y175907D01*
G37*
G36*
X707760Y74307D02*
X707760Y74307D01*
X707825Y74309D01*
X707869Y74327D01*
X707916Y74335D01*
X707972Y74369D01*
X708033Y74394D01*
X708068Y74425D01*
X708109Y74450D01*
X708150Y74501D01*
X708199Y74545D01*
X708220Y74587D01*
X708250Y74624D01*
X708271Y74686D01*
X708301Y74745D01*
X708310Y74799D01*
X708322Y74836D01*
X708321Y74876D01*
X708329Y74930D01*
X708329Y77470D01*
X708317Y77535D01*
X708315Y77601D01*
X708298Y77644D01*
X708289Y77691D01*
X708256Y77748D01*
X708231Y77808D01*
X708199Y77843D01*
X708175Y77884D01*
X708124Y77926D01*
X708080Y77974D01*
X708038Y77996D01*
X708001Y78025D01*
X707939Y78046D01*
X707880Y78077D01*
X707826Y78085D01*
X707789Y78097D01*
X707749Y78096D01*
X707695Y78104D01*
X703885Y78104D01*
X703820Y78093D01*
X703754Y78091D01*
X703711Y78073D01*
X703664Y78065D01*
X703607Y78031D01*
X703546Y78006D01*
X703512Y77975D01*
X703471Y77950D01*
X703429Y77899D01*
X703381Y77855D01*
X703359Y77813D01*
X703329Y77776D01*
X703308Y77714D01*
X703278Y77655D01*
X703270Y77601D01*
X703258Y77564D01*
X703258Y77561D01*
X703259Y77524D01*
X703251Y77470D01*
X703251Y74930D01*
X703262Y74865D01*
X703264Y74799D01*
X703282Y74756D01*
X703290Y74709D01*
X703324Y74652D01*
X703348Y74592D01*
X703380Y74557D01*
X703404Y74516D01*
X703455Y74475D01*
X703500Y74426D01*
X703542Y74404D01*
X703579Y74375D01*
X703641Y74354D01*
X703699Y74323D01*
X703754Y74315D01*
X703791Y74303D01*
X703830Y74304D01*
X703885Y74296D01*
X707695Y74296D01*
X707760Y74307D01*
G37*
G36*
X443777Y74307D02*
X443777Y74307D01*
X443843Y74309D01*
X443887Y74327D01*
X443933Y74335D01*
X443990Y74369D01*
X444051Y74394D01*
X444086Y74425D01*
X444127Y74450D01*
X444168Y74501D01*
X444217Y74545D01*
X444238Y74587D01*
X444268Y74624D01*
X444289Y74686D01*
X444319Y74745D01*
X444327Y74799D01*
X444340Y74836D01*
X444339Y74876D01*
X444347Y74930D01*
X444347Y77470D01*
X444335Y77535D01*
X444333Y77601D01*
X444316Y77644D01*
X444307Y77691D01*
X444274Y77748D01*
X444249Y77808D01*
X444217Y77843D01*
X444193Y77884D01*
X444142Y77926D01*
X444098Y77974D01*
X444056Y77996D01*
X444019Y78025D01*
X443957Y78046D01*
X443898Y78077D01*
X443844Y78085D01*
X443806Y78097D01*
X443767Y78096D01*
X443713Y78104D01*
X439903Y78104D01*
X439838Y78093D01*
X439772Y78091D01*
X439728Y78073D01*
X439682Y78065D01*
X439625Y78031D01*
X439564Y78006D01*
X439529Y77975D01*
X439489Y77950D01*
X439447Y77899D01*
X439399Y77855D01*
X439377Y77813D01*
X439347Y77776D01*
X439326Y77714D01*
X439296Y77655D01*
X439288Y77601D01*
X439275Y77564D01*
X439275Y77561D01*
X439276Y77524D01*
X439268Y77470D01*
X439268Y74930D01*
X439280Y74865D01*
X439282Y74799D01*
X439300Y74756D01*
X439308Y74709D01*
X439342Y74652D01*
X439366Y74592D01*
X439398Y74557D01*
X439422Y74516D01*
X439473Y74475D01*
X439518Y74426D01*
X439560Y74404D01*
X439596Y74375D01*
X439659Y74354D01*
X439717Y74323D01*
X439772Y74315D01*
X439809Y74303D01*
X439848Y74304D01*
X439903Y74296D01*
X443713Y74296D01*
X443777Y74307D01*
G37*
G36*
X179770Y74307D02*
X179770Y74307D01*
X179836Y74309D01*
X179879Y74327D01*
X179926Y74335D01*
X179983Y74369D01*
X180043Y74394D01*
X180078Y74425D01*
X180119Y74450D01*
X180161Y74501D01*
X180209Y74545D01*
X180231Y74587D01*
X180260Y74624D01*
X180281Y74686D01*
X180312Y74745D01*
X180320Y74799D01*
X180332Y74836D01*
X180331Y74876D01*
X180339Y74930D01*
X180339Y77470D01*
X180328Y77535D01*
X180326Y77601D01*
X180308Y77644D01*
X180300Y77691D01*
X180266Y77748D01*
X180241Y77808D01*
X180210Y77843D01*
X180185Y77884D01*
X180134Y77926D01*
X180090Y77974D01*
X180048Y77996D01*
X180011Y78025D01*
X179949Y78046D01*
X179890Y78077D01*
X179836Y78085D01*
X179799Y78097D01*
X179759Y78096D01*
X179705Y78104D01*
X175895Y78104D01*
X175830Y78093D01*
X175764Y78091D01*
X175721Y78073D01*
X175674Y78065D01*
X175617Y78031D01*
X175557Y78006D01*
X175522Y77975D01*
X175481Y77950D01*
X175440Y77899D01*
X175391Y77855D01*
X175369Y77813D01*
X175340Y77776D01*
X175319Y77714D01*
X175288Y77655D01*
X175280Y77601D01*
X175268Y77564D01*
X175268Y77561D01*
X175269Y77524D01*
X175261Y77470D01*
X175261Y74930D01*
X175272Y74865D01*
X175274Y74799D01*
X175292Y74756D01*
X175300Y74709D01*
X175334Y74652D01*
X175359Y74592D01*
X175390Y74557D01*
X175415Y74516D01*
X175466Y74475D01*
X175510Y74426D01*
X175552Y74404D01*
X175589Y74375D01*
X175651Y74354D01*
X175710Y74323D01*
X175764Y74315D01*
X175801Y74303D01*
X175841Y74304D01*
X175895Y74296D01*
X179705Y74296D01*
X179770Y74307D01*
G37*
D10*
X25400Y228600D03*
X228600Y228600D03*
X228600Y25400D03*
X25400Y25400D03*
D11*
X177800Y241300D03*
X152400Y241300D03*
X127000Y241300D03*
X101600Y241300D03*
X76200Y241300D03*
D12*
X172593Y76200D03*
X183007Y76200D03*
X112014Y177800D03*
X101600Y177800D03*
X91186Y177800D03*
D13*
X7620Y246380D03*
X246380Y7620D03*
D10*
X289408Y228600D03*
X492608Y228600D03*
X492608Y25400D03*
X289408Y25400D03*
D11*
X441808Y241300D03*
X416408Y241300D03*
X391008Y241300D03*
X365608Y241300D03*
X340208Y241300D03*
D12*
X436601Y76200D03*
X447015Y76200D03*
X376022Y177800D03*
X365608Y177800D03*
X355194Y177800D03*
D13*
X271628Y246380D03*
X510388Y7620D03*
D10*
X553390Y228600D03*
X756590Y228600D03*
X756590Y25400D03*
X553390Y25400D03*
D11*
X705790Y241300D03*
X680390Y241300D03*
X654990Y241300D03*
X629590Y241300D03*
X604190Y241300D03*
D12*
X700583Y76200D03*
X710997Y76200D03*
X640004Y177800D03*
X629590Y177800D03*
X619176Y177800D03*
D13*
X535610Y246380D03*
X774370Y7620D03*
D10*
X25400Y492608D03*
X228600Y492608D03*
X228600Y289408D03*
X25400Y289408D03*
D11*
X177800Y505308D03*
X152400Y505308D03*
X127000Y505308D03*
X101600Y505308D03*
X76200Y505308D03*
D12*
X172593Y340208D03*
X183007Y340208D03*
X112014Y441808D03*
X101600Y441808D03*
X91186Y441808D03*
D13*
X7620Y510388D03*
X246380Y271628D03*
D10*
X289408Y492608D03*
X492608Y492608D03*
X492608Y289408D03*
X289408Y289408D03*
D11*
X441808Y505308D03*
X416408Y505308D03*
X391008Y505308D03*
X365608Y505308D03*
X340208Y505308D03*
D12*
X436601Y340208D03*
X447015Y340208D03*
X376022Y441808D03*
X365608Y441808D03*
X355194Y441808D03*
D13*
X271628Y510388D03*
X510388Y271628D03*
D10*
X553390Y492608D03*
X756590Y492608D03*
X756590Y289408D03*
X553390Y289408D03*
D11*
X705790Y505308D03*
X680390Y505308D03*
X654990Y505308D03*
X629590Y505308D03*
X604190Y505308D03*
D12*
X700583Y340208D03*
X710997Y340208D03*
X640004Y441808D03*
X629590Y441808D03*
X619176Y441808D03*
D13*
X535610Y510388D03*
X774370Y271628D03*
D10*
X25400Y756590D03*
X228600Y756590D03*
X228600Y553390D03*
X25400Y553390D03*
D11*
X177800Y769290D03*
X152400Y769290D03*
X127000Y769290D03*
X101600Y769290D03*
X76200Y769290D03*
D12*
X172593Y604190D03*
X183007Y604190D03*
X112014Y705790D03*
X101600Y705790D03*
X91186Y705790D03*
D13*
X7620Y774370D03*
X246380Y535610D03*
D10*
X289408Y756590D03*
X492608Y756590D03*
X492608Y553390D03*
X289408Y553390D03*
D11*
X441808Y769290D03*
X416408Y769290D03*
X391008Y769290D03*
X365608Y769290D03*
X340208Y769290D03*
D12*
X436601Y604190D03*
X447015Y604190D03*
X376022Y705790D03*
X365608Y705790D03*
X355194Y705790D03*
D13*
X271628Y774370D03*
X510388Y535610D03*
D10*
X553390Y756590D03*
X756590Y756590D03*
X756590Y553390D03*
X553390Y553390D03*
D11*
X705790Y769290D03*
X680390Y769290D03*
X654990Y769290D03*
X629590Y769290D03*
X604190Y769290D03*
D12*
X700583Y604190D03*
X710997Y604190D03*
X640004Y705790D03*
X629590Y705790D03*
X619176Y705790D03*
D13*
X535610Y774370D03*
X774370Y535610D03*
X-31166Y760247D03*
X813156Y760247D03*
D14*
X-40221Y63500D02*
X-40218Y63722D01*
X-40210Y63944D01*
X-40196Y64166D01*
X-40177Y64388D01*
X-40153Y64608D01*
X-40123Y64829D01*
X-40088Y65048D01*
X-40047Y65267D01*
X-40001Y65484D01*
X-39950Y65700D01*
X-39893Y65915D01*
X-39831Y66129D01*
X-39764Y66340D01*
X-39692Y66551D01*
X-39614Y66759D01*
X-39532Y66965D01*
X-39444Y67169D01*
X-39352Y67372D01*
X-39254Y67571D01*
X-39152Y67768D01*
X-39045Y67963D01*
X-38933Y68155D01*
X-38816Y68344D01*
X-38695Y68531D01*
X-38569Y68714D01*
X-38439Y68894D01*
X-38304Y69071D01*
X-38166Y69244D01*
X-38023Y69414D01*
X-37875Y69581D01*
X-37724Y69744D01*
X-37569Y69903D01*
X-37410Y70058D01*
X-37247Y70209D01*
X-37080Y70357D01*
X-36910Y70500D01*
X-36737Y70638D01*
X-36560Y70773D01*
X-36380Y70903D01*
X-36197Y71029D01*
X-36010Y71150D01*
X-35821Y71267D01*
X-35629Y71379D01*
X-35434Y71486D01*
X-35237Y71588D01*
X-35038Y71686D01*
X-34835Y71778D01*
X-34631Y71866D01*
X-34425Y71948D01*
X-34217Y72026D01*
X-34006Y72098D01*
X-33795Y72165D01*
X-33581Y72227D01*
X-33366Y72284D01*
X-33150Y72335D01*
X-32933Y72381D01*
X-32714Y72422D01*
X-32495Y72457D01*
X-32274Y72487D01*
X-32054Y72511D01*
X-31832Y72530D01*
X-31610Y72544D01*
X-31388Y72552D01*
X-31166Y72555D01*
X-30944Y72552D01*
X-30722Y72544D01*
X-30500Y72530D01*
X-30278Y72511D01*
X-30058Y72487D01*
X-29837Y72457D01*
X-29618Y72422D01*
X-29399Y72381D01*
X-29182Y72335D01*
X-28966Y72284D01*
X-28751Y72227D01*
X-28537Y72165D01*
X-28326Y72098D01*
X-28115Y72026D01*
X-27907Y71948D01*
X-27701Y71866D01*
X-27497Y71778D01*
X-27294Y71686D01*
X-27095Y71588D01*
X-26898Y71486D01*
X-26703Y71379D01*
X-26511Y71267D01*
X-26322Y71150D01*
X-26135Y71029D01*
X-25952Y70903D01*
X-25772Y70773D01*
X-25595Y70638D01*
X-25422Y70500D01*
X-25252Y70357D01*
X-25085Y70209D01*
X-24922Y70058D01*
X-24763Y69903D01*
X-24608Y69744D01*
X-24457Y69581D01*
X-24309Y69414D01*
X-24166Y69244D01*
X-24028Y69071D01*
X-23893Y68894D01*
X-23763Y68714D01*
X-23637Y68531D01*
X-23516Y68344D01*
X-23399Y68155D01*
X-23287Y67963D01*
X-23180Y67768D01*
X-23078Y67571D01*
X-22980Y67372D01*
X-22888Y67169D01*
X-22800Y66965D01*
X-22718Y66759D01*
X-22640Y66551D01*
X-22568Y66340D01*
X-22501Y66129D01*
X-22439Y65915D01*
X-22382Y65700D01*
X-22331Y65484D01*
X-22285Y65267D01*
X-22244Y65048D01*
X-22209Y64829D01*
X-22179Y64608D01*
X-22155Y64388D01*
X-22136Y64166D01*
X-22122Y63944D01*
X-22114Y63722D01*
X-22111Y63500D01*
X-22114Y63278D01*
X-22122Y63056D01*
X-22136Y62834D01*
X-22155Y62612D01*
X-22179Y62392D01*
X-22209Y62171D01*
X-22244Y61952D01*
X-22285Y61733D01*
X-22331Y61516D01*
X-22382Y61300D01*
X-22439Y61085D01*
X-22501Y60871D01*
X-22568Y60660D01*
X-22640Y60449D01*
X-22718Y60241D01*
X-22800Y60035D01*
X-22888Y59831D01*
X-22980Y59628D01*
X-23078Y59429D01*
X-23180Y59232D01*
X-23287Y59037D01*
X-23399Y58845D01*
X-23516Y58656D01*
X-23637Y58469D01*
X-23763Y58286D01*
X-23893Y58106D01*
X-24028Y57929D01*
X-24166Y57756D01*
X-24309Y57586D01*
X-24457Y57419D01*
X-24608Y57256D01*
X-24763Y57097D01*
X-24922Y56942D01*
X-25085Y56791D01*
X-25252Y56643D01*
X-25422Y56500D01*
X-25595Y56362D01*
X-25772Y56227D01*
X-25952Y56097D01*
X-26135Y55971D01*
X-26322Y55850D01*
X-26511Y55733D01*
X-26703Y55621D01*
X-26898Y55514D01*
X-27095Y55412D01*
X-27294Y55314D01*
X-27497Y55222D01*
X-27701Y55134D01*
X-27907Y55052D01*
X-28115Y54974D01*
X-28326Y54902D01*
X-28537Y54835D01*
X-28751Y54773D01*
X-28966Y54716D01*
X-29182Y54665D01*
X-29399Y54619D01*
X-29618Y54578D01*
X-29837Y54543D01*
X-30058Y54513D01*
X-30278Y54489D01*
X-30500Y54470D01*
X-30722Y54456D01*
X-30944Y54448D01*
X-31166Y54445D01*
X-31388Y54448D01*
X-31610Y54456D01*
X-31832Y54470D01*
X-32054Y54489D01*
X-32274Y54513D01*
X-32495Y54543D01*
X-32714Y54578D01*
X-32933Y54619D01*
X-33150Y54665D01*
X-33366Y54716D01*
X-33581Y54773D01*
X-33795Y54835D01*
X-34006Y54902D01*
X-34217Y54974D01*
X-34425Y55052D01*
X-34631Y55134D01*
X-34835Y55222D01*
X-35038Y55314D01*
X-35237Y55412D01*
X-35434Y55514D01*
X-35629Y55621D01*
X-35821Y55733D01*
X-36010Y55850D01*
X-36197Y55971D01*
X-36380Y56097D01*
X-36560Y56227D01*
X-36737Y56362D01*
X-36910Y56500D01*
X-37080Y56643D01*
X-37247Y56791D01*
X-37410Y56942D01*
X-37569Y57097D01*
X-37724Y57256D01*
X-37875Y57419D01*
X-38023Y57586D01*
X-38166Y57756D01*
X-38304Y57929D01*
X-38439Y58106D01*
X-38569Y58286D01*
X-38695Y58469D01*
X-38816Y58656D01*
X-38933Y58845D01*
X-39045Y59037D01*
X-39152Y59232D01*
X-39254Y59429D01*
X-39352Y59628D01*
X-39444Y59831D01*
X-39532Y60035D01*
X-39614Y60241D01*
X-39692Y60449D01*
X-39764Y60660D01*
X-39831Y60871D01*
X-39893Y61085D01*
X-39950Y61300D01*
X-40001Y61516D01*
X-40047Y61733D01*
X-40088Y61952D01*
X-40123Y62171D01*
X-40153Y62392D01*
X-40177Y62612D01*
X-40196Y62834D01*
X-40210Y63056D01*
X-40218Y63278D01*
X-40221Y63500D01*
D15*
X-31166Y63500D03*
M02*
