G04 EAGLE Gerber RS-274X export*
G75*
%MOMM*%
%FSLAX34Y34*%
%LPD*%
%INSoldermask Bottom*%
%IPPOS*%
%AMOC8*
5,1,8,0,0,1.08239X$1,22.5*%
G01*
%ADD10C,3.505200*%
%ADD11C,2.082800*%
%ADD12R,0.863600X1.473200*%
%ADD13C,1.203200*%
%ADD14C,1.270000*%
%ADD15C,1.703200*%

G36*
X652210Y694067D02*
X652210Y694067D01*
X652276Y694069D01*
X652319Y694087D01*
X652366Y694095D01*
X652423Y694129D01*
X652483Y694154D01*
X652518Y694185D01*
X652559Y694210D01*
X652601Y694261D01*
X652649Y694305D01*
X652671Y694347D01*
X652700Y694384D01*
X652721Y694446D01*
X652752Y694505D01*
X652760Y694559D01*
X652772Y694596D01*
X652771Y694636D01*
X652779Y694690D01*
X652779Y697230D01*
X652768Y697295D01*
X652766Y697361D01*
X652748Y697404D01*
X652740Y697451D01*
X652706Y697508D01*
X652681Y697568D01*
X652650Y697603D01*
X652625Y697644D01*
X652574Y697686D01*
X652530Y697734D01*
X652488Y697756D01*
X652451Y697785D01*
X652389Y697806D01*
X652330Y697837D01*
X652276Y697845D01*
X652239Y697857D01*
X652199Y697856D01*
X652145Y697864D01*
X648335Y697864D01*
X648270Y697853D01*
X648204Y697851D01*
X648161Y697833D01*
X648114Y697825D01*
X648057Y697791D01*
X647997Y697766D01*
X647962Y697735D01*
X647921Y697710D01*
X647880Y697659D01*
X647831Y697615D01*
X647809Y697573D01*
X647780Y697536D01*
X647759Y697474D01*
X647728Y697415D01*
X647720Y697361D01*
X647708Y697324D01*
X647708Y697321D01*
X647709Y697284D01*
X647701Y697230D01*
X647701Y694690D01*
X647712Y694625D01*
X647714Y694559D01*
X647732Y694516D01*
X647740Y694469D01*
X647774Y694412D01*
X647799Y694352D01*
X647830Y694317D01*
X647855Y694276D01*
X647906Y694235D01*
X647950Y694186D01*
X647992Y694164D01*
X648029Y694135D01*
X648091Y694114D01*
X648150Y694083D01*
X648204Y694075D01*
X648241Y694063D01*
X648281Y694064D01*
X648335Y694056D01*
X652145Y694056D01*
X652210Y694067D01*
G37*
G36*
X393130Y694067D02*
X393130Y694067D01*
X393196Y694069D01*
X393239Y694087D01*
X393286Y694095D01*
X393343Y694129D01*
X393403Y694154D01*
X393438Y694185D01*
X393479Y694210D01*
X393521Y694261D01*
X393569Y694305D01*
X393591Y694347D01*
X393620Y694384D01*
X393641Y694446D01*
X393672Y694505D01*
X393680Y694559D01*
X393692Y694596D01*
X393691Y694636D01*
X393699Y694690D01*
X393699Y697230D01*
X393688Y697295D01*
X393686Y697361D01*
X393668Y697404D01*
X393660Y697451D01*
X393626Y697508D01*
X393601Y697568D01*
X393570Y697603D01*
X393545Y697644D01*
X393494Y697686D01*
X393450Y697734D01*
X393408Y697756D01*
X393371Y697785D01*
X393309Y697806D01*
X393250Y697837D01*
X393196Y697845D01*
X393159Y697857D01*
X393119Y697856D01*
X393065Y697864D01*
X389255Y697864D01*
X389190Y697853D01*
X389124Y697851D01*
X389081Y697833D01*
X389034Y697825D01*
X388977Y697791D01*
X388917Y697766D01*
X388882Y697735D01*
X388841Y697710D01*
X388800Y697659D01*
X388751Y697615D01*
X388729Y697573D01*
X388700Y697536D01*
X388679Y697474D01*
X388648Y697415D01*
X388640Y697361D01*
X388628Y697324D01*
X388628Y697321D01*
X388629Y697284D01*
X388621Y697230D01*
X388621Y694690D01*
X388632Y694625D01*
X388634Y694559D01*
X388652Y694516D01*
X388660Y694469D01*
X388694Y694412D01*
X388719Y694352D01*
X388750Y694317D01*
X388775Y694276D01*
X388826Y694235D01*
X388870Y694186D01*
X388912Y694164D01*
X388949Y694135D01*
X389011Y694114D01*
X389070Y694083D01*
X389124Y694075D01*
X389161Y694063D01*
X389201Y694064D01*
X389255Y694056D01*
X393065Y694056D01*
X393130Y694067D01*
G37*
G36*
X723330Y694067D02*
X723330Y694067D01*
X723396Y694069D01*
X723439Y694087D01*
X723486Y694095D01*
X723543Y694129D01*
X723603Y694154D01*
X723638Y694185D01*
X723679Y694210D01*
X723721Y694261D01*
X723769Y694305D01*
X723791Y694347D01*
X723820Y694384D01*
X723841Y694446D01*
X723872Y694505D01*
X723880Y694559D01*
X723892Y694596D01*
X723891Y694636D01*
X723899Y694690D01*
X723899Y697230D01*
X723888Y697295D01*
X723886Y697361D01*
X723868Y697404D01*
X723860Y697451D01*
X723826Y697508D01*
X723801Y697568D01*
X723770Y697603D01*
X723745Y697644D01*
X723694Y697686D01*
X723650Y697734D01*
X723608Y697756D01*
X723571Y697785D01*
X723509Y697806D01*
X723450Y697837D01*
X723396Y697845D01*
X723359Y697857D01*
X723319Y697856D01*
X723265Y697864D01*
X719455Y697864D01*
X719390Y697853D01*
X719324Y697851D01*
X719281Y697833D01*
X719234Y697825D01*
X719177Y697791D01*
X719117Y697766D01*
X719082Y697735D01*
X719041Y697710D01*
X719000Y697659D01*
X718951Y697615D01*
X718929Y697573D01*
X718900Y697536D01*
X718879Y697474D01*
X718848Y697415D01*
X718840Y697361D01*
X718828Y697324D01*
X718828Y697321D01*
X718829Y697284D01*
X718821Y697230D01*
X718821Y694690D01*
X718832Y694625D01*
X718834Y694559D01*
X718852Y694516D01*
X718860Y694469D01*
X718894Y694412D01*
X718919Y694352D01*
X718950Y694317D01*
X718975Y694276D01*
X719026Y694235D01*
X719070Y694186D01*
X719112Y694164D01*
X719149Y694135D01*
X719211Y694114D01*
X719270Y694083D01*
X719324Y694075D01*
X719361Y694063D01*
X719401Y694064D01*
X719455Y694056D01*
X723265Y694056D01*
X723330Y694067D01*
G37*
G36*
X464250Y694067D02*
X464250Y694067D01*
X464316Y694069D01*
X464359Y694087D01*
X464406Y694095D01*
X464463Y694129D01*
X464523Y694154D01*
X464558Y694185D01*
X464599Y694210D01*
X464641Y694261D01*
X464689Y694305D01*
X464711Y694347D01*
X464740Y694384D01*
X464761Y694446D01*
X464792Y694505D01*
X464800Y694559D01*
X464812Y694596D01*
X464811Y694636D01*
X464819Y694690D01*
X464819Y697230D01*
X464808Y697295D01*
X464806Y697361D01*
X464788Y697404D01*
X464780Y697451D01*
X464746Y697508D01*
X464721Y697568D01*
X464690Y697603D01*
X464665Y697644D01*
X464614Y697686D01*
X464570Y697734D01*
X464528Y697756D01*
X464491Y697785D01*
X464429Y697806D01*
X464370Y697837D01*
X464316Y697845D01*
X464279Y697857D01*
X464239Y697856D01*
X464185Y697864D01*
X460375Y697864D01*
X460310Y697853D01*
X460244Y697851D01*
X460201Y697833D01*
X460154Y697825D01*
X460097Y697791D01*
X460037Y697766D01*
X460002Y697735D01*
X459961Y697710D01*
X459920Y697659D01*
X459871Y697615D01*
X459849Y697573D01*
X459820Y697536D01*
X459799Y697474D01*
X459768Y697415D01*
X459760Y697361D01*
X459748Y697324D01*
X459748Y697321D01*
X459749Y697284D01*
X459741Y697230D01*
X459741Y694690D01*
X459752Y694625D01*
X459754Y694559D01*
X459772Y694516D01*
X459780Y694469D01*
X459814Y694412D01*
X459839Y694352D01*
X459870Y694317D01*
X459895Y694276D01*
X459946Y694235D01*
X459990Y694186D01*
X460032Y694164D01*
X460069Y694135D01*
X460131Y694114D01*
X460190Y694083D01*
X460244Y694075D01*
X460281Y694063D01*
X460321Y694064D01*
X460375Y694056D01*
X464185Y694056D01*
X464250Y694067D01*
G37*
G36*
X901130Y694067D02*
X901130Y694067D01*
X901196Y694069D01*
X901239Y694087D01*
X901286Y694095D01*
X901343Y694129D01*
X901403Y694154D01*
X901438Y694185D01*
X901479Y694210D01*
X901521Y694261D01*
X901569Y694305D01*
X901591Y694347D01*
X901620Y694384D01*
X901641Y694446D01*
X901672Y694505D01*
X901680Y694559D01*
X901692Y694596D01*
X901691Y694636D01*
X901699Y694690D01*
X901699Y697230D01*
X901688Y697295D01*
X901686Y697361D01*
X901668Y697404D01*
X901660Y697451D01*
X901626Y697508D01*
X901601Y697568D01*
X901570Y697603D01*
X901545Y697644D01*
X901494Y697686D01*
X901450Y697734D01*
X901408Y697756D01*
X901371Y697785D01*
X901309Y697806D01*
X901250Y697837D01*
X901196Y697845D01*
X901159Y697857D01*
X901119Y697856D01*
X901065Y697864D01*
X897255Y697864D01*
X897190Y697853D01*
X897124Y697851D01*
X897081Y697833D01*
X897034Y697825D01*
X896977Y697791D01*
X896917Y697766D01*
X896882Y697735D01*
X896841Y697710D01*
X896800Y697659D01*
X896751Y697615D01*
X896729Y697573D01*
X896700Y697536D01*
X896679Y697474D01*
X896648Y697415D01*
X896640Y697361D01*
X896628Y697324D01*
X896628Y697321D01*
X896629Y697284D01*
X896621Y697230D01*
X896621Y694690D01*
X896632Y694625D01*
X896634Y694559D01*
X896652Y694516D01*
X896660Y694469D01*
X896694Y694412D01*
X896719Y694352D01*
X896750Y694317D01*
X896775Y694276D01*
X896826Y694235D01*
X896870Y694186D01*
X896912Y694164D01*
X896949Y694135D01*
X897011Y694114D01*
X897070Y694083D01*
X897124Y694075D01*
X897161Y694063D01*
X897201Y694064D01*
X897255Y694056D01*
X901065Y694056D01*
X901130Y694067D01*
G37*
G36*
X911290Y694067D02*
X911290Y694067D01*
X911356Y694069D01*
X911399Y694087D01*
X911446Y694095D01*
X911503Y694129D01*
X911563Y694154D01*
X911598Y694185D01*
X911639Y694210D01*
X911681Y694261D01*
X911729Y694305D01*
X911751Y694347D01*
X911780Y694384D01*
X911801Y694446D01*
X911832Y694505D01*
X911840Y694559D01*
X911852Y694596D01*
X911851Y694636D01*
X911859Y694690D01*
X911859Y697230D01*
X911848Y697295D01*
X911846Y697361D01*
X911828Y697404D01*
X911820Y697451D01*
X911786Y697508D01*
X911761Y697568D01*
X911730Y697603D01*
X911705Y697644D01*
X911654Y697686D01*
X911610Y697734D01*
X911568Y697756D01*
X911531Y697785D01*
X911469Y697806D01*
X911410Y697837D01*
X911356Y697845D01*
X911319Y697857D01*
X911279Y697856D01*
X911225Y697864D01*
X907415Y697864D01*
X907350Y697853D01*
X907284Y697851D01*
X907241Y697833D01*
X907194Y697825D01*
X907137Y697791D01*
X907077Y697766D01*
X907042Y697735D01*
X907001Y697710D01*
X906960Y697659D01*
X906911Y697615D01*
X906889Y697573D01*
X906860Y697536D01*
X906839Y697474D01*
X906808Y697415D01*
X906800Y697361D01*
X906788Y697324D01*
X906788Y697321D01*
X906789Y697284D01*
X906781Y697230D01*
X906781Y694690D01*
X906792Y694625D01*
X906794Y694559D01*
X906812Y694516D01*
X906820Y694469D01*
X906854Y694412D01*
X906879Y694352D01*
X906910Y694317D01*
X906935Y694276D01*
X906986Y694235D01*
X907030Y694186D01*
X907072Y694164D01*
X907109Y694135D01*
X907171Y694114D01*
X907230Y694083D01*
X907284Y694075D01*
X907321Y694063D01*
X907361Y694064D01*
X907415Y694056D01*
X911225Y694056D01*
X911290Y694067D01*
G37*
G36*
X123890Y694067D02*
X123890Y694067D01*
X123956Y694069D01*
X123999Y694087D01*
X124046Y694095D01*
X124103Y694129D01*
X124163Y694154D01*
X124198Y694185D01*
X124239Y694210D01*
X124281Y694261D01*
X124329Y694305D01*
X124351Y694347D01*
X124380Y694384D01*
X124401Y694446D01*
X124432Y694505D01*
X124440Y694559D01*
X124452Y694596D01*
X124451Y694636D01*
X124459Y694690D01*
X124459Y697230D01*
X124448Y697295D01*
X124446Y697361D01*
X124428Y697404D01*
X124420Y697451D01*
X124386Y697508D01*
X124361Y697568D01*
X124330Y697603D01*
X124305Y697644D01*
X124254Y697686D01*
X124210Y697734D01*
X124168Y697756D01*
X124131Y697785D01*
X124069Y697806D01*
X124010Y697837D01*
X123956Y697845D01*
X123919Y697857D01*
X123879Y697856D01*
X123825Y697864D01*
X120015Y697864D01*
X119950Y697853D01*
X119884Y697851D01*
X119841Y697833D01*
X119794Y697825D01*
X119737Y697791D01*
X119677Y697766D01*
X119642Y697735D01*
X119601Y697710D01*
X119560Y697659D01*
X119511Y697615D01*
X119489Y697573D01*
X119460Y697536D01*
X119439Y697474D01*
X119408Y697415D01*
X119400Y697361D01*
X119388Y697324D01*
X119388Y697321D01*
X119389Y697284D01*
X119381Y697230D01*
X119381Y694690D01*
X119392Y694625D01*
X119394Y694559D01*
X119412Y694516D01*
X119420Y694469D01*
X119454Y694412D01*
X119479Y694352D01*
X119510Y694317D01*
X119535Y694276D01*
X119586Y694235D01*
X119630Y694186D01*
X119672Y694164D01*
X119709Y694135D01*
X119771Y694114D01*
X119830Y694083D01*
X119884Y694075D01*
X119921Y694063D01*
X119961Y694064D01*
X120015Y694056D01*
X123825Y694056D01*
X123890Y694067D01*
G37*
G36*
X205170Y694067D02*
X205170Y694067D01*
X205236Y694069D01*
X205279Y694087D01*
X205326Y694095D01*
X205383Y694129D01*
X205443Y694154D01*
X205478Y694185D01*
X205519Y694210D01*
X205561Y694261D01*
X205609Y694305D01*
X205631Y694347D01*
X205660Y694384D01*
X205681Y694446D01*
X205712Y694505D01*
X205720Y694559D01*
X205732Y694596D01*
X205731Y694636D01*
X205739Y694690D01*
X205739Y697230D01*
X205728Y697295D01*
X205726Y697361D01*
X205708Y697404D01*
X205700Y697451D01*
X205666Y697508D01*
X205641Y697568D01*
X205610Y697603D01*
X205585Y697644D01*
X205534Y697686D01*
X205490Y697734D01*
X205448Y697756D01*
X205411Y697785D01*
X205349Y697806D01*
X205290Y697837D01*
X205236Y697845D01*
X205199Y697857D01*
X205159Y697856D01*
X205105Y697864D01*
X201295Y697864D01*
X201230Y697853D01*
X201164Y697851D01*
X201121Y697833D01*
X201074Y697825D01*
X201017Y697791D01*
X200957Y697766D01*
X200922Y697735D01*
X200881Y697710D01*
X200840Y697659D01*
X200791Y697615D01*
X200769Y697573D01*
X200740Y697536D01*
X200719Y697474D01*
X200688Y697415D01*
X200680Y697361D01*
X200668Y697324D01*
X200668Y697321D01*
X200669Y697284D01*
X200661Y697230D01*
X200661Y694690D01*
X200672Y694625D01*
X200674Y694559D01*
X200692Y694516D01*
X200700Y694469D01*
X200734Y694412D01*
X200759Y694352D01*
X200790Y694317D01*
X200815Y694276D01*
X200866Y694235D01*
X200910Y694186D01*
X200952Y694164D01*
X200989Y694135D01*
X201051Y694114D01*
X201110Y694083D01*
X201164Y694075D01*
X201201Y694063D01*
X201241Y694064D01*
X201295Y694056D01*
X205105Y694056D01*
X205170Y694067D01*
G37*
G36*
X134050Y694067D02*
X134050Y694067D01*
X134116Y694069D01*
X134159Y694087D01*
X134206Y694095D01*
X134263Y694129D01*
X134323Y694154D01*
X134358Y694185D01*
X134399Y694210D01*
X134441Y694261D01*
X134489Y694305D01*
X134511Y694347D01*
X134540Y694384D01*
X134561Y694446D01*
X134592Y694505D01*
X134600Y694559D01*
X134612Y694596D01*
X134611Y694636D01*
X134619Y694690D01*
X134619Y697230D01*
X134608Y697295D01*
X134606Y697361D01*
X134588Y697404D01*
X134580Y697451D01*
X134546Y697508D01*
X134521Y697568D01*
X134490Y697603D01*
X134465Y697644D01*
X134414Y697686D01*
X134370Y697734D01*
X134328Y697756D01*
X134291Y697785D01*
X134229Y697806D01*
X134170Y697837D01*
X134116Y697845D01*
X134079Y697857D01*
X134039Y697856D01*
X133985Y697864D01*
X130175Y697864D01*
X130110Y697853D01*
X130044Y697851D01*
X130001Y697833D01*
X129954Y697825D01*
X129897Y697791D01*
X129837Y697766D01*
X129802Y697735D01*
X129761Y697710D01*
X129720Y697659D01*
X129671Y697615D01*
X129649Y697573D01*
X129620Y697536D01*
X129599Y697474D01*
X129568Y697415D01*
X129560Y697361D01*
X129548Y697324D01*
X129548Y697321D01*
X129549Y697284D01*
X129541Y697230D01*
X129541Y694690D01*
X129552Y694625D01*
X129554Y694559D01*
X129572Y694516D01*
X129580Y694469D01*
X129614Y694412D01*
X129639Y694352D01*
X129670Y694317D01*
X129695Y694276D01*
X129746Y694235D01*
X129790Y694186D01*
X129832Y694164D01*
X129869Y694135D01*
X129931Y694114D01*
X129990Y694083D01*
X130044Y694075D01*
X130081Y694063D01*
X130121Y694064D01*
X130175Y694056D01*
X133985Y694056D01*
X134050Y694067D01*
G37*
G36*
X337250Y694067D02*
X337250Y694067D01*
X337316Y694069D01*
X337359Y694087D01*
X337406Y694095D01*
X337463Y694129D01*
X337523Y694154D01*
X337558Y694185D01*
X337599Y694210D01*
X337641Y694261D01*
X337689Y694305D01*
X337711Y694347D01*
X337740Y694384D01*
X337761Y694446D01*
X337792Y694505D01*
X337800Y694559D01*
X337812Y694596D01*
X337811Y694636D01*
X337819Y694690D01*
X337819Y697230D01*
X337808Y697295D01*
X337806Y697361D01*
X337788Y697404D01*
X337780Y697451D01*
X337746Y697508D01*
X337721Y697568D01*
X337690Y697603D01*
X337665Y697644D01*
X337614Y697686D01*
X337570Y697734D01*
X337528Y697756D01*
X337491Y697785D01*
X337429Y697806D01*
X337370Y697837D01*
X337316Y697845D01*
X337279Y697857D01*
X337239Y697856D01*
X337185Y697864D01*
X333375Y697864D01*
X333310Y697853D01*
X333244Y697851D01*
X333201Y697833D01*
X333154Y697825D01*
X333097Y697791D01*
X333037Y697766D01*
X333002Y697735D01*
X332961Y697710D01*
X332920Y697659D01*
X332871Y697615D01*
X332849Y697573D01*
X332820Y697536D01*
X332799Y697474D01*
X332768Y697415D01*
X332760Y697361D01*
X332748Y697324D01*
X332748Y697321D01*
X332749Y697284D01*
X332741Y697230D01*
X332741Y694690D01*
X332752Y694625D01*
X332754Y694559D01*
X332772Y694516D01*
X332780Y694469D01*
X332814Y694412D01*
X332839Y694352D01*
X332870Y694317D01*
X332895Y694276D01*
X332946Y694235D01*
X332990Y694186D01*
X333032Y694164D01*
X333069Y694135D01*
X333131Y694114D01*
X333190Y694083D01*
X333244Y694075D01*
X333281Y694063D01*
X333321Y694064D01*
X333375Y694056D01*
X337185Y694056D01*
X337250Y694067D01*
G37*
G36*
X642050Y694067D02*
X642050Y694067D01*
X642116Y694069D01*
X642159Y694087D01*
X642206Y694095D01*
X642263Y694129D01*
X642323Y694154D01*
X642358Y694185D01*
X642399Y694210D01*
X642441Y694261D01*
X642489Y694305D01*
X642511Y694347D01*
X642540Y694384D01*
X642561Y694446D01*
X642592Y694505D01*
X642600Y694559D01*
X642612Y694596D01*
X642611Y694636D01*
X642619Y694690D01*
X642619Y697230D01*
X642608Y697295D01*
X642606Y697361D01*
X642588Y697404D01*
X642580Y697451D01*
X642546Y697508D01*
X642521Y697568D01*
X642490Y697603D01*
X642465Y697644D01*
X642414Y697686D01*
X642370Y697734D01*
X642328Y697756D01*
X642291Y697785D01*
X642229Y697806D01*
X642170Y697837D01*
X642116Y697845D01*
X642079Y697857D01*
X642039Y697856D01*
X641985Y697864D01*
X638175Y697864D01*
X638110Y697853D01*
X638044Y697851D01*
X638001Y697833D01*
X637954Y697825D01*
X637897Y697791D01*
X637837Y697766D01*
X637802Y697735D01*
X637761Y697710D01*
X637720Y697659D01*
X637671Y697615D01*
X637649Y697573D01*
X637620Y697536D01*
X637599Y697474D01*
X637568Y697415D01*
X637560Y697361D01*
X637548Y697324D01*
X637548Y697321D01*
X637549Y697284D01*
X637541Y697230D01*
X637541Y694690D01*
X637552Y694625D01*
X637554Y694559D01*
X637572Y694516D01*
X637580Y694469D01*
X637614Y694412D01*
X637639Y694352D01*
X637670Y694317D01*
X637695Y694276D01*
X637746Y694235D01*
X637790Y694186D01*
X637832Y694164D01*
X637869Y694135D01*
X637931Y694114D01*
X637990Y694083D01*
X638044Y694075D01*
X638081Y694063D01*
X638121Y694064D01*
X638175Y694056D01*
X641985Y694056D01*
X642050Y694067D01*
G37*
G36*
X596330Y694067D02*
X596330Y694067D01*
X596396Y694069D01*
X596439Y694087D01*
X596486Y694095D01*
X596543Y694129D01*
X596603Y694154D01*
X596638Y694185D01*
X596679Y694210D01*
X596721Y694261D01*
X596769Y694305D01*
X596791Y694347D01*
X596820Y694384D01*
X596841Y694446D01*
X596872Y694505D01*
X596880Y694559D01*
X596892Y694596D01*
X596891Y694636D01*
X596899Y694690D01*
X596899Y697230D01*
X596888Y697295D01*
X596886Y697361D01*
X596868Y697404D01*
X596860Y697451D01*
X596826Y697508D01*
X596801Y697568D01*
X596770Y697603D01*
X596745Y697644D01*
X596694Y697686D01*
X596650Y697734D01*
X596608Y697756D01*
X596571Y697785D01*
X596509Y697806D01*
X596450Y697837D01*
X596396Y697845D01*
X596359Y697857D01*
X596319Y697856D01*
X596265Y697864D01*
X592455Y697864D01*
X592390Y697853D01*
X592324Y697851D01*
X592281Y697833D01*
X592234Y697825D01*
X592177Y697791D01*
X592117Y697766D01*
X592082Y697735D01*
X592041Y697710D01*
X592000Y697659D01*
X591951Y697615D01*
X591929Y697573D01*
X591900Y697536D01*
X591879Y697474D01*
X591848Y697415D01*
X591840Y697361D01*
X591828Y697324D01*
X591828Y697321D01*
X591829Y697284D01*
X591821Y697230D01*
X591821Y694690D01*
X591832Y694625D01*
X591834Y694559D01*
X591852Y694516D01*
X591860Y694469D01*
X591894Y694412D01*
X591919Y694352D01*
X591950Y694317D01*
X591975Y694276D01*
X592026Y694235D01*
X592070Y694186D01*
X592112Y694164D01*
X592149Y694135D01*
X592211Y694114D01*
X592270Y694083D01*
X592324Y694075D01*
X592361Y694063D01*
X592401Y694064D01*
X592455Y694056D01*
X596265Y694056D01*
X596330Y694067D01*
G37*
G36*
X982410Y694067D02*
X982410Y694067D01*
X982476Y694069D01*
X982519Y694087D01*
X982566Y694095D01*
X982623Y694129D01*
X982683Y694154D01*
X982718Y694185D01*
X982759Y694210D01*
X982801Y694261D01*
X982849Y694305D01*
X982871Y694347D01*
X982900Y694384D01*
X982921Y694446D01*
X982952Y694505D01*
X982960Y694559D01*
X982972Y694596D01*
X982971Y694636D01*
X982979Y694690D01*
X982979Y697230D01*
X982968Y697295D01*
X982966Y697361D01*
X982948Y697404D01*
X982940Y697451D01*
X982906Y697508D01*
X982881Y697568D01*
X982850Y697603D01*
X982825Y697644D01*
X982774Y697686D01*
X982730Y697734D01*
X982688Y697756D01*
X982651Y697785D01*
X982589Y697806D01*
X982530Y697837D01*
X982476Y697845D01*
X982439Y697857D01*
X982399Y697856D01*
X982345Y697864D01*
X978535Y697864D01*
X978470Y697853D01*
X978404Y697851D01*
X978361Y697833D01*
X978314Y697825D01*
X978257Y697791D01*
X978197Y697766D01*
X978162Y697735D01*
X978121Y697710D01*
X978080Y697659D01*
X978031Y697615D01*
X978009Y697573D01*
X977980Y697536D01*
X977959Y697474D01*
X977928Y697415D01*
X977920Y697361D01*
X977908Y697324D01*
X977908Y697321D01*
X977909Y697284D01*
X977901Y697230D01*
X977901Y694690D01*
X977912Y694625D01*
X977914Y694559D01*
X977932Y694516D01*
X977940Y694469D01*
X977974Y694412D01*
X977999Y694352D01*
X978030Y694317D01*
X978055Y694276D01*
X978106Y694235D01*
X978150Y694186D01*
X978192Y694164D01*
X978229Y694135D01*
X978291Y694114D01*
X978350Y694083D01*
X978404Y694075D01*
X978441Y694063D01*
X978481Y694064D01*
X978535Y694056D01*
X982345Y694056D01*
X982410Y694067D01*
G37*
G36*
X382970Y694067D02*
X382970Y694067D01*
X383036Y694069D01*
X383079Y694087D01*
X383126Y694095D01*
X383183Y694129D01*
X383243Y694154D01*
X383278Y694185D01*
X383319Y694210D01*
X383361Y694261D01*
X383409Y694305D01*
X383431Y694347D01*
X383460Y694384D01*
X383481Y694446D01*
X383512Y694505D01*
X383520Y694559D01*
X383532Y694596D01*
X383531Y694636D01*
X383539Y694690D01*
X383539Y697230D01*
X383528Y697295D01*
X383526Y697361D01*
X383508Y697404D01*
X383500Y697451D01*
X383466Y697508D01*
X383441Y697568D01*
X383410Y697603D01*
X383385Y697644D01*
X383334Y697686D01*
X383290Y697734D01*
X383248Y697756D01*
X383211Y697785D01*
X383149Y697806D01*
X383090Y697837D01*
X383036Y697845D01*
X382999Y697857D01*
X382959Y697856D01*
X382905Y697864D01*
X379095Y697864D01*
X379030Y697853D01*
X378964Y697851D01*
X378921Y697833D01*
X378874Y697825D01*
X378817Y697791D01*
X378757Y697766D01*
X378722Y697735D01*
X378681Y697710D01*
X378640Y697659D01*
X378591Y697615D01*
X378569Y697573D01*
X378540Y697536D01*
X378519Y697474D01*
X378488Y697415D01*
X378480Y697361D01*
X378468Y697324D01*
X378468Y697321D01*
X378469Y697284D01*
X378461Y697230D01*
X378461Y694690D01*
X378472Y694625D01*
X378474Y694559D01*
X378492Y694516D01*
X378500Y694469D01*
X378534Y694412D01*
X378559Y694352D01*
X378590Y694317D01*
X378615Y694276D01*
X378666Y694235D01*
X378710Y694186D01*
X378752Y694164D01*
X378789Y694135D01*
X378851Y694114D01*
X378910Y694083D01*
X378964Y694075D01*
X379001Y694063D01*
X379041Y694064D01*
X379095Y694056D01*
X382905Y694056D01*
X382970Y694067D01*
G37*
G36*
X78170Y694067D02*
X78170Y694067D01*
X78236Y694069D01*
X78279Y694087D01*
X78326Y694095D01*
X78383Y694129D01*
X78443Y694154D01*
X78478Y694185D01*
X78519Y694210D01*
X78561Y694261D01*
X78609Y694305D01*
X78631Y694347D01*
X78660Y694384D01*
X78681Y694446D01*
X78712Y694505D01*
X78720Y694559D01*
X78732Y694596D01*
X78731Y694636D01*
X78739Y694690D01*
X78739Y697230D01*
X78728Y697295D01*
X78726Y697361D01*
X78708Y697404D01*
X78700Y697451D01*
X78666Y697508D01*
X78641Y697568D01*
X78610Y697603D01*
X78585Y697644D01*
X78534Y697686D01*
X78490Y697734D01*
X78448Y697756D01*
X78411Y697785D01*
X78349Y697806D01*
X78290Y697837D01*
X78236Y697845D01*
X78199Y697857D01*
X78159Y697856D01*
X78105Y697864D01*
X74295Y697864D01*
X74230Y697853D01*
X74164Y697851D01*
X74121Y697833D01*
X74074Y697825D01*
X74017Y697791D01*
X73957Y697766D01*
X73922Y697735D01*
X73881Y697710D01*
X73840Y697659D01*
X73791Y697615D01*
X73769Y697573D01*
X73740Y697536D01*
X73719Y697474D01*
X73688Y697415D01*
X73680Y697361D01*
X73668Y697324D01*
X73668Y697321D01*
X73669Y697284D01*
X73661Y697230D01*
X73661Y694690D01*
X73672Y694625D01*
X73674Y694559D01*
X73692Y694516D01*
X73700Y694469D01*
X73734Y694412D01*
X73759Y694352D01*
X73790Y694317D01*
X73815Y694276D01*
X73866Y694235D01*
X73910Y694186D01*
X73952Y694164D01*
X73989Y694135D01*
X74051Y694114D01*
X74110Y694083D01*
X74164Y694075D01*
X74201Y694063D01*
X74241Y694064D01*
X74295Y694056D01*
X78105Y694056D01*
X78170Y694067D01*
G37*
G36*
X855410Y694067D02*
X855410Y694067D01*
X855476Y694069D01*
X855519Y694087D01*
X855566Y694095D01*
X855623Y694129D01*
X855683Y694154D01*
X855718Y694185D01*
X855759Y694210D01*
X855801Y694261D01*
X855849Y694305D01*
X855871Y694347D01*
X855900Y694384D01*
X855921Y694446D01*
X855952Y694505D01*
X855960Y694559D01*
X855972Y694596D01*
X855971Y694636D01*
X855979Y694690D01*
X855979Y697230D01*
X855968Y697295D01*
X855966Y697361D01*
X855948Y697404D01*
X855940Y697451D01*
X855906Y697508D01*
X855881Y697568D01*
X855850Y697603D01*
X855825Y697644D01*
X855774Y697686D01*
X855730Y697734D01*
X855688Y697756D01*
X855651Y697785D01*
X855589Y697806D01*
X855530Y697837D01*
X855476Y697845D01*
X855439Y697857D01*
X855399Y697856D01*
X855345Y697864D01*
X851535Y697864D01*
X851470Y697853D01*
X851404Y697851D01*
X851361Y697833D01*
X851314Y697825D01*
X851257Y697791D01*
X851197Y697766D01*
X851162Y697735D01*
X851121Y697710D01*
X851080Y697659D01*
X851031Y697615D01*
X851009Y697573D01*
X850980Y697536D01*
X850959Y697474D01*
X850928Y697415D01*
X850920Y697361D01*
X850908Y697324D01*
X850908Y697321D01*
X850909Y697284D01*
X850901Y697230D01*
X850901Y694690D01*
X850912Y694625D01*
X850914Y694559D01*
X850932Y694516D01*
X850940Y694469D01*
X850974Y694412D01*
X850999Y694352D01*
X851030Y694317D01*
X851055Y694276D01*
X851106Y694235D01*
X851150Y694186D01*
X851192Y694164D01*
X851229Y694135D01*
X851291Y694114D01*
X851350Y694083D01*
X851404Y694075D01*
X851441Y694063D01*
X851481Y694064D01*
X851535Y694056D01*
X855345Y694056D01*
X855410Y694067D01*
G37*
G36*
X723330Y953147D02*
X723330Y953147D01*
X723396Y953149D01*
X723439Y953167D01*
X723486Y953175D01*
X723543Y953209D01*
X723603Y953234D01*
X723638Y953265D01*
X723679Y953290D01*
X723721Y953341D01*
X723769Y953385D01*
X723791Y953427D01*
X723820Y953464D01*
X723841Y953526D01*
X723872Y953585D01*
X723880Y953639D01*
X723892Y953676D01*
X723891Y953716D01*
X723899Y953770D01*
X723899Y956310D01*
X723888Y956375D01*
X723886Y956441D01*
X723868Y956484D01*
X723860Y956531D01*
X723826Y956588D01*
X723801Y956648D01*
X723770Y956683D01*
X723745Y956724D01*
X723694Y956766D01*
X723650Y956814D01*
X723608Y956836D01*
X723571Y956865D01*
X723509Y956886D01*
X723450Y956917D01*
X723396Y956925D01*
X723359Y956937D01*
X723319Y956936D01*
X723265Y956944D01*
X719455Y956944D01*
X719390Y956933D01*
X719324Y956931D01*
X719281Y956913D01*
X719234Y956905D01*
X719177Y956871D01*
X719117Y956846D01*
X719082Y956815D01*
X719041Y956790D01*
X719000Y956739D01*
X718951Y956695D01*
X718929Y956653D01*
X718900Y956616D01*
X718879Y956554D01*
X718848Y956495D01*
X718840Y956441D01*
X718828Y956404D01*
X718828Y956401D01*
X718829Y956364D01*
X718821Y956310D01*
X718821Y953770D01*
X718832Y953705D01*
X718834Y953639D01*
X718852Y953596D01*
X718860Y953549D01*
X718894Y953492D01*
X718919Y953432D01*
X718950Y953397D01*
X718975Y953356D01*
X719026Y953315D01*
X719070Y953266D01*
X719112Y953244D01*
X719149Y953215D01*
X719211Y953194D01*
X719270Y953163D01*
X719324Y953155D01*
X719361Y953143D01*
X719401Y953144D01*
X719455Y953136D01*
X723265Y953136D01*
X723330Y953147D01*
G37*
G36*
X205170Y953147D02*
X205170Y953147D01*
X205236Y953149D01*
X205279Y953167D01*
X205326Y953175D01*
X205383Y953209D01*
X205443Y953234D01*
X205478Y953265D01*
X205519Y953290D01*
X205561Y953341D01*
X205609Y953385D01*
X205631Y953427D01*
X205660Y953464D01*
X205681Y953526D01*
X205712Y953585D01*
X205720Y953639D01*
X205732Y953676D01*
X205731Y953716D01*
X205739Y953770D01*
X205739Y956310D01*
X205728Y956375D01*
X205726Y956441D01*
X205708Y956484D01*
X205700Y956531D01*
X205666Y956588D01*
X205641Y956648D01*
X205610Y956683D01*
X205585Y956724D01*
X205534Y956766D01*
X205490Y956814D01*
X205448Y956836D01*
X205411Y956865D01*
X205349Y956886D01*
X205290Y956917D01*
X205236Y956925D01*
X205199Y956937D01*
X205159Y956936D01*
X205105Y956944D01*
X201295Y956944D01*
X201230Y956933D01*
X201164Y956931D01*
X201121Y956913D01*
X201074Y956905D01*
X201017Y956871D01*
X200957Y956846D01*
X200922Y956815D01*
X200881Y956790D01*
X200840Y956739D01*
X200791Y956695D01*
X200769Y956653D01*
X200740Y956616D01*
X200719Y956554D01*
X200688Y956495D01*
X200680Y956441D01*
X200668Y956404D01*
X200668Y956401D01*
X200669Y956364D01*
X200661Y956310D01*
X200661Y953770D01*
X200672Y953705D01*
X200674Y953639D01*
X200692Y953596D01*
X200700Y953549D01*
X200734Y953492D01*
X200759Y953432D01*
X200790Y953397D01*
X200815Y953356D01*
X200866Y953315D01*
X200910Y953266D01*
X200952Y953244D01*
X200989Y953215D01*
X201051Y953194D01*
X201110Y953163D01*
X201164Y953155D01*
X201201Y953143D01*
X201241Y953144D01*
X201295Y953136D01*
X205105Y953136D01*
X205170Y953147D01*
G37*
G36*
X642050Y953147D02*
X642050Y953147D01*
X642116Y953149D01*
X642159Y953167D01*
X642206Y953175D01*
X642263Y953209D01*
X642323Y953234D01*
X642358Y953265D01*
X642399Y953290D01*
X642441Y953341D01*
X642489Y953385D01*
X642511Y953427D01*
X642540Y953464D01*
X642561Y953526D01*
X642592Y953585D01*
X642600Y953639D01*
X642612Y953676D01*
X642611Y953716D01*
X642619Y953770D01*
X642619Y956310D01*
X642608Y956375D01*
X642606Y956441D01*
X642588Y956484D01*
X642580Y956531D01*
X642546Y956588D01*
X642521Y956648D01*
X642490Y956683D01*
X642465Y956724D01*
X642414Y956766D01*
X642370Y956814D01*
X642328Y956836D01*
X642291Y956865D01*
X642229Y956886D01*
X642170Y956917D01*
X642116Y956925D01*
X642079Y956937D01*
X642039Y956936D01*
X641985Y956944D01*
X638175Y956944D01*
X638110Y956933D01*
X638044Y956931D01*
X638001Y956913D01*
X637954Y956905D01*
X637897Y956871D01*
X637837Y956846D01*
X637802Y956815D01*
X637761Y956790D01*
X637720Y956739D01*
X637671Y956695D01*
X637649Y956653D01*
X637620Y956616D01*
X637599Y956554D01*
X637568Y956495D01*
X637560Y956441D01*
X637548Y956404D01*
X637548Y956401D01*
X637549Y956364D01*
X637541Y956310D01*
X637541Y953770D01*
X637552Y953705D01*
X637554Y953639D01*
X637572Y953596D01*
X637580Y953549D01*
X637614Y953492D01*
X637639Y953432D01*
X637670Y953397D01*
X637695Y953356D01*
X637746Y953315D01*
X637790Y953266D01*
X637832Y953244D01*
X637869Y953215D01*
X637931Y953194D01*
X637990Y953163D01*
X638044Y953155D01*
X638081Y953143D01*
X638121Y953144D01*
X638175Y953136D01*
X641985Y953136D01*
X642050Y953147D01*
G37*
G36*
X393130Y953147D02*
X393130Y953147D01*
X393196Y953149D01*
X393239Y953167D01*
X393286Y953175D01*
X393343Y953209D01*
X393403Y953234D01*
X393438Y953265D01*
X393479Y953290D01*
X393521Y953341D01*
X393569Y953385D01*
X393591Y953427D01*
X393620Y953464D01*
X393641Y953526D01*
X393672Y953585D01*
X393680Y953639D01*
X393692Y953676D01*
X393691Y953716D01*
X393699Y953770D01*
X393699Y956310D01*
X393688Y956375D01*
X393686Y956441D01*
X393668Y956484D01*
X393660Y956531D01*
X393626Y956588D01*
X393601Y956648D01*
X393570Y956683D01*
X393545Y956724D01*
X393494Y956766D01*
X393450Y956814D01*
X393408Y956836D01*
X393371Y956865D01*
X393309Y956886D01*
X393250Y956917D01*
X393196Y956925D01*
X393159Y956937D01*
X393119Y956936D01*
X393065Y956944D01*
X389255Y956944D01*
X389190Y956933D01*
X389124Y956931D01*
X389081Y956913D01*
X389034Y956905D01*
X388977Y956871D01*
X388917Y956846D01*
X388882Y956815D01*
X388841Y956790D01*
X388800Y956739D01*
X388751Y956695D01*
X388729Y956653D01*
X388700Y956616D01*
X388679Y956554D01*
X388648Y956495D01*
X388640Y956441D01*
X388628Y956404D01*
X388628Y956401D01*
X388629Y956364D01*
X388621Y956310D01*
X388621Y953770D01*
X388632Y953705D01*
X388634Y953639D01*
X388652Y953596D01*
X388660Y953549D01*
X388694Y953492D01*
X388719Y953432D01*
X388750Y953397D01*
X388775Y953356D01*
X388826Y953315D01*
X388870Y953266D01*
X388912Y953244D01*
X388949Y953215D01*
X389011Y953194D01*
X389070Y953163D01*
X389124Y953155D01*
X389161Y953143D01*
X389201Y953144D01*
X389255Y953136D01*
X393065Y953136D01*
X393130Y953147D01*
G37*
G36*
X78170Y953147D02*
X78170Y953147D01*
X78236Y953149D01*
X78279Y953167D01*
X78326Y953175D01*
X78383Y953209D01*
X78443Y953234D01*
X78478Y953265D01*
X78519Y953290D01*
X78561Y953341D01*
X78609Y953385D01*
X78631Y953427D01*
X78660Y953464D01*
X78681Y953526D01*
X78712Y953585D01*
X78720Y953639D01*
X78732Y953676D01*
X78731Y953716D01*
X78739Y953770D01*
X78739Y956310D01*
X78728Y956375D01*
X78726Y956441D01*
X78708Y956484D01*
X78700Y956531D01*
X78666Y956588D01*
X78641Y956648D01*
X78610Y956683D01*
X78585Y956724D01*
X78534Y956766D01*
X78490Y956814D01*
X78448Y956836D01*
X78411Y956865D01*
X78349Y956886D01*
X78290Y956917D01*
X78236Y956925D01*
X78199Y956937D01*
X78159Y956936D01*
X78105Y956944D01*
X74295Y956944D01*
X74230Y956933D01*
X74164Y956931D01*
X74121Y956913D01*
X74074Y956905D01*
X74017Y956871D01*
X73957Y956846D01*
X73922Y956815D01*
X73881Y956790D01*
X73840Y956739D01*
X73791Y956695D01*
X73769Y956653D01*
X73740Y956616D01*
X73719Y956554D01*
X73688Y956495D01*
X73680Y956441D01*
X73668Y956404D01*
X73668Y956401D01*
X73669Y956364D01*
X73661Y956310D01*
X73661Y953770D01*
X73672Y953705D01*
X73674Y953639D01*
X73692Y953596D01*
X73700Y953549D01*
X73734Y953492D01*
X73759Y953432D01*
X73790Y953397D01*
X73815Y953356D01*
X73866Y953315D01*
X73910Y953266D01*
X73952Y953244D01*
X73989Y953215D01*
X74051Y953194D01*
X74110Y953163D01*
X74164Y953155D01*
X74201Y953143D01*
X74241Y953144D01*
X74295Y953136D01*
X78105Y953136D01*
X78170Y953147D01*
G37*
G36*
X134050Y953147D02*
X134050Y953147D01*
X134116Y953149D01*
X134159Y953167D01*
X134206Y953175D01*
X134263Y953209D01*
X134323Y953234D01*
X134358Y953265D01*
X134399Y953290D01*
X134441Y953341D01*
X134489Y953385D01*
X134511Y953427D01*
X134540Y953464D01*
X134561Y953526D01*
X134592Y953585D01*
X134600Y953639D01*
X134612Y953676D01*
X134611Y953716D01*
X134619Y953770D01*
X134619Y956310D01*
X134608Y956375D01*
X134606Y956441D01*
X134588Y956484D01*
X134580Y956531D01*
X134546Y956588D01*
X134521Y956648D01*
X134490Y956683D01*
X134465Y956724D01*
X134414Y956766D01*
X134370Y956814D01*
X134328Y956836D01*
X134291Y956865D01*
X134229Y956886D01*
X134170Y956917D01*
X134116Y956925D01*
X134079Y956937D01*
X134039Y956936D01*
X133985Y956944D01*
X130175Y956944D01*
X130110Y956933D01*
X130044Y956931D01*
X130001Y956913D01*
X129954Y956905D01*
X129897Y956871D01*
X129837Y956846D01*
X129802Y956815D01*
X129761Y956790D01*
X129720Y956739D01*
X129671Y956695D01*
X129649Y956653D01*
X129620Y956616D01*
X129599Y956554D01*
X129568Y956495D01*
X129560Y956441D01*
X129548Y956404D01*
X129548Y956401D01*
X129549Y956364D01*
X129541Y956310D01*
X129541Y953770D01*
X129552Y953705D01*
X129554Y953639D01*
X129572Y953596D01*
X129580Y953549D01*
X129614Y953492D01*
X129639Y953432D01*
X129670Y953397D01*
X129695Y953356D01*
X129746Y953315D01*
X129790Y953266D01*
X129832Y953244D01*
X129869Y953215D01*
X129931Y953194D01*
X129990Y953163D01*
X130044Y953155D01*
X130081Y953143D01*
X130121Y953144D01*
X130175Y953136D01*
X133985Y953136D01*
X134050Y953147D01*
G37*
G36*
X464250Y953147D02*
X464250Y953147D01*
X464316Y953149D01*
X464359Y953167D01*
X464406Y953175D01*
X464463Y953209D01*
X464523Y953234D01*
X464558Y953265D01*
X464599Y953290D01*
X464641Y953341D01*
X464689Y953385D01*
X464711Y953427D01*
X464740Y953464D01*
X464761Y953526D01*
X464792Y953585D01*
X464800Y953639D01*
X464812Y953676D01*
X464811Y953716D01*
X464819Y953770D01*
X464819Y956310D01*
X464808Y956375D01*
X464806Y956441D01*
X464788Y956484D01*
X464780Y956531D01*
X464746Y956588D01*
X464721Y956648D01*
X464690Y956683D01*
X464665Y956724D01*
X464614Y956766D01*
X464570Y956814D01*
X464528Y956836D01*
X464491Y956865D01*
X464429Y956886D01*
X464370Y956917D01*
X464316Y956925D01*
X464279Y956937D01*
X464239Y956936D01*
X464185Y956944D01*
X460375Y956944D01*
X460310Y956933D01*
X460244Y956931D01*
X460201Y956913D01*
X460154Y956905D01*
X460097Y956871D01*
X460037Y956846D01*
X460002Y956815D01*
X459961Y956790D01*
X459920Y956739D01*
X459871Y956695D01*
X459849Y956653D01*
X459820Y956616D01*
X459799Y956554D01*
X459768Y956495D01*
X459760Y956441D01*
X459748Y956404D01*
X459748Y956401D01*
X459749Y956364D01*
X459741Y956310D01*
X459741Y953770D01*
X459752Y953705D01*
X459754Y953639D01*
X459772Y953596D01*
X459780Y953549D01*
X459814Y953492D01*
X459839Y953432D01*
X459870Y953397D01*
X459895Y953356D01*
X459946Y953315D01*
X459990Y953266D01*
X460032Y953244D01*
X460069Y953215D01*
X460131Y953194D01*
X460190Y953163D01*
X460244Y953155D01*
X460281Y953143D01*
X460321Y953144D01*
X460375Y953136D01*
X464185Y953136D01*
X464250Y953147D01*
G37*
G36*
X382970Y953147D02*
X382970Y953147D01*
X383036Y953149D01*
X383079Y953167D01*
X383126Y953175D01*
X383183Y953209D01*
X383243Y953234D01*
X383278Y953265D01*
X383319Y953290D01*
X383361Y953341D01*
X383409Y953385D01*
X383431Y953427D01*
X383460Y953464D01*
X383481Y953526D01*
X383512Y953585D01*
X383520Y953639D01*
X383532Y953676D01*
X383531Y953716D01*
X383539Y953770D01*
X383539Y956310D01*
X383528Y956375D01*
X383526Y956441D01*
X383508Y956484D01*
X383500Y956531D01*
X383466Y956588D01*
X383441Y956648D01*
X383410Y956683D01*
X383385Y956724D01*
X383334Y956766D01*
X383290Y956814D01*
X383248Y956836D01*
X383211Y956865D01*
X383149Y956886D01*
X383090Y956917D01*
X383036Y956925D01*
X382999Y956937D01*
X382959Y956936D01*
X382905Y956944D01*
X379095Y956944D01*
X379030Y956933D01*
X378964Y956931D01*
X378921Y956913D01*
X378874Y956905D01*
X378817Y956871D01*
X378757Y956846D01*
X378722Y956815D01*
X378681Y956790D01*
X378640Y956739D01*
X378591Y956695D01*
X378569Y956653D01*
X378540Y956616D01*
X378519Y956554D01*
X378488Y956495D01*
X378480Y956441D01*
X378468Y956404D01*
X378468Y956401D01*
X378469Y956364D01*
X378461Y956310D01*
X378461Y953770D01*
X378472Y953705D01*
X378474Y953639D01*
X378492Y953596D01*
X378500Y953549D01*
X378534Y953492D01*
X378559Y953432D01*
X378590Y953397D01*
X378615Y953356D01*
X378666Y953315D01*
X378710Y953266D01*
X378752Y953244D01*
X378789Y953215D01*
X378851Y953194D01*
X378910Y953163D01*
X378964Y953155D01*
X379001Y953143D01*
X379041Y953144D01*
X379095Y953136D01*
X382905Y953136D01*
X382970Y953147D01*
G37*
G36*
X652210Y953147D02*
X652210Y953147D01*
X652276Y953149D01*
X652319Y953167D01*
X652366Y953175D01*
X652423Y953209D01*
X652483Y953234D01*
X652518Y953265D01*
X652559Y953290D01*
X652601Y953341D01*
X652649Y953385D01*
X652671Y953427D01*
X652700Y953464D01*
X652721Y953526D01*
X652752Y953585D01*
X652760Y953639D01*
X652772Y953676D01*
X652771Y953716D01*
X652779Y953770D01*
X652779Y956310D01*
X652768Y956375D01*
X652766Y956441D01*
X652748Y956484D01*
X652740Y956531D01*
X652706Y956588D01*
X652681Y956648D01*
X652650Y956683D01*
X652625Y956724D01*
X652574Y956766D01*
X652530Y956814D01*
X652488Y956836D01*
X652451Y956865D01*
X652389Y956886D01*
X652330Y956917D01*
X652276Y956925D01*
X652239Y956937D01*
X652199Y956936D01*
X652145Y956944D01*
X648335Y956944D01*
X648270Y956933D01*
X648204Y956931D01*
X648161Y956913D01*
X648114Y956905D01*
X648057Y956871D01*
X647997Y956846D01*
X647962Y956815D01*
X647921Y956790D01*
X647880Y956739D01*
X647831Y956695D01*
X647809Y956653D01*
X647780Y956616D01*
X647759Y956554D01*
X647728Y956495D01*
X647720Y956441D01*
X647708Y956404D01*
X647708Y956401D01*
X647709Y956364D01*
X647701Y956310D01*
X647701Y953770D01*
X647712Y953705D01*
X647714Y953639D01*
X647732Y953596D01*
X647740Y953549D01*
X647774Y953492D01*
X647799Y953432D01*
X647830Y953397D01*
X647855Y953356D01*
X647906Y953315D01*
X647950Y953266D01*
X647992Y953244D01*
X648029Y953215D01*
X648091Y953194D01*
X648150Y953163D01*
X648204Y953155D01*
X648241Y953143D01*
X648281Y953144D01*
X648335Y953136D01*
X652145Y953136D01*
X652210Y953147D01*
G37*
G36*
X596330Y953147D02*
X596330Y953147D01*
X596396Y953149D01*
X596439Y953167D01*
X596486Y953175D01*
X596543Y953209D01*
X596603Y953234D01*
X596638Y953265D01*
X596679Y953290D01*
X596721Y953341D01*
X596769Y953385D01*
X596791Y953427D01*
X596820Y953464D01*
X596841Y953526D01*
X596872Y953585D01*
X596880Y953639D01*
X596892Y953676D01*
X596891Y953716D01*
X596899Y953770D01*
X596899Y956310D01*
X596888Y956375D01*
X596886Y956441D01*
X596868Y956484D01*
X596860Y956531D01*
X596826Y956588D01*
X596801Y956648D01*
X596770Y956683D01*
X596745Y956724D01*
X596694Y956766D01*
X596650Y956814D01*
X596608Y956836D01*
X596571Y956865D01*
X596509Y956886D01*
X596450Y956917D01*
X596396Y956925D01*
X596359Y956937D01*
X596319Y956936D01*
X596265Y956944D01*
X592455Y956944D01*
X592390Y956933D01*
X592324Y956931D01*
X592281Y956913D01*
X592234Y956905D01*
X592177Y956871D01*
X592117Y956846D01*
X592082Y956815D01*
X592041Y956790D01*
X592000Y956739D01*
X591951Y956695D01*
X591929Y956653D01*
X591900Y956616D01*
X591879Y956554D01*
X591848Y956495D01*
X591840Y956441D01*
X591828Y956404D01*
X591828Y956401D01*
X591829Y956364D01*
X591821Y956310D01*
X591821Y953770D01*
X591832Y953705D01*
X591834Y953639D01*
X591852Y953596D01*
X591860Y953549D01*
X591894Y953492D01*
X591919Y953432D01*
X591950Y953397D01*
X591975Y953356D01*
X592026Y953315D01*
X592070Y953266D01*
X592112Y953244D01*
X592149Y953215D01*
X592211Y953194D01*
X592270Y953163D01*
X592324Y953155D01*
X592361Y953143D01*
X592401Y953144D01*
X592455Y953136D01*
X596265Y953136D01*
X596330Y953147D01*
G37*
G36*
X337250Y953147D02*
X337250Y953147D01*
X337316Y953149D01*
X337359Y953167D01*
X337406Y953175D01*
X337463Y953209D01*
X337523Y953234D01*
X337558Y953265D01*
X337599Y953290D01*
X337641Y953341D01*
X337689Y953385D01*
X337711Y953427D01*
X337740Y953464D01*
X337761Y953526D01*
X337792Y953585D01*
X337800Y953639D01*
X337812Y953676D01*
X337811Y953716D01*
X337819Y953770D01*
X337819Y956310D01*
X337808Y956375D01*
X337806Y956441D01*
X337788Y956484D01*
X337780Y956531D01*
X337746Y956588D01*
X337721Y956648D01*
X337690Y956683D01*
X337665Y956724D01*
X337614Y956766D01*
X337570Y956814D01*
X337528Y956836D01*
X337491Y956865D01*
X337429Y956886D01*
X337370Y956917D01*
X337316Y956925D01*
X337279Y956937D01*
X337239Y956936D01*
X337185Y956944D01*
X333375Y956944D01*
X333310Y956933D01*
X333244Y956931D01*
X333201Y956913D01*
X333154Y956905D01*
X333097Y956871D01*
X333037Y956846D01*
X333002Y956815D01*
X332961Y956790D01*
X332920Y956739D01*
X332871Y956695D01*
X332849Y956653D01*
X332820Y956616D01*
X332799Y956554D01*
X332768Y956495D01*
X332760Y956441D01*
X332748Y956404D01*
X332748Y956401D01*
X332749Y956364D01*
X332741Y956310D01*
X332741Y953770D01*
X332752Y953705D01*
X332754Y953639D01*
X332772Y953596D01*
X332780Y953549D01*
X332814Y953492D01*
X332839Y953432D01*
X332870Y953397D01*
X332895Y953356D01*
X332946Y953315D01*
X332990Y953266D01*
X333032Y953244D01*
X333069Y953215D01*
X333131Y953194D01*
X333190Y953163D01*
X333244Y953155D01*
X333281Y953143D01*
X333321Y953144D01*
X333375Y953136D01*
X337185Y953136D01*
X337250Y953147D01*
G37*
G36*
X855410Y953147D02*
X855410Y953147D01*
X855476Y953149D01*
X855519Y953167D01*
X855566Y953175D01*
X855623Y953209D01*
X855683Y953234D01*
X855718Y953265D01*
X855759Y953290D01*
X855801Y953341D01*
X855849Y953385D01*
X855871Y953427D01*
X855900Y953464D01*
X855921Y953526D01*
X855952Y953585D01*
X855960Y953639D01*
X855972Y953676D01*
X855971Y953716D01*
X855979Y953770D01*
X855979Y956310D01*
X855968Y956375D01*
X855966Y956441D01*
X855948Y956484D01*
X855940Y956531D01*
X855906Y956588D01*
X855881Y956648D01*
X855850Y956683D01*
X855825Y956724D01*
X855774Y956766D01*
X855730Y956814D01*
X855688Y956836D01*
X855651Y956865D01*
X855589Y956886D01*
X855530Y956917D01*
X855476Y956925D01*
X855439Y956937D01*
X855399Y956936D01*
X855345Y956944D01*
X851535Y956944D01*
X851470Y956933D01*
X851404Y956931D01*
X851361Y956913D01*
X851314Y956905D01*
X851257Y956871D01*
X851197Y956846D01*
X851162Y956815D01*
X851121Y956790D01*
X851080Y956739D01*
X851031Y956695D01*
X851009Y956653D01*
X850980Y956616D01*
X850959Y956554D01*
X850928Y956495D01*
X850920Y956441D01*
X850908Y956404D01*
X850908Y956401D01*
X850909Y956364D01*
X850901Y956310D01*
X850901Y953770D01*
X850912Y953705D01*
X850914Y953639D01*
X850932Y953596D01*
X850940Y953549D01*
X850974Y953492D01*
X850999Y953432D01*
X851030Y953397D01*
X851055Y953356D01*
X851106Y953315D01*
X851150Y953266D01*
X851192Y953244D01*
X851229Y953215D01*
X851291Y953194D01*
X851350Y953163D01*
X851404Y953155D01*
X851441Y953143D01*
X851481Y953144D01*
X851535Y953136D01*
X855345Y953136D01*
X855410Y953147D01*
G37*
G36*
X982410Y953147D02*
X982410Y953147D01*
X982476Y953149D01*
X982519Y953167D01*
X982566Y953175D01*
X982623Y953209D01*
X982683Y953234D01*
X982718Y953265D01*
X982759Y953290D01*
X982801Y953341D01*
X982849Y953385D01*
X982871Y953427D01*
X982900Y953464D01*
X982921Y953526D01*
X982952Y953585D01*
X982960Y953639D01*
X982972Y953676D01*
X982971Y953716D01*
X982979Y953770D01*
X982979Y956310D01*
X982968Y956375D01*
X982966Y956441D01*
X982948Y956484D01*
X982940Y956531D01*
X982906Y956588D01*
X982881Y956648D01*
X982850Y956683D01*
X982825Y956724D01*
X982774Y956766D01*
X982730Y956814D01*
X982688Y956836D01*
X982651Y956865D01*
X982589Y956886D01*
X982530Y956917D01*
X982476Y956925D01*
X982439Y956937D01*
X982399Y956936D01*
X982345Y956944D01*
X978535Y956944D01*
X978470Y956933D01*
X978404Y956931D01*
X978361Y956913D01*
X978314Y956905D01*
X978257Y956871D01*
X978197Y956846D01*
X978162Y956815D01*
X978121Y956790D01*
X978080Y956739D01*
X978031Y956695D01*
X978009Y956653D01*
X977980Y956616D01*
X977959Y956554D01*
X977928Y956495D01*
X977920Y956441D01*
X977908Y956404D01*
X977908Y956401D01*
X977909Y956364D01*
X977901Y956310D01*
X977901Y953770D01*
X977912Y953705D01*
X977914Y953639D01*
X977932Y953596D01*
X977940Y953549D01*
X977974Y953492D01*
X977999Y953432D01*
X978030Y953397D01*
X978055Y953356D01*
X978106Y953315D01*
X978150Y953266D01*
X978192Y953244D01*
X978229Y953215D01*
X978291Y953194D01*
X978350Y953163D01*
X978404Y953155D01*
X978441Y953143D01*
X978481Y953144D01*
X978535Y953136D01*
X982345Y953136D01*
X982410Y953147D01*
G37*
G36*
X901130Y953147D02*
X901130Y953147D01*
X901196Y953149D01*
X901239Y953167D01*
X901286Y953175D01*
X901343Y953209D01*
X901403Y953234D01*
X901438Y953265D01*
X901479Y953290D01*
X901521Y953341D01*
X901569Y953385D01*
X901591Y953427D01*
X901620Y953464D01*
X901641Y953526D01*
X901672Y953585D01*
X901680Y953639D01*
X901692Y953676D01*
X901691Y953716D01*
X901699Y953770D01*
X901699Y956310D01*
X901688Y956375D01*
X901686Y956441D01*
X901668Y956484D01*
X901660Y956531D01*
X901626Y956588D01*
X901601Y956648D01*
X901570Y956683D01*
X901545Y956724D01*
X901494Y956766D01*
X901450Y956814D01*
X901408Y956836D01*
X901371Y956865D01*
X901309Y956886D01*
X901250Y956917D01*
X901196Y956925D01*
X901159Y956937D01*
X901119Y956936D01*
X901065Y956944D01*
X897255Y956944D01*
X897190Y956933D01*
X897124Y956931D01*
X897081Y956913D01*
X897034Y956905D01*
X896977Y956871D01*
X896917Y956846D01*
X896882Y956815D01*
X896841Y956790D01*
X896800Y956739D01*
X896751Y956695D01*
X896729Y956653D01*
X896700Y956616D01*
X896679Y956554D01*
X896648Y956495D01*
X896640Y956441D01*
X896628Y956404D01*
X896628Y956401D01*
X896629Y956364D01*
X896621Y956310D01*
X896621Y953770D01*
X896632Y953705D01*
X896634Y953639D01*
X896652Y953596D01*
X896660Y953549D01*
X896694Y953492D01*
X896719Y953432D01*
X896750Y953397D01*
X896775Y953356D01*
X896826Y953315D01*
X896870Y953266D01*
X896912Y953244D01*
X896949Y953215D01*
X897011Y953194D01*
X897070Y953163D01*
X897124Y953155D01*
X897161Y953143D01*
X897201Y953144D01*
X897255Y953136D01*
X901065Y953136D01*
X901130Y953147D01*
G37*
G36*
X911290Y953147D02*
X911290Y953147D01*
X911356Y953149D01*
X911399Y953167D01*
X911446Y953175D01*
X911503Y953209D01*
X911563Y953234D01*
X911598Y953265D01*
X911639Y953290D01*
X911681Y953341D01*
X911729Y953385D01*
X911751Y953427D01*
X911780Y953464D01*
X911801Y953526D01*
X911832Y953585D01*
X911840Y953639D01*
X911852Y953676D01*
X911851Y953716D01*
X911859Y953770D01*
X911859Y956310D01*
X911848Y956375D01*
X911846Y956441D01*
X911828Y956484D01*
X911820Y956531D01*
X911786Y956588D01*
X911761Y956648D01*
X911730Y956683D01*
X911705Y956724D01*
X911654Y956766D01*
X911610Y956814D01*
X911568Y956836D01*
X911531Y956865D01*
X911469Y956886D01*
X911410Y956917D01*
X911356Y956925D01*
X911319Y956937D01*
X911279Y956936D01*
X911225Y956944D01*
X907415Y956944D01*
X907350Y956933D01*
X907284Y956931D01*
X907241Y956913D01*
X907194Y956905D01*
X907137Y956871D01*
X907077Y956846D01*
X907042Y956815D01*
X907001Y956790D01*
X906960Y956739D01*
X906911Y956695D01*
X906889Y956653D01*
X906860Y956616D01*
X906839Y956554D01*
X906808Y956495D01*
X906800Y956441D01*
X906788Y956404D01*
X906788Y956401D01*
X906789Y956364D01*
X906781Y956310D01*
X906781Y953770D01*
X906792Y953705D01*
X906794Y953639D01*
X906812Y953596D01*
X906820Y953549D01*
X906854Y953492D01*
X906879Y953432D01*
X906910Y953397D01*
X906935Y953356D01*
X906986Y953315D01*
X907030Y953266D01*
X907072Y953244D01*
X907109Y953215D01*
X907171Y953194D01*
X907230Y953163D01*
X907284Y953155D01*
X907321Y953143D01*
X907361Y953144D01*
X907415Y953136D01*
X911225Y953136D01*
X911290Y953147D01*
G37*
G36*
X123890Y953147D02*
X123890Y953147D01*
X123956Y953149D01*
X123999Y953167D01*
X124046Y953175D01*
X124103Y953209D01*
X124163Y953234D01*
X124198Y953265D01*
X124239Y953290D01*
X124281Y953341D01*
X124329Y953385D01*
X124351Y953427D01*
X124380Y953464D01*
X124401Y953526D01*
X124432Y953585D01*
X124440Y953639D01*
X124452Y953676D01*
X124451Y953716D01*
X124459Y953770D01*
X124459Y956310D01*
X124448Y956375D01*
X124446Y956441D01*
X124428Y956484D01*
X124420Y956531D01*
X124386Y956588D01*
X124361Y956648D01*
X124330Y956683D01*
X124305Y956724D01*
X124254Y956766D01*
X124210Y956814D01*
X124168Y956836D01*
X124131Y956865D01*
X124069Y956886D01*
X124010Y956917D01*
X123956Y956925D01*
X123919Y956937D01*
X123879Y956936D01*
X123825Y956944D01*
X120015Y956944D01*
X119950Y956933D01*
X119884Y956931D01*
X119841Y956913D01*
X119794Y956905D01*
X119737Y956871D01*
X119677Y956846D01*
X119642Y956815D01*
X119601Y956790D01*
X119560Y956739D01*
X119511Y956695D01*
X119489Y956653D01*
X119460Y956616D01*
X119439Y956554D01*
X119408Y956495D01*
X119400Y956441D01*
X119388Y956404D01*
X119388Y956401D01*
X119389Y956364D01*
X119381Y956310D01*
X119381Y953770D01*
X119392Y953705D01*
X119394Y953639D01*
X119412Y953596D01*
X119420Y953549D01*
X119454Y953492D01*
X119479Y953432D01*
X119510Y953397D01*
X119535Y953356D01*
X119586Y953315D01*
X119630Y953266D01*
X119672Y953244D01*
X119709Y953215D01*
X119771Y953194D01*
X119830Y953163D01*
X119884Y953155D01*
X119921Y953143D01*
X119961Y953144D01*
X120015Y953136D01*
X123825Y953136D01*
X123890Y953147D01*
G37*
G36*
X652210Y434987D02*
X652210Y434987D01*
X652276Y434989D01*
X652319Y435007D01*
X652366Y435015D01*
X652423Y435049D01*
X652483Y435074D01*
X652518Y435105D01*
X652559Y435130D01*
X652601Y435181D01*
X652649Y435225D01*
X652671Y435267D01*
X652700Y435304D01*
X652721Y435366D01*
X652752Y435425D01*
X652760Y435479D01*
X652772Y435516D01*
X652771Y435556D01*
X652779Y435610D01*
X652779Y438150D01*
X652768Y438215D01*
X652766Y438281D01*
X652748Y438324D01*
X652740Y438371D01*
X652706Y438428D01*
X652681Y438488D01*
X652650Y438523D01*
X652625Y438564D01*
X652574Y438606D01*
X652530Y438654D01*
X652488Y438676D01*
X652451Y438705D01*
X652389Y438726D01*
X652330Y438757D01*
X652276Y438765D01*
X652239Y438777D01*
X652199Y438776D01*
X652145Y438784D01*
X648335Y438784D01*
X648270Y438773D01*
X648204Y438771D01*
X648161Y438753D01*
X648114Y438745D01*
X648057Y438711D01*
X647997Y438686D01*
X647962Y438655D01*
X647921Y438630D01*
X647880Y438579D01*
X647831Y438535D01*
X647809Y438493D01*
X647780Y438456D01*
X647759Y438394D01*
X647728Y438335D01*
X647720Y438281D01*
X647708Y438244D01*
X647708Y438241D01*
X647709Y438204D01*
X647701Y438150D01*
X647701Y435610D01*
X647712Y435545D01*
X647714Y435479D01*
X647732Y435436D01*
X647740Y435389D01*
X647774Y435332D01*
X647799Y435272D01*
X647830Y435237D01*
X647855Y435196D01*
X647906Y435155D01*
X647950Y435106D01*
X647992Y435084D01*
X648029Y435055D01*
X648091Y435034D01*
X648150Y435003D01*
X648204Y434995D01*
X648241Y434983D01*
X648281Y434984D01*
X648335Y434976D01*
X652145Y434976D01*
X652210Y434987D01*
G37*
G36*
X596330Y434987D02*
X596330Y434987D01*
X596396Y434989D01*
X596439Y435007D01*
X596486Y435015D01*
X596543Y435049D01*
X596603Y435074D01*
X596638Y435105D01*
X596679Y435130D01*
X596721Y435181D01*
X596769Y435225D01*
X596791Y435267D01*
X596820Y435304D01*
X596841Y435366D01*
X596872Y435425D01*
X596880Y435479D01*
X596892Y435516D01*
X596891Y435556D01*
X596899Y435610D01*
X596899Y438150D01*
X596888Y438215D01*
X596886Y438281D01*
X596868Y438324D01*
X596860Y438371D01*
X596826Y438428D01*
X596801Y438488D01*
X596770Y438523D01*
X596745Y438564D01*
X596694Y438606D01*
X596650Y438654D01*
X596608Y438676D01*
X596571Y438705D01*
X596509Y438726D01*
X596450Y438757D01*
X596396Y438765D01*
X596359Y438777D01*
X596319Y438776D01*
X596265Y438784D01*
X592455Y438784D01*
X592390Y438773D01*
X592324Y438771D01*
X592281Y438753D01*
X592234Y438745D01*
X592177Y438711D01*
X592117Y438686D01*
X592082Y438655D01*
X592041Y438630D01*
X592000Y438579D01*
X591951Y438535D01*
X591929Y438493D01*
X591900Y438456D01*
X591879Y438394D01*
X591848Y438335D01*
X591840Y438281D01*
X591828Y438244D01*
X591828Y438241D01*
X591829Y438204D01*
X591821Y438150D01*
X591821Y435610D01*
X591832Y435545D01*
X591834Y435479D01*
X591852Y435436D01*
X591860Y435389D01*
X591894Y435332D01*
X591919Y435272D01*
X591950Y435237D01*
X591975Y435196D01*
X592026Y435155D01*
X592070Y435106D01*
X592112Y435084D01*
X592149Y435055D01*
X592211Y435034D01*
X592270Y435003D01*
X592324Y434995D01*
X592361Y434983D01*
X592401Y434984D01*
X592455Y434976D01*
X596265Y434976D01*
X596330Y434987D01*
G37*
G36*
X855410Y434987D02*
X855410Y434987D01*
X855476Y434989D01*
X855519Y435007D01*
X855566Y435015D01*
X855623Y435049D01*
X855683Y435074D01*
X855718Y435105D01*
X855759Y435130D01*
X855801Y435181D01*
X855849Y435225D01*
X855871Y435267D01*
X855900Y435304D01*
X855921Y435366D01*
X855952Y435425D01*
X855960Y435479D01*
X855972Y435516D01*
X855971Y435556D01*
X855979Y435610D01*
X855979Y438150D01*
X855968Y438215D01*
X855966Y438281D01*
X855948Y438324D01*
X855940Y438371D01*
X855906Y438428D01*
X855881Y438488D01*
X855850Y438523D01*
X855825Y438564D01*
X855774Y438606D01*
X855730Y438654D01*
X855688Y438676D01*
X855651Y438705D01*
X855589Y438726D01*
X855530Y438757D01*
X855476Y438765D01*
X855439Y438777D01*
X855399Y438776D01*
X855345Y438784D01*
X851535Y438784D01*
X851470Y438773D01*
X851404Y438771D01*
X851361Y438753D01*
X851314Y438745D01*
X851257Y438711D01*
X851197Y438686D01*
X851162Y438655D01*
X851121Y438630D01*
X851080Y438579D01*
X851031Y438535D01*
X851009Y438493D01*
X850980Y438456D01*
X850959Y438394D01*
X850928Y438335D01*
X850920Y438281D01*
X850908Y438244D01*
X850908Y438241D01*
X850909Y438204D01*
X850901Y438150D01*
X850901Y435610D01*
X850912Y435545D01*
X850914Y435479D01*
X850932Y435436D01*
X850940Y435389D01*
X850974Y435332D01*
X850999Y435272D01*
X851030Y435237D01*
X851055Y435196D01*
X851106Y435155D01*
X851150Y435106D01*
X851192Y435084D01*
X851229Y435055D01*
X851291Y435034D01*
X851350Y435003D01*
X851404Y434995D01*
X851441Y434983D01*
X851481Y434984D01*
X851535Y434976D01*
X855345Y434976D01*
X855410Y434987D01*
G37*
G36*
X205170Y434987D02*
X205170Y434987D01*
X205236Y434989D01*
X205279Y435007D01*
X205326Y435015D01*
X205383Y435049D01*
X205443Y435074D01*
X205478Y435105D01*
X205519Y435130D01*
X205561Y435181D01*
X205609Y435225D01*
X205631Y435267D01*
X205660Y435304D01*
X205681Y435366D01*
X205712Y435425D01*
X205720Y435479D01*
X205732Y435516D01*
X205731Y435556D01*
X205739Y435610D01*
X205739Y438150D01*
X205728Y438215D01*
X205726Y438281D01*
X205708Y438324D01*
X205700Y438371D01*
X205666Y438428D01*
X205641Y438488D01*
X205610Y438523D01*
X205585Y438564D01*
X205534Y438606D01*
X205490Y438654D01*
X205448Y438676D01*
X205411Y438705D01*
X205349Y438726D01*
X205290Y438757D01*
X205236Y438765D01*
X205199Y438777D01*
X205159Y438776D01*
X205105Y438784D01*
X201295Y438784D01*
X201230Y438773D01*
X201164Y438771D01*
X201121Y438753D01*
X201074Y438745D01*
X201017Y438711D01*
X200957Y438686D01*
X200922Y438655D01*
X200881Y438630D01*
X200840Y438579D01*
X200791Y438535D01*
X200769Y438493D01*
X200740Y438456D01*
X200719Y438394D01*
X200688Y438335D01*
X200680Y438281D01*
X200668Y438244D01*
X200668Y438241D01*
X200669Y438204D01*
X200661Y438150D01*
X200661Y435610D01*
X200672Y435545D01*
X200674Y435479D01*
X200692Y435436D01*
X200700Y435389D01*
X200734Y435332D01*
X200759Y435272D01*
X200790Y435237D01*
X200815Y435196D01*
X200866Y435155D01*
X200910Y435106D01*
X200952Y435084D01*
X200989Y435055D01*
X201051Y435034D01*
X201110Y435003D01*
X201164Y434995D01*
X201201Y434983D01*
X201241Y434984D01*
X201295Y434976D01*
X205105Y434976D01*
X205170Y434987D01*
G37*
G36*
X723330Y434987D02*
X723330Y434987D01*
X723396Y434989D01*
X723439Y435007D01*
X723486Y435015D01*
X723543Y435049D01*
X723603Y435074D01*
X723638Y435105D01*
X723679Y435130D01*
X723721Y435181D01*
X723769Y435225D01*
X723791Y435267D01*
X723820Y435304D01*
X723841Y435366D01*
X723872Y435425D01*
X723880Y435479D01*
X723892Y435516D01*
X723891Y435556D01*
X723899Y435610D01*
X723899Y438150D01*
X723888Y438215D01*
X723886Y438281D01*
X723868Y438324D01*
X723860Y438371D01*
X723826Y438428D01*
X723801Y438488D01*
X723770Y438523D01*
X723745Y438564D01*
X723694Y438606D01*
X723650Y438654D01*
X723608Y438676D01*
X723571Y438705D01*
X723509Y438726D01*
X723450Y438757D01*
X723396Y438765D01*
X723359Y438777D01*
X723319Y438776D01*
X723265Y438784D01*
X719455Y438784D01*
X719390Y438773D01*
X719324Y438771D01*
X719281Y438753D01*
X719234Y438745D01*
X719177Y438711D01*
X719117Y438686D01*
X719082Y438655D01*
X719041Y438630D01*
X719000Y438579D01*
X718951Y438535D01*
X718929Y438493D01*
X718900Y438456D01*
X718879Y438394D01*
X718848Y438335D01*
X718840Y438281D01*
X718828Y438244D01*
X718828Y438241D01*
X718829Y438204D01*
X718821Y438150D01*
X718821Y435610D01*
X718832Y435545D01*
X718834Y435479D01*
X718852Y435436D01*
X718860Y435389D01*
X718894Y435332D01*
X718919Y435272D01*
X718950Y435237D01*
X718975Y435196D01*
X719026Y435155D01*
X719070Y435106D01*
X719112Y435084D01*
X719149Y435055D01*
X719211Y435034D01*
X719270Y435003D01*
X719324Y434995D01*
X719361Y434983D01*
X719401Y434984D01*
X719455Y434976D01*
X723265Y434976D01*
X723330Y434987D01*
G37*
G36*
X337250Y434987D02*
X337250Y434987D01*
X337316Y434989D01*
X337359Y435007D01*
X337406Y435015D01*
X337463Y435049D01*
X337523Y435074D01*
X337558Y435105D01*
X337599Y435130D01*
X337641Y435181D01*
X337689Y435225D01*
X337711Y435267D01*
X337740Y435304D01*
X337761Y435366D01*
X337792Y435425D01*
X337800Y435479D01*
X337812Y435516D01*
X337811Y435556D01*
X337819Y435610D01*
X337819Y438150D01*
X337808Y438215D01*
X337806Y438281D01*
X337788Y438324D01*
X337780Y438371D01*
X337746Y438428D01*
X337721Y438488D01*
X337690Y438523D01*
X337665Y438564D01*
X337614Y438606D01*
X337570Y438654D01*
X337528Y438676D01*
X337491Y438705D01*
X337429Y438726D01*
X337370Y438757D01*
X337316Y438765D01*
X337279Y438777D01*
X337239Y438776D01*
X337185Y438784D01*
X333375Y438784D01*
X333310Y438773D01*
X333244Y438771D01*
X333201Y438753D01*
X333154Y438745D01*
X333097Y438711D01*
X333037Y438686D01*
X333002Y438655D01*
X332961Y438630D01*
X332920Y438579D01*
X332871Y438535D01*
X332849Y438493D01*
X332820Y438456D01*
X332799Y438394D01*
X332768Y438335D01*
X332760Y438281D01*
X332748Y438244D01*
X332748Y438241D01*
X332749Y438204D01*
X332741Y438150D01*
X332741Y435610D01*
X332752Y435545D01*
X332754Y435479D01*
X332772Y435436D01*
X332780Y435389D01*
X332814Y435332D01*
X332839Y435272D01*
X332870Y435237D01*
X332895Y435196D01*
X332946Y435155D01*
X332990Y435106D01*
X333032Y435084D01*
X333069Y435055D01*
X333131Y435034D01*
X333190Y435003D01*
X333244Y434995D01*
X333281Y434983D01*
X333321Y434984D01*
X333375Y434976D01*
X337185Y434976D01*
X337250Y434987D01*
G37*
G36*
X78170Y434987D02*
X78170Y434987D01*
X78236Y434989D01*
X78279Y435007D01*
X78326Y435015D01*
X78383Y435049D01*
X78443Y435074D01*
X78478Y435105D01*
X78519Y435130D01*
X78561Y435181D01*
X78609Y435225D01*
X78631Y435267D01*
X78660Y435304D01*
X78681Y435366D01*
X78712Y435425D01*
X78720Y435479D01*
X78732Y435516D01*
X78731Y435556D01*
X78739Y435610D01*
X78739Y438150D01*
X78728Y438215D01*
X78726Y438281D01*
X78708Y438324D01*
X78700Y438371D01*
X78666Y438428D01*
X78641Y438488D01*
X78610Y438523D01*
X78585Y438564D01*
X78534Y438606D01*
X78490Y438654D01*
X78448Y438676D01*
X78411Y438705D01*
X78349Y438726D01*
X78290Y438757D01*
X78236Y438765D01*
X78199Y438777D01*
X78159Y438776D01*
X78105Y438784D01*
X74295Y438784D01*
X74230Y438773D01*
X74164Y438771D01*
X74121Y438753D01*
X74074Y438745D01*
X74017Y438711D01*
X73957Y438686D01*
X73922Y438655D01*
X73881Y438630D01*
X73840Y438579D01*
X73791Y438535D01*
X73769Y438493D01*
X73740Y438456D01*
X73719Y438394D01*
X73688Y438335D01*
X73680Y438281D01*
X73668Y438244D01*
X73668Y438241D01*
X73669Y438204D01*
X73661Y438150D01*
X73661Y435610D01*
X73672Y435545D01*
X73674Y435479D01*
X73692Y435436D01*
X73700Y435389D01*
X73734Y435332D01*
X73759Y435272D01*
X73790Y435237D01*
X73815Y435196D01*
X73866Y435155D01*
X73910Y435106D01*
X73952Y435084D01*
X73989Y435055D01*
X74051Y435034D01*
X74110Y435003D01*
X74164Y434995D01*
X74201Y434983D01*
X74241Y434984D01*
X74295Y434976D01*
X78105Y434976D01*
X78170Y434987D01*
G37*
G36*
X901130Y434987D02*
X901130Y434987D01*
X901196Y434989D01*
X901239Y435007D01*
X901286Y435015D01*
X901343Y435049D01*
X901403Y435074D01*
X901438Y435105D01*
X901479Y435130D01*
X901521Y435181D01*
X901569Y435225D01*
X901591Y435267D01*
X901620Y435304D01*
X901641Y435366D01*
X901672Y435425D01*
X901680Y435479D01*
X901692Y435516D01*
X901691Y435556D01*
X901699Y435610D01*
X901699Y438150D01*
X901688Y438215D01*
X901686Y438281D01*
X901668Y438324D01*
X901660Y438371D01*
X901626Y438428D01*
X901601Y438488D01*
X901570Y438523D01*
X901545Y438564D01*
X901494Y438606D01*
X901450Y438654D01*
X901408Y438676D01*
X901371Y438705D01*
X901309Y438726D01*
X901250Y438757D01*
X901196Y438765D01*
X901159Y438777D01*
X901119Y438776D01*
X901065Y438784D01*
X897255Y438784D01*
X897190Y438773D01*
X897124Y438771D01*
X897081Y438753D01*
X897034Y438745D01*
X896977Y438711D01*
X896917Y438686D01*
X896882Y438655D01*
X896841Y438630D01*
X896800Y438579D01*
X896751Y438535D01*
X896729Y438493D01*
X896700Y438456D01*
X896679Y438394D01*
X896648Y438335D01*
X896640Y438281D01*
X896628Y438244D01*
X896628Y438241D01*
X896629Y438204D01*
X896621Y438150D01*
X896621Y435610D01*
X896632Y435545D01*
X896634Y435479D01*
X896652Y435436D01*
X896660Y435389D01*
X896694Y435332D01*
X896719Y435272D01*
X896750Y435237D01*
X896775Y435196D01*
X896826Y435155D01*
X896870Y435106D01*
X896912Y435084D01*
X896949Y435055D01*
X897011Y435034D01*
X897070Y435003D01*
X897124Y434995D01*
X897161Y434983D01*
X897201Y434984D01*
X897255Y434976D01*
X901065Y434976D01*
X901130Y434987D01*
G37*
G36*
X134050Y434987D02*
X134050Y434987D01*
X134116Y434989D01*
X134159Y435007D01*
X134206Y435015D01*
X134263Y435049D01*
X134323Y435074D01*
X134358Y435105D01*
X134399Y435130D01*
X134441Y435181D01*
X134489Y435225D01*
X134511Y435267D01*
X134540Y435304D01*
X134561Y435366D01*
X134592Y435425D01*
X134600Y435479D01*
X134612Y435516D01*
X134611Y435556D01*
X134619Y435610D01*
X134619Y438150D01*
X134608Y438215D01*
X134606Y438281D01*
X134588Y438324D01*
X134580Y438371D01*
X134546Y438428D01*
X134521Y438488D01*
X134490Y438523D01*
X134465Y438564D01*
X134414Y438606D01*
X134370Y438654D01*
X134328Y438676D01*
X134291Y438705D01*
X134229Y438726D01*
X134170Y438757D01*
X134116Y438765D01*
X134079Y438777D01*
X134039Y438776D01*
X133985Y438784D01*
X130175Y438784D01*
X130110Y438773D01*
X130044Y438771D01*
X130001Y438753D01*
X129954Y438745D01*
X129897Y438711D01*
X129837Y438686D01*
X129802Y438655D01*
X129761Y438630D01*
X129720Y438579D01*
X129671Y438535D01*
X129649Y438493D01*
X129620Y438456D01*
X129599Y438394D01*
X129568Y438335D01*
X129560Y438281D01*
X129548Y438244D01*
X129548Y438241D01*
X129549Y438204D01*
X129541Y438150D01*
X129541Y435610D01*
X129552Y435545D01*
X129554Y435479D01*
X129572Y435436D01*
X129580Y435389D01*
X129614Y435332D01*
X129639Y435272D01*
X129670Y435237D01*
X129695Y435196D01*
X129746Y435155D01*
X129790Y435106D01*
X129832Y435084D01*
X129869Y435055D01*
X129931Y435034D01*
X129990Y435003D01*
X130044Y434995D01*
X130081Y434983D01*
X130121Y434984D01*
X130175Y434976D01*
X133985Y434976D01*
X134050Y434987D01*
G37*
G36*
X393130Y434987D02*
X393130Y434987D01*
X393196Y434989D01*
X393239Y435007D01*
X393286Y435015D01*
X393343Y435049D01*
X393403Y435074D01*
X393438Y435105D01*
X393479Y435130D01*
X393521Y435181D01*
X393569Y435225D01*
X393591Y435267D01*
X393620Y435304D01*
X393641Y435366D01*
X393672Y435425D01*
X393680Y435479D01*
X393692Y435516D01*
X393691Y435556D01*
X393699Y435610D01*
X393699Y438150D01*
X393688Y438215D01*
X393686Y438281D01*
X393668Y438324D01*
X393660Y438371D01*
X393626Y438428D01*
X393601Y438488D01*
X393570Y438523D01*
X393545Y438564D01*
X393494Y438606D01*
X393450Y438654D01*
X393408Y438676D01*
X393371Y438705D01*
X393309Y438726D01*
X393250Y438757D01*
X393196Y438765D01*
X393159Y438777D01*
X393119Y438776D01*
X393065Y438784D01*
X389255Y438784D01*
X389190Y438773D01*
X389124Y438771D01*
X389081Y438753D01*
X389034Y438745D01*
X388977Y438711D01*
X388917Y438686D01*
X388882Y438655D01*
X388841Y438630D01*
X388800Y438579D01*
X388751Y438535D01*
X388729Y438493D01*
X388700Y438456D01*
X388679Y438394D01*
X388648Y438335D01*
X388640Y438281D01*
X388628Y438244D01*
X388628Y438241D01*
X388629Y438204D01*
X388621Y438150D01*
X388621Y435610D01*
X388632Y435545D01*
X388634Y435479D01*
X388652Y435436D01*
X388660Y435389D01*
X388694Y435332D01*
X388719Y435272D01*
X388750Y435237D01*
X388775Y435196D01*
X388826Y435155D01*
X388870Y435106D01*
X388912Y435084D01*
X388949Y435055D01*
X389011Y435034D01*
X389070Y435003D01*
X389124Y434995D01*
X389161Y434983D01*
X389201Y434984D01*
X389255Y434976D01*
X393065Y434976D01*
X393130Y434987D01*
G37*
G36*
X382970Y434987D02*
X382970Y434987D01*
X383036Y434989D01*
X383079Y435007D01*
X383126Y435015D01*
X383183Y435049D01*
X383243Y435074D01*
X383278Y435105D01*
X383319Y435130D01*
X383361Y435181D01*
X383409Y435225D01*
X383431Y435267D01*
X383460Y435304D01*
X383481Y435366D01*
X383512Y435425D01*
X383520Y435479D01*
X383532Y435516D01*
X383531Y435556D01*
X383539Y435610D01*
X383539Y438150D01*
X383528Y438215D01*
X383526Y438281D01*
X383508Y438324D01*
X383500Y438371D01*
X383466Y438428D01*
X383441Y438488D01*
X383410Y438523D01*
X383385Y438564D01*
X383334Y438606D01*
X383290Y438654D01*
X383248Y438676D01*
X383211Y438705D01*
X383149Y438726D01*
X383090Y438757D01*
X383036Y438765D01*
X382999Y438777D01*
X382959Y438776D01*
X382905Y438784D01*
X379095Y438784D01*
X379030Y438773D01*
X378964Y438771D01*
X378921Y438753D01*
X378874Y438745D01*
X378817Y438711D01*
X378757Y438686D01*
X378722Y438655D01*
X378681Y438630D01*
X378640Y438579D01*
X378591Y438535D01*
X378569Y438493D01*
X378540Y438456D01*
X378519Y438394D01*
X378488Y438335D01*
X378480Y438281D01*
X378468Y438244D01*
X378468Y438241D01*
X378469Y438204D01*
X378461Y438150D01*
X378461Y435610D01*
X378472Y435545D01*
X378474Y435479D01*
X378492Y435436D01*
X378500Y435389D01*
X378534Y435332D01*
X378559Y435272D01*
X378590Y435237D01*
X378615Y435196D01*
X378666Y435155D01*
X378710Y435106D01*
X378752Y435084D01*
X378789Y435055D01*
X378851Y435034D01*
X378910Y435003D01*
X378964Y434995D01*
X379001Y434983D01*
X379041Y434984D01*
X379095Y434976D01*
X382905Y434976D01*
X382970Y434987D01*
G37*
G36*
X464250Y434987D02*
X464250Y434987D01*
X464316Y434989D01*
X464359Y435007D01*
X464406Y435015D01*
X464463Y435049D01*
X464523Y435074D01*
X464558Y435105D01*
X464599Y435130D01*
X464641Y435181D01*
X464689Y435225D01*
X464711Y435267D01*
X464740Y435304D01*
X464761Y435366D01*
X464792Y435425D01*
X464800Y435479D01*
X464812Y435516D01*
X464811Y435556D01*
X464819Y435610D01*
X464819Y438150D01*
X464808Y438215D01*
X464806Y438281D01*
X464788Y438324D01*
X464780Y438371D01*
X464746Y438428D01*
X464721Y438488D01*
X464690Y438523D01*
X464665Y438564D01*
X464614Y438606D01*
X464570Y438654D01*
X464528Y438676D01*
X464491Y438705D01*
X464429Y438726D01*
X464370Y438757D01*
X464316Y438765D01*
X464279Y438777D01*
X464239Y438776D01*
X464185Y438784D01*
X460375Y438784D01*
X460310Y438773D01*
X460244Y438771D01*
X460201Y438753D01*
X460154Y438745D01*
X460097Y438711D01*
X460037Y438686D01*
X460002Y438655D01*
X459961Y438630D01*
X459920Y438579D01*
X459871Y438535D01*
X459849Y438493D01*
X459820Y438456D01*
X459799Y438394D01*
X459768Y438335D01*
X459760Y438281D01*
X459748Y438244D01*
X459748Y438241D01*
X459749Y438204D01*
X459741Y438150D01*
X459741Y435610D01*
X459752Y435545D01*
X459754Y435479D01*
X459772Y435436D01*
X459780Y435389D01*
X459814Y435332D01*
X459839Y435272D01*
X459870Y435237D01*
X459895Y435196D01*
X459946Y435155D01*
X459990Y435106D01*
X460032Y435084D01*
X460069Y435055D01*
X460131Y435034D01*
X460190Y435003D01*
X460244Y434995D01*
X460281Y434983D01*
X460321Y434984D01*
X460375Y434976D01*
X464185Y434976D01*
X464250Y434987D01*
G37*
G36*
X642050Y434987D02*
X642050Y434987D01*
X642116Y434989D01*
X642159Y435007D01*
X642206Y435015D01*
X642263Y435049D01*
X642323Y435074D01*
X642358Y435105D01*
X642399Y435130D01*
X642441Y435181D01*
X642489Y435225D01*
X642511Y435267D01*
X642540Y435304D01*
X642561Y435366D01*
X642592Y435425D01*
X642600Y435479D01*
X642612Y435516D01*
X642611Y435556D01*
X642619Y435610D01*
X642619Y438150D01*
X642608Y438215D01*
X642606Y438281D01*
X642588Y438324D01*
X642580Y438371D01*
X642546Y438428D01*
X642521Y438488D01*
X642490Y438523D01*
X642465Y438564D01*
X642414Y438606D01*
X642370Y438654D01*
X642328Y438676D01*
X642291Y438705D01*
X642229Y438726D01*
X642170Y438757D01*
X642116Y438765D01*
X642079Y438777D01*
X642039Y438776D01*
X641985Y438784D01*
X638175Y438784D01*
X638110Y438773D01*
X638044Y438771D01*
X638001Y438753D01*
X637954Y438745D01*
X637897Y438711D01*
X637837Y438686D01*
X637802Y438655D01*
X637761Y438630D01*
X637720Y438579D01*
X637671Y438535D01*
X637649Y438493D01*
X637620Y438456D01*
X637599Y438394D01*
X637568Y438335D01*
X637560Y438281D01*
X637548Y438244D01*
X637548Y438241D01*
X637549Y438204D01*
X637541Y438150D01*
X637541Y435610D01*
X637552Y435545D01*
X637554Y435479D01*
X637572Y435436D01*
X637580Y435389D01*
X637614Y435332D01*
X637639Y435272D01*
X637670Y435237D01*
X637695Y435196D01*
X637746Y435155D01*
X637790Y435106D01*
X637832Y435084D01*
X637869Y435055D01*
X637931Y435034D01*
X637990Y435003D01*
X638044Y434995D01*
X638081Y434983D01*
X638121Y434984D01*
X638175Y434976D01*
X641985Y434976D01*
X642050Y434987D01*
G37*
G36*
X982410Y434987D02*
X982410Y434987D01*
X982476Y434989D01*
X982519Y435007D01*
X982566Y435015D01*
X982623Y435049D01*
X982683Y435074D01*
X982718Y435105D01*
X982759Y435130D01*
X982801Y435181D01*
X982849Y435225D01*
X982871Y435267D01*
X982900Y435304D01*
X982921Y435366D01*
X982952Y435425D01*
X982960Y435479D01*
X982972Y435516D01*
X982971Y435556D01*
X982979Y435610D01*
X982979Y438150D01*
X982968Y438215D01*
X982966Y438281D01*
X982948Y438324D01*
X982940Y438371D01*
X982906Y438428D01*
X982881Y438488D01*
X982850Y438523D01*
X982825Y438564D01*
X982774Y438606D01*
X982730Y438654D01*
X982688Y438676D01*
X982651Y438705D01*
X982589Y438726D01*
X982530Y438757D01*
X982476Y438765D01*
X982439Y438777D01*
X982399Y438776D01*
X982345Y438784D01*
X978535Y438784D01*
X978470Y438773D01*
X978404Y438771D01*
X978361Y438753D01*
X978314Y438745D01*
X978257Y438711D01*
X978197Y438686D01*
X978162Y438655D01*
X978121Y438630D01*
X978080Y438579D01*
X978031Y438535D01*
X978009Y438493D01*
X977980Y438456D01*
X977959Y438394D01*
X977928Y438335D01*
X977920Y438281D01*
X977908Y438244D01*
X977908Y438241D01*
X977909Y438204D01*
X977901Y438150D01*
X977901Y435610D01*
X977912Y435545D01*
X977914Y435479D01*
X977932Y435436D01*
X977940Y435389D01*
X977974Y435332D01*
X977999Y435272D01*
X978030Y435237D01*
X978055Y435196D01*
X978106Y435155D01*
X978150Y435106D01*
X978192Y435084D01*
X978229Y435055D01*
X978291Y435034D01*
X978350Y435003D01*
X978404Y434995D01*
X978441Y434983D01*
X978481Y434984D01*
X978535Y434976D01*
X982345Y434976D01*
X982410Y434987D01*
G37*
G36*
X911290Y434987D02*
X911290Y434987D01*
X911356Y434989D01*
X911399Y435007D01*
X911446Y435015D01*
X911503Y435049D01*
X911563Y435074D01*
X911598Y435105D01*
X911639Y435130D01*
X911681Y435181D01*
X911729Y435225D01*
X911751Y435267D01*
X911780Y435304D01*
X911801Y435366D01*
X911832Y435425D01*
X911840Y435479D01*
X911852Y435516D01*
X911851Y435556D01*
X911859Y435610D01*
X911859Y438150D01*
X911848Y438215D01*
X911846Y438281D01*
X911828Y438324D01*
X911820Y438371D01*
X911786Y438428D01*
X911761Y438488D01*
X911730Y438523D01*
X911705Y438564D01*
X911654Y438606D01*
X911610Y438654D01*
X911568Y438676D01*
X911531Y438705D01*
X911469Y438726D01*
X911410Y438757D01*
X911356Y438765D01*
X911319Y438777D01*
X911279Y438776D01*
X911225Y438784D01*
X907415Y438784D01*
X907350Y438773D01*
X907284Y438771D01*
X907241Y438753D01*
X907194Y438745D01*
X907137Y438711D01*
X907077Y438686D01*
X907042Y438655D01*
X907001Y438630D01*
X906960Y438579D01*
X906911Y438535D01*
X906889Y438493D01*
X906860Y438456D01*
X906839Y438394D01*
X906808Y438335D01*
X906800Y438281D01*
X906788Y438244D01*
X906788Y438241D01*
X906789Y438204D01*
X906781Y438150D01*
X906781Y435610D01*
X906792Y435545D01*
X906794Y435479D01*
X906812Y435436D01*
X906820Y435389D01*
X906854Y435332D01*
X906879Y435272D01*
X906910Y435237D01*
X906935Y435196D01*
X906986Y435155D01*
X907030Y435106D01*
X907072Y435084D01*
X907109Y435055D01*
X907171Y435034D01*
X907230Y435003D01*
X907284Y434995D01*
X907321Y434983D01*
X907361Y434984D01*
X907415Y434976D01*
X911225Y434976D01*
X911290Y434987D01*
G37*
G36*
X123890Y434987D02*
X123890Y434987D01*
X123956Y434989D01*
X123999Y435007D01*
X124046Y435015D01*
X124103Y435049D01*
X124163Y435074D01*
X124198Y435105D01*
X124239Y435130D01*
X124281Y435181D01*
X124329Y435225D01*
X124351Y435267D01*
X124380Y435304D01*
X124401Y435366D01*
X124432Y435425D01*
X124440Y435479D01*
X124452Y435516D01*
X124451Y435556D01*
X124459Y435610D01*
X124459Y438150D01*
X124448Y438215D01*
X124446Y438281D01*
X124428Y438324D01*
X124420Y438371D01*
X124386Y438428D01*
X124361Y438488D01*
X124330Y438523D01*
X124305Y438564D01*
X124254Y438606D01*
X124210Y438654D01*
X124168Y438676D01*
X124131Y438705D01*
X124069Y438726D01*
X124010Y438757D01*
X123956Y438765D01*
X123919Y438777D01*
X123879Y438776D01*
X123825Y438784D01*
X120015Y438784D01*
X119950Y438773D01*
X119884Y438771D01*
X119841Y438753D01*
X119794Y438745D01*
X119737Y438711D01*
X119677Y438686D01*
X119642Y438655D01*
X119601Y438630D01*
X119560Y438579D01*
X119511Y438535D01*
X119489Y438493D01*
X119460Y438456D01*
X119439Y438394D01*
X119408Y438335D01*
X119400Y438281D01*
X119388Y438244D01*
X119388Y438241D01*
X119389Y438204D01*
X119381Y438150D01*
X119381Y435610D01*
X119392Y435545D01*
X119394Y435479D01*
X119412Y435436D01*
X119420Y435389D01*
X119454Y435332D01*
X119479Y435272D01*
X119510Y435237D01*
X119535Y435196D01*
X119586Y435155D01*
X119630Y435106D01*
X119672Y435084D01*
X119709Y435055D01*
X119771Y435034D01*
X119830Y435003D01*
X119884Y434995D01*
X119921Y434983D01*
X119961Y434984D01*
X120015Y434976D01*
X123825Y434976D01*
X123890Y434987D01*
G37*
G36*
X911290Y175907D02*
X911290Y175907D01*
X911356Y175909D01*
X911399Y175927D01*
X911446Y175935D01*
X911503Y175969D01*
X911563Y175994D01*
X911598Y176025D01*
X911639Y176050D01*
X911681Y176101D01*
X911729Y176145D01*
X911751Y176187D01*
X911780Y176224D01*
X911801Y176286D01*
X911832Y176345D01*
X911840Y176399D01*
X911852Y176436D01*
X911851Y176476D01*
X911859Y176530D01*
X911859Y179070D01*
X911848Y179135D01*
X911846Y179201D01*
X911828Y179244D01*
X911820Y179291D01*
X911786Y179348D01*
X911761Y179408D01*
X911730Y179443D01*
X911705Y179484D01*
X911654Y179526D01*
X911610Y179574D01*
X911568Y179596D01*
X911531Y179625D01*
X911469Y179646D01*
X911410Y179677D01*
X911356Y179685D01*
X911319Y179697D01*
X911279Y179696D01*
X911225Y179704D01*
X907415Y179704D01*
X907350Y179693D01*
X907284Y179691D01*
X907241Y179673D01*
X907194Y179665D01*
X907137Y179631D01*
X907077Y179606D01*
X907042Y179575D01*
X907001Y179550D01*
X906960Y179499D01*
X906911Y179455D01*
X906889Y179413D01*
X906860Y179376D01*
X906839Y179314D01*
X906808Y179255D01*
X906800Y179201D01*
X906788Y179164D01*
X906788Y179161D01*
X906789Y179124D01*
X906781Y179070D01*
X906781Y176530D01*
X906792Y176465D01*
X906794Y176399D01*
X906812Y176356D01*
X906820Y176309D01*
X906854Y176252D01*
X906879Y176192D01*
X906910Y176157D01*
X906935Y176116D01*
X906986Y176075D01*
X907030Y176026D01*
X907072Y176004D01*
X907109Y175975D01*
X907171Y175954D01*
X907230Y175923D01*
X907284Y175915D01*
X907321Y175903D01*
X907361Y175904D01*
X907415Y175896D01*
X911225Y175896D01*
X911290Y175907D01*
G37*
G36*
X723330Y175907D02*
X723330Y175907D01*
X723396Y175909D01*
X723439Y175927D01*
X723486Y175935D01*
X723543Y175969D01*
X723603Y175994D01*
X723638Y176025D01*
X723679Y176050D01*
X723721Y176101D01*
X723769Y176145D01*
X723791Y176187D01*
X723820Y176224D01*
X723841Y176286D01*
X723872Y176345D01*
X723880Y176399D01*
X723892Y176436D01*
X723891Y176476D01*
X723899Y176530D01*
X723899Y179070D01*
X723888Y179135D01*
X723886Y179201D01*
X723868Y179244D01*
X723860Y179291D01*
X723826Y179348D01*
X723801Y179408D01*
X723770Y179443D01*
X723745Y179484D01*
X723694Y179526D01*
X723650Y179574D01*
X723608Y179596D01*
X723571Y179625D01*
X723509Y179646D01*
X723450Y179677D01*
X723396Y179685D01*
X723359Y179697D01*
X723319Y179696D01*
X723265Y179704D01*
X719455Y179704D01*
X719390Y179693D01*
X719324Y179691D01*
X719281Y179673D01*
X719234Y179665D01*
X719177Y179631D01*
X719117Y179606D01*
X719082Y179575D01*
X719041Y179550D01*
X719000Y179499D01*
X718951Y179455D01*
X718929Y179413D01*
X718900Y179376D01*
X718879Y179314D01*
X718848Y179255D01*
X718840Y179201D01*
X718828Y179164D01*
X718828Y179161D01*
X718829Y179124D01*
X718821Y179070D01*
X718821Y176530D01*
X718832Y176465D01*
X718834Y176399D01*
X718852Y176356D01*
X718860Y176309D01*
X718894Y176252D01*
X718919Y176192D01*
X718950Y176157D01*
X718975Y176116D01*
X719026Y176075D01*
X719070Y176026D01*
X719112Y176004D01*
X719149Y175975D01*
X719211Y175954D01*
X719270Y175923D01*
X719324Y175915D01*
X719361Y175903D01*
X719401Y175904D01*
X719455Y175896D01*
X723265Y175896D01*
X723330Y175907D01*
G37*
G36*
X205170Y175907D02*
X205170Y175907D01*
X205236Y175909D01*
X205279Y175927D01*
X205326Y175935D01*
X205383Y175969D01*
X205443Y175994D01*
X205478Y176025D01*
X205519Y176050D01*
X205561Y176101D01*
X205609Y176145D01*
X205631Y176187D01*
X205660Y176224D01*
X205681Y176286D01*
X205712Y176345D01*
X205720Y176399D01*
X205732Y176436D01*
X205731Y176476D01*
X205739Y176530D01*
X205739Y179070D01*
X205728Y179135D01*
X205726Y179201D01*
X205708Y179244D01*
X205700Y179291D01*
X205666Y179348D01*
X205641Y179408D01*
X205610Y179443D01*
X205585Y179484D01*
X205534Y179526D01*
X205490Y179574D01*
X205448Y179596D01*
X205411Y179625D01*
X205349Y179646D01*
X205290Y179677D01*
X205236Y179685D01*
X205199Y179697D01*
X205159Y179696D01*
X205105Y179704D01*
X201295Y179704D01*
X201230Y179693D01*
X201164Y179691D01*
X201121Y179673D01*
X201074Y179665D01*
X201017Y179631D01*
X200957Y179606D01*
X200922Y179575D01*
X200881Y179550D01*
X200840Y179499D01*
X200791Y179455D01*
X200769Y179413D01*
X200740Y179376D01*
X200719Y179314D01*
X200688Y179255D01*
X200680Y179201D01*
X200668Y179164D01*
X200668Y179161D01*
X200669Y179124D01*
X200661Y179070D01*
X200661Y176530D01*
X200672Y176465D01*
X200674Y176399D01*
X200692Y176356D01*
X200700Y176309D01*
X200734Y176252D01*
X200759Y176192D01*
X200790Y176157D01*
X200815Y176116D01*
X200866Y176075D01*
X200910Y176026D01*
X200952Y176004D01*
X200989Y175975D01*
X201051Y175954D01*
X201110Y175923D01*
X201164Y175915D01*
X201201Y175903D01*
X201241Y175904D01*
X201295Y175896D01*
X205105Y175896D01*
X205170Y175907D01*
G37*
G36*
X982410Y175907D02*
X982410Y175907D01*
X982476Y175909D01*
X982519Y175927D01*
X982566Y175935D01*
X982623Y175969D01*
X982683Y175994D01*
X982718Y176025D01*
X982759Y176050D01*
X982801Y176101D01*
X982849Y176145D01*
X982871Y176187D01*
X982900Y176224D01*
X982921Y176286D01*
X982952Y176345D01*
X982960Y176399D01*
X982972Y176436D01*
X982971Y176476D01*
X982979Y176530D01*
X982979Y179070D01*
X982968Y179135D01*
X982966Y179201D01*
X982948Y179244D01*
X982940Y179291D01*
X982906Y179348D01*
X982881Y179408D01*
X982850Y179443D01*
X982825Y179484D01*
X982774Y179526D01*
X982730Y179574D01*
X982688Y179596D01*
X982651Y179625D01*
X982589Y179646D01*
X982530Y179677D01*
X982476Y179685D01*
X982439Y179697D01*
X982399Y179696D01*
X982345Y179704D01*
X978535Y179704D01*
X978470Y179693D01*
X978404Y179691D01*
X978361Y179673D01*
X978314Y179665D01*
X978257Y179631D01*
X978197Y179606D01*
X978162Y179575D01*
X978121Y179550D01*
X978080Y179499D01*
X978031Y179455D01*
X978009Y179413D01*
X977980Y179376D01*
X977959Y179314D01*
X977928Y179255D01*
X977920Y179201D01*
X977908Y179164D01*
X977908Y179161D01*
X977909Y179124D01*
X977901Y179070D01*
X977901Y176530D01*
X977912Y176465D01*
X977914Y176399D01*
X977932Y176356D01*
X977940Y176309D01*
X977974Y176252D01*
X977999Y176192D01*
X978030Y176157D01*
X978055Y176116D01*
X978106Y176075D01*
X978150Y176026D01*
X978192Y176004D01*
X978229Y175975D01*
X978291Y175954D01*
X978350Y175923D01*
X978404Y175915D01*
X978441Y175903D01*
X978481Y175904D01*
X978535Y175896D01*
X982345Y175896D01*
X982410Y175907D01*
G37*
G36*
X382970Y175907D02*
X382970Y175907D01*
X383036Y175909D01*
X383079Y175927D01*
X383126Y175935D01*
X383183Y175969D01*
X383243Y175994D01*
X383278Y176025D01*
X383319Y176050D01*
X383361Y176101D01*
X383409Y176145D01*
X383431Y176187D01*
X383460Y176224D01*
X383481Y176286D01*
X383512Y176345D01*
X383520Y176399D01*
X383532Y176436D01*
X383531Y176476D01*
X383539Y176530D01*
X383539Y179070D01*
X383528Y179135D01*
X383526Y179201D01*
X383508Y179244D01*
X383500Y179291D01*
X383466Y179348D01*
X383441Y179408D01*
X383410Y179443D01*
X383385Y179484D01*
X383334Y179526D01*
X383290Y179574D01*
X383248Y179596D01*
X383211Y179625D01*
X383149Y179646D01*
X383090Y179677D01*
X383036Y179685D01*
X382999Y179697D01*
X382959Y179696D01*
X382905Y179704D01*
X379095Y179704D01*
X379030Y179693D01*
X378964Y179691D01*
X378921Y179673D01*
X378874Y179665D01*
X378817Y179631D01*
X378757Y179606D01*
X378722Y179575D01*
X378681Y179550D01*
X378640Y179499D01*
X378591Y179455D01*
X378569Y179413D01*
X378540Y179376D01*
X378519Y179314D01*
X378488Y179255D01*
X378480Y179201D01*
X378468Y179164D01*
X378468Y179161D01*
X378469Y179124D01*
X378461Y179070D01*
X378461Y176530D01*
X378472Y176465D01*
X378474Y176399D01*
X378492Y176356D01*
X378500Y176309D01*
X378534Y176252D01*
X378559Y176192D01*
X378590Y176157D01*
X378615Y176116D01*
X378666Y176075D01*
X378710Y176026D01*
X378752Y176004D01*
X378789Y175975D01*
X378851Y175954D01*
X378910Y175923D01*
X378964Y175915D01*
X379001Y175903D01*
X379041Y175904D01*
X379095Y175896D01*
X382905Y175896D01*
X382970Y175907D01*
G37*
G36*
X337250Y175907D02*
X337250Y175907D01*
X337316Y175909D01*
X337359Y175927D01*
X337406Y175935D01*
X337463Y175969D01*
X337523Y175994D01*
X337558Y176025D01*
X337599Y176050D01*
X337641Y176101D01*
X337689Y176145D01*
X337711Y176187D01*
X337740Y176224D01*
X337761Y176286D01*
X337792Y176345D01*
X337800Y176399D01*
X337812Y176436D01*
X337811Y176476D01*
X337819Y176530D01*
X337819Y179070D01*
X337808Y179135D01*
X337806Y179201D01*
X337788Y179244D01*
X337780Y179291D01*
X337746Y179348D01*
X337721Y179408D01*
X337690Y179443D01*
X337665Y179484D01*
X337614Y179526D01*
X337570Y179574D01*
X337528Y179596D01*
X337491Y179625D01*
X337429Y179646D01*
X337370Y179677D01*
X337316Y179685D01*
X337279Y179697D01*
X337239Y179696D01*
X337185Y179704D01*
X333375Y179704D01*
X333310Y179693D01*
X333244Y179691D01*
X333201Y179673D01*
X333154Y179665D01*
X333097Y179631D01*
X333037Y179606D01*
X333002Y179575D01*
X332961Y179550D01*
X332920Y179499D01*
X332871Y179455D01*
X332849Y179413D01*
X332820Y179376D01*
X332799Y179314D01*
X332768Y179255D01*
X332760Y179201D01*
X332748Y179164D01*
X332748Y179161D01*
X332749Y179124D01*
X332741Y179070D01*
X332741Y176530D01*
X332752Y176465D01*
X332754Y176399D01*
X332772Y176356D01*
X332780Y176309D01*
X332814Y176252D01*
X332839Y176192D01*
X332870Y176157D01*
X332895Y176116D01*
X332946Y176075D01*
X332990Y176026D01*
X333032Y176004D01*
X333069Y175975D01*
X333131Y175954D01*
X333190Y175923D01*
X333244Y175915D01*
X333281Y175903D01*
X333321Y175904D01*
X333375Y175896D01*
X337185Y175896D01*
X337250Y175907D01*
G37*
G36*
X464250Y175907D02*
X464250Y175907D01*
X464316Y175909D01*
X464359Y175927D01*
X464406Y175935D01*
X464463Y175969D01*
X464523Y175994D01*
X464558Y176025D01*
X464599Y176050D01*
X464641Y176101D01*
X464689Y176145D01*
X464711Y176187D01*
X464740Y176224D01*
X464761Y176286D01*
X464792Y176345D01*
X464800Y176399D01*
X464812Y176436D01*
X464811Y176476D01*
X464819Y176530D01*
X464819Y179070D01*
X464808Y179135D01*
X464806Y179201D01*
X464788Y179244D01*
X464780Y179291D01*
X464746Y179348D01*
X464721Y179408D01*
X464690Y179443D01*
X464665Y179484D01*
X464614Y179526D01*
X464570Y179574D01*
X464528Y179596D01*
X464491Y179625D01*
X464429Y179646D01*
X464370Y179677D01*
X464316Y179685D01*
X464279Y179697D01*
X464239Y179696D01*
X464185Y179704D01*
X460375Y179704D01*
X460310Y179693D01*
X460244Y179691D01*
X460201Y179673D01*
X460154Y179665D01*
X460097Y179631D01*
X460037Y179606D01*
X460002Y179575D01*
X459961Y179550D01*
X459920Y179499D01*
X459871Y179455D01*
X459849Y179413D01*
X459820Y179376D01*
X459799Y179314D01*
X459768Y179255D01*
X459760Y179201D01*
X459748Y179164D01*
X459748Y179161D01*
X459749Y179124D01*
X459741Y179070D01*
X459741Y176530D01*
X459752Y176465D01*
X459754Y176399D01*
X459772Y176356D01*
X459780Y176309D01*
X459814Y176252D01*
X459839Y176192D01*
X459870Y176157D01*
X459895Y176116D01*
X459946Y176075D01*
X459990Y176026D01*
X460032Y176004D01*
X460069Y175975D01*
X460131Y175954D01*
X460190Y175923D01*
X460244Y175915D01*
X460281Y175903D01*
X460321Y175904D01*
X460375Y175896D01*
X464185Y175896D01*
X464250Y175907D01*
G37*
G36*
X134050Y175907D02*
X134050Y175907D01*
X134116Y175909D01*
X134159Y175927D01*
X134206Y175935D01*
X134263Y175969D01*
X134323Y175994D01*
X134358Y176025D01*
X134399Y176050D01*
X134441Y176101D01*
X134489Y176145D01*
X134511Y176187D01*
X134540Y176224D01*
X134561Y176286D01*
X134592Y176345D01*
X134600Y176399D01*
X134612Y176436D01*
X134611Y176476D01*
X134619Y176530D01*
X134619Y179070D01*
X134608Y179135D01*
X134606Y179201D01*
X134588Y179244D01*
X134580Y179291D01*
X134546Y179348D01*
X134521Y179408D01*
X134490Y179443D01*
X134465Y179484D01*
X134414Y179526D01*
X134370Y179574D01*
X134328Y179596D01*
X134291Y179625D01*
X134229Y179646D01*
X134170Y179677D01*
X134116Y179685D01*
X134079Y179697D01*
X134039Y179696D01*
X133985Y179704D01*
X130175Y179704D01*
X130110Y179693D01*
X130044Y179691D01*
X130001Y179673D01*
X129954Y179665D01*
X129897Y179631D01*
X129837Y179606D01*
X129802Y179575D01*
X129761Y179550D01*
X129720Y179499D01*
X129671Y179455D01*
X129649Y179413D01*
X129620Y179376D01*
X129599Y179314D01*
X129568Y179255D01*
X129560Y179201D01*
X129548Y179164D01*
X129548Y179161D01*
X129549Y179124D01*
X129541Y179070D01*
X129541Y176530D01*
X129552Y176465D01*
X129554Y176399D01*
X129572Y176356D01*
X129580Y176309D01*
X129614Y176252D01*
X129639Y176192D01*
X129670Y176157D01*
X129695Y176116D01*
X129746Y176075D01*
X129790Y176026D01*
X129832Y176004D01*
X129869Y175975D01*
X129931Y175954D01*
X129990Y175923D01*
X130044Y175915D01*
X130081Y175903D01*
X130121Y175904D01*
X130175Y175896D01*
X133985Y175896D01*
X134050Y175907D01*
G37*
G36*
X596330Y175907D02*
X596330Y175907D01*
X596396Y175909D01*
X596439Y175927D01*
X596486Y175935D01*
X596543Y175969D01*
X596603Y175994D01*
X596638Y176025D01*
X596679Y176050D01*
X596721Y176101D01*
X596769Y176145D01*
X596791Y176187D01*
X596820Y176224D01*
X596841Y176286D01*
X596872Y176345D01*
X596880Y176399D01*
X596892Y176436D01*
X596891Y176476D01*
X596899Y176530D01*
X596899Y179070D01*
X596888Y179135D01*
X596886Y179201D01*
X596868Y179244D01*
X596860Y179291D01*
X596826Y179348D01*
X596801Y179408D01*
X596770Y179443D01*
X596745Y179484D01*
X596694Y179526D01*
X596650Y179574D01*
X596608Y179596D01*
X596571Y179625D01*
X596509Y179646D01*
X596450Y179677D01*
X596396Y179685D01*
X596359Y179697D01*
X596319Y179696D01*
X596265Y179704D01*
X592455Y179704D01*
X592390Y179693D01*
X592324Y179691D01*
X592281Y179673D01*
X592234Y179665D01*
X592177Y179631D01*
X592117Y179606D01*
X592082Y179575D01*
X592041Y179550D01*
X592000Y179499D01*
X591951Y179455D01*
X591929Y179413D01*
X591900Y179376D01*
X591879Y179314D01*
X591848Y179255D01*
X591840Y179201D01*
X591828Y179164D01*
X591828Y179161D01*
X591829Y179124D01*
X591821Y179070D01*
X591821Y176530D01*
X591832Y176465D01*
X591834Y176399D01*
X591852Y176356D01*
X591860Y176309D01*
X591894Y176252D01*
X591919Y176192D01*
X591950Y176157D01*
X591975Y176116D01*
X592026Y176075D01*
X592070Y176026D01*
X592112Y176004D01*
X592149Y175975D01*
X592211Y175954D01*
X592270Y175923D01*
X592324Y175915D01*
X592361Y175903D01*
X592401Y175904D01*
X592455Y175896D01*
X596265Y175896D01*
X596330Y175907D01*
G37*
G36*
X901130Y175907D02*
X901130Y175907D01*
X901196Y175909D01*
X901239Y175927D01*
X901286Y175935D01*
X901343Y175969D01*
X901403Y175994D01*
X901438Y176025D01*
X901479Y176050D01*
X901521Y176101D01*
X901569Y176145D01*
X901591Y176187D01*
X901620Y176224D01*
X901641Y176286D01*
X901672Y176345D01*
X901680Y176399D01*
X901692Y176436D01*
X901691Y176476D01*
X901699Y176530D01*
X901699Y179070D01*
X901688Y179135D01*
X901686Y179201D01*
X901668Y179244D01*
X901660Y179291D01*
X901626Y179348D01*
X901601Y179408D01*
X901570Y179443D01*
X901545Y179484D01*
X901494Y179526D01*
X901450Y179574D01*
X901408Y179596D01*
X901371Y179625D01*
X901309Y179646D01*
X901250Y179677D01*
X901196Y179685D01*
X901159Y179697D01*
X901119Y179696D01*
X901065Y179704D01*
X897255Y179704D01*
X897190Y179693D01*
X897124Y179691D01*
X897081Y179673D01*
X897034Y179665D01*
X896977Y179631D01*
X896917Y179606D01*
X896882Y179575D01*
X896841Y179550D01*
X896800Y179499D01*
X896751Y179455D01*
X896729Y179413D01*
X896700Y179376D01*
X896679Y179314D01*
X896648Y179255D01*
X896640Y179201D01*
X896628Y179164D01*
X896628Y179161D01*
X896629Y179124D01*
X896621Y179070D01*
X896621Y176530D01*
X896632Y176465D01*
X896634Y176399D01*
X896652Y176356D01*
X896660Y176309D01*
X896694Y176252D01*
X896719Y176192D01*
X896750Y176157D01*
X896775Y176116D01*
X896826Y176075D01*
X896870Y176026D01*
X896912Y176004D01*
X896949Y175975D01*
X897011Y175954D01*
X897070Y175923D01*
X897124Y175915D01*
X897161Y175903D01*
X897201Y175904D01*
X897255Y175896D01*
X901065Y175896D01*
X901130Y175907D01*
G37*
G36*
X855410Y175907D02*
X855410Y175907D01*
X855476Y175909D01*
X855519Y175927D01*
X855566Y175935D01*
X855623Y175969D01*
X855683Y175994D01*
X855718Y176025D01*
X855759Y176050D01*
X855801Y176101D01*
X855849Y176145D01*
X855871Y176187D01*
X855900Y176224D01*
X855921Y176286D01*
X855952Y176345D01*
X855960Y176399D01*
X855972Y176436D01*
X855971Y176476D01*
X855979Y176530D01*
X855979Y179070D01*
X855968Y179135D01*
X855966Y179201D01*
X855948Y179244D01*
X855940Y179291D01*
X855906Y179348D01*
X855881Y179408D01*
X855850Y179443D01*
X855825Y179484D01*
X855774Y179526D01*
X855730Y179574D01*
X855688Y179596D01*
X855651Y179625D01*
X855589Y179646D01*
X855530Y179677D01*
X855476Y179685D01*
X855439Y179697D01*
X855399Y179696D01*
X855345Y179704D01*
X851535Y179704D01*
X851470Y179693D01*
X851404Y179691D01*
X851361Y179673D01*
X851314Y179665D01*
X851257Y179631D01*
X851197Y179606D01*
X851162Y179575D01*
X851121Y179550D01*
X851080Y179499D01*
X851031Y179455D01*
X851009Y179413D01*
X850980Y179376D01*
X850959Y179314D01*
X850928Y179255D01*
X850920Y179201D01*
X850908Y179164D01*
X850908Y179161D01*
X850909Y179124D01*
X850901Y179070D01*
X850901Y176530D01*
X850912Y176465D01*
X850914Y176399D01*
X850932Y176356D01*
X850940Y176309D01*
X850974Y176252D01*
X850999Y176192D01*
X851030Y176157D01*
X851055Y176116D01*
X851106Y176075D01*
X851150Y176026D01*
X851192Y176004D01*
X851229Y175975D01*
X851291Y175954D01*
X851350Y175923D01*
X851404Y175915D01*
X851441Y175903D01*
X851481Y175904D01*
X851535Y175896D01*
X855345Y175896D01*
X855410Y175907D01*
G37*
G36*
X393130Y175907D02*
X393130Y175907D01*
X393196Y175909D01*
X393239Y175927D01*
X393286Y175935D01*
X393343Y175969D01*
X393403Y175994D01*
X393438Y176025D01*
X393479Y176050D01*
X393521Y176101D01*
X393569Y176145D01*
X393591Y176187D01*
X393620Y176224D01*
X393641Y176286D01*
X393672Y176345D01*
X393680Y176399D01*
X393692Y176436D01*
X393691Y176476D01*
X393699Y176530D01*
X393699Y179070D01*
X393688Y179135D01*
X393686Y179201D01*
X393668Y179244D01*
X393660Y179291D01*
X393626Y179348D01*
X393601Y179408D01*
X393570Y179443D01*
X393545Y179484D01*
X393494Y179526D01*
X393450Y179574D01*
X393408Y179596D01*
X393371Y179625D01*
X393309Y179646D01*
X393250Y179677D01*
X393196Y179685D01*
X393159Y179697D01*
X393119Y179696D01*
X393065Y179704D01*
X389255Y179704D01*
X389190Y179693D01*
X389124Y179691D01*
X389081Y179673D01*
X389034Y179665D01*
X388977Y179631D01*
X388917Y179606D01*
X388882Y179575D01*
X388841Y179550D01*
X388800Y179499D01*
X388751Y179455D01*
X388729Y179413D01*
X388700Y179376D01*
X388679Y179314D01*
X388648Y179255D01*
X388640Y179201D01*
X388628Y179164D01*
X388628Y179161D01*
X388629Y179124D01*
X388621Y179070D01*
X388621Y176530D01*
X388632Y176465D01*
X388634Y176399D01*
X388652Y176356D01*
X388660Y176309D01*
X388694Y176252D01*
X388719Y176192D01*
X388750Y176157D01*
X388775Y176116D01*
X388826Y176075D01*
X388870Y176026D01*
X388912Y176004D01*
X388949Y175975D01*
X389011Y175954D01*
X389070Y175923D01*
X389124Y175915D01*
X389161Y175903D01*
X389201Y175904D01*
X389255Y175896D01*
X393065Y175896D01*
X393130Y175907D01*
G37*
G36*
X652210Y175907D02*
X652210Y175907D01*
X652276Y175909D01*
X652319Y175927D01*
X652366Y175935D01*
X652423Y175969D01*
X652483Y175994D01*
X652518Y176025D01*
X652559Y176050D01*
X652601Y176101D01*
X652649Y176145D01*
X652671Y176187D01*
X652700Y176224D01*
X652721Y176286D01*
X652752Y176345D01*
X652760Y176399D01*
X652772Y176436D01*
X652771Y176476D01*
X652779Y176530D01*
X652779Y179070D01*
X652768Y179135D01*
X652766Y179201D01*
X652748Y179244D01*
X652740Y179291D01*
X652706Y179348D01*
X652681Y179408D01*
X652650Y179443D01*
X652625Y179484D01*
X652574Y179526D01*
X652530Y179574D01*
X652488Y179596D01*
X652451Y179625D01*
X652389Y179646D01*
X652330Y179677D01*
X652276Y179685D01*
X652239Y179697D01*
X652199Y179696D01*
X652145Y179704D01*
X648335Y179704D01*
X648270Y179693D01*
X648204Y179691D01*
X648161Y179673D01*
X648114Y179665D01*
X648057Y179631D01*
X647997Y179606D01*
X647962Y179575D01*
X647921Y179550D01*
X647880Y179499D01*
X647831Y179455D01*
X647809Y179413D01*
X647780Y179376D01*
X647759Y179314D01*
X647728Y179255D01*
X647720Y179201D01*
X647708Y179164D01*
X647708Y179161D01*
X647709Y179124D01*
X647701Y179070D01*
X647701Y176530D01*
X647712Y176465D01*
X647714Y176399D01*
X647732Y176356D01*
X647740Y176309D01*
X647774Y176252D01*
X647799Y176192D01*
X647830Y176157D01*
X647855Y176116D01*
X647906Y176075D01*
X647950Y176026D01*
X647992Y176004D01*
X648029Y175975D01*
X648091Y175954D01*
X648150Y175923D01*
X648204Y175915D01*
X648241Y175903D01*
X648281Y175904D01*
X648335Y175896D01*
X652145Y175896D01*
X652210Y175907D01*
G37*
G36*
X642050Y175907D02*
X642050Y175907D01*
X642116Y175909D01*
X642159Y175927D01*
X642206Y175935D01*
X642263Y175969D01*
X642323Y175994D01*
X642358Y176025D01*
X642399Y176050D01*
X642441Y176101D01*
X642489Y176145D01*
X642511Y176187D01*
X642540Y176224D01*
X642561Y176286D01*
X642592Y176345D01*
X642600Y176399D01*
X642612Y176436D01*
X642611Y176476D01*
X642619Y176530D01*
X642619Y179070D01*
X642608Y179135D01*
X642606Y179201D01*
X642588Y179244D01*
X642580Y179291D01*
X642546Y179348D01*
X642521Y179408D01*
X642490Y179443D01*
X642465Y179484D01*
X642414Y179526D01*
X642370Y179574D01*
X642328Y179596D01*
X642291Y179625D01*
X642229Y179646D01*
X642170Y179677D01*
X642116Y179685D01*
X642079Y179697D01*
X642039Y179696D01*
X641985Y179704D01*
X638175Y179704D01*
X638110Y179693D01*
X638044Y179691D01*
X638001Y179673D01*
X637954Y179665D01*
X637897Y179631D01*
X637837Y179606D01*
X637802Y179575D01*
X637761Y179550D01*
X637720Y179499D01*
X637671Y179455D01*
X637649Y179413D01*
X637620Y179376D01*
X637599Y179314D01*
X637568Y179255D01*
X637560Y179201D01*
X637548Y179164D01*
X637548Y179161D01*
X637549Y179124D01*
X637541Y179070D01*
X637541Y176530D01*
X637552Y176465D01*
X637554Y176399D01*
X637572Y176356D01*
X637580Y176309D01*
X637614Y176252D01*
X637639Y176192D01*
X637670Y176157D01*
X637695Y176116D01*
X637746Y176075D01*
X637790Y176026D01*
X637832Y176004D01*
X637869Y175975D01*
X637931Y175954D01*
X637990Y175923D01*
X638044Y175915D01*
X638081Y175903D01*
X638121Y175904D01*
X638175Y175896D01*
X641985Y175896D01*
X642050Y175907D01*
G37*
G36*
X123890Y175907D02*
X123890Y175907D01*
X123956Y175909D01*
X123999Y175927D01*
X124046Y175935D01*
X124103Y175969D01*
X124163Y175994D01*
X124198Y176025D01*
X124239Y176050D01*
X124281Y176101D01*
X124329Y176145D01*
X124351Y176187D01*
X124380Y176224D01*
X124401Y176286D01*
X124432Y176345D01*
X124440Y176399D01*
X124452Y176436D01*
X124451Y176476D01*
X124459Y176530D01*
X124459Y179070D01*
X124448Y179135D01*
X124446Y179201D01*
X124428Y179244D01*
X124420Y179291D01*
X124386Y179348D01*
X124361Y179408D01*
X124330Y179443D01*
X124305Y179484D01*
X124254Y179526D01*
X124210Y179574D01*
X124168Y179596D01*
X124131Y179625D01*
X124069Y179646D01*
X124010Y179677D01*
X123956Y179685D01*
X123919Y179697D01*
X123879Y179696D01*
X123825Y179704D01*
X120015Y179704D01*
X119950Y179693D01*
X119884Y179691D01*
X119841Y179673D01*
X119794Y179665D01*
X119737Y179631D01*
X119677Y179606D01*
X119642Y179575D01*
X119601Y179550D01*
X119560Y179499D01*
X119511Y179455D01*
X119489Y179413D01*
X119460Y179376D01*
X119439Y179314D01*
X119408Y179255D01*
X119400Y179201D01*
X119388Y179164D01*
X119388Y179161D01*
X119389Y179124D01*
X119381Y179070D01*
X119381Y176530D01*
X119392Y176465D01*
X119394Y176399D01*
X119412Y176356D01*
X119420Y176309D01*
X119454Y176252D01*
X119479Y176192D01*
X119510Y176157D01*
X119535Y176116D01*
X119586Y176075D01*
X119630Y176026D01*
X119672Y176004D01*
X119709Y175975D01*
X119771Y175954D01*
X119830Y175923D01*
X119884Y175915D01*
X119921Y175903D01*
X119961Y175904D01*
X120015Y175896D01*
X123825Y175896D01*
X123890Y175907D01*
G37*
G36*
X78170Y175907D02*
X78170Y175907D01*
X78236Y175909D01*
X78279Y175927D01*
X78326Y175935D01*
X78383Y175969D01*
X78443Y175994D01*
X78478Y176025D01*
X78519Y176050D01*
X78561Y176101D01*
X78609Y176145D01*
X78631Y176187D01*
X78660Y176224D01*
X78681Y176286D01*
X78712Y176345D01*
X78720Y176399D01*
X78732Y176436D01*
X78731Y176476D01*
X78739Y176530D01*
X78739Y179070D01*
X78728Y179135D01*
X78726Y179201D01*
X78708Y179244D01*
X78700Y179291D01*
X78666Y179348D01*
X78641Y179408D01*
X78610Y179443D01*
X78585Y179484D01*
X78534Y179526D01*
X78490Y179574D01*
X78448Y179596D01*
X78411Y179625D01*
X78349Y179646D01*
X78290Y179677D01*
X78236Y179685D01*
X78199Y179697D01*
X78159Y179696D01*
X78105Y179704D01*
X74295Y179704D01*
X74230Y179693D01*
X74164Y179691D01*
X74121Y179673D01*
X74074Y179665D01*
X74017Y179631D01*
X73957Y179606D01*
X73922Y179575D01*
X73881Y179550D01*
X73840Y179499D01*
X73791Y179455D01*
X73769Y179413D01*
X73740Y179376D01*
X73719Y179314D01*
X73688Y179255D01*
X73680Y179201D01*
X73668Y179164D01*
X73668Y179161D01*
X73669Y179124D01*
X73661Y179070D01*
X73661Y176530D01*
X73672Y176465D01*
X73674Y176399D01*
X73692Y176356D01*
X73700Y176309D01*
X73734Y176252D01*
X73759Y176192D01*
X73790Y176157D01*
X73815Y176116D01*
X73866Y176075D01*
X73910Y176026D01*
X73952Y176004D01*
X73989Y175975D01*
X74051Y175954D01*
X74110Y175923D01*
X74164Y175915D01*
X74201Y175903D01*
X74241Y175904D01*
X74295Y175896D01*
X78105Y175896D01*
X78170Y175907D01*
G37*
D10*
X25400Y228600D03*
X228600Y228600D03*
X228600Y25400D03*
X25400Y25400D03*
D11*
X177800Y241300D03*
X152400Y241300D03*
X127000Y241300D03*
X101600Y241300D03*
X76200Y241300D03*
D12*
X81407Y177800D03*
X70993Y177800D03*
X137414Y177800D03*
X127000Y177800D03*
X116586Y177800D03*
D13*
X7620Y246380D03*
X246380Y7620D03*
D12*
X197993Y177800D03*
X208407Y177800D03*
D11*
X63500Y12700D03*
X88900Y12700D03*
X114300Y12700D03*
X139700Y12700D03*
X165100Y12700D03*
X190500Y12700D03*
D10*
X284480Y228600D03*
X487680Y228600D03*
X487680Y25400D03*
X284480Y25400D03*
D11*
X436880Y241300D03*
X411480Y241300D03*
X386080Y241300D03*
X360680Y241300D03*
X335280Y241300D03*
D12*
X340487Y177800D03*
X330073Y177800D03*
X396494Y177800D03*
X386080Y177800D03*
X375666Y177800D03*
D13*
X266700Y246380D03*
X505460Y7620D03*
D12*
X457073Y177800D03*
X467487Y177800D03*
D11*
X322580Y12700D03*
X347980Y12700D03*
X373380Y12700D03*
X398780Y12700D03*
X424180Y12700D03*
X449580Y12700D03*
D10*
X543560Y228600D03*
X746760Y228600D03*
X746760Y25400D03*
X543560Y25400D03*
D11*
X695960Y241300D03*
X670560Y241300D03*
X645160Y241300D03*
X619760Y241300D03*
X594360Y241300D03*
D12*
X599567Y177800D03*
X589153Y177800D03*
X655574Y177800D03*
X645160Y177800D03*
X634746Y177800D03*
D13*
X525780Y246380D03*
X764540Y7620D03*
D12*
X716153Y177800D03*
X726567Y177800D03*
D11*
X581660Y12700D03*
X607060Y12700D03*
X632460Y12700D03*
X657860Y12700D03*
X683260Y12700D03*
X708660Y12700D03*
D10*
X802640Y228600D03*
X1005840Y228600D03*
X1005840Y25400D03*
X802640Y25400D03*
D11*
X955040Y241300D03*
X929640Y241300D03*
X904240Y241300D03*
X878840Y241300D03*
X853440Y241300D03*
D12*
X858647Y177800D03*
X848233Y177800D03*
X914654Y177800D03*
X904240Y177800D03*
X893826Y177800D03*
D13*
X784860Y246380D03*
X1023620Y7620D03*
D12*
X975233Y177800D03*
X985647Y177800D03*
D11*
X840740Y12700D03*
X866140Y12700D03*
X891540Y12700D03*
X916940Y12700D03*
X942340Y12700D03*
X967740Y12700D03*
D10*
X25400Y487680D03*
X228600Y487680D03*
X228600Y284480D03*
X25400Y284480D03*
D11*
X177800Y500380D03*
X152400Y500380D03*
X127000Y500380D03*
X101600Y500380D03*
X76200Y500380D03*
D12*
X81407Y436880D03*
X70993Y436880D03*
X137414Y436880D03*
X127000Y436880D03*
X116586Y436880D03*
D13*
X7620Y505460D03*
X246380Y266700D03*
D12*
X197993Y436880D03*
X208407Y436880D03*
D11*
X63500Y271780D03*
X88900Y271780D03*
X114300Y271780D03*
X139700Y271780D03*
X165100Y271780D03*
X190500Y271780D03*
D10*
X284480Y487680D03*
X487680Y487680D03*
X487680Y284480D03*
X284480Y284480D03*
D11*
X436880Y500380D03*
X411480Y500380D03*
X386080Y500380D03*
X360680Y500380D03*
X335280Y500380D03*
D12*
X340487Y436880D03*
X330073Y436880D03*
X396494Y436880D03*
X386080Y436880D03*
X375666Y436880D03*
D13*
X266700Y505460D03*
X505460Y266700D03*
D12*
X457073Y436880D03*
X467487Y436880D03*
D11*
X322580Y271780D03*
X347980Y271780D03*
X373380Y271780D03*
X398780Y271780D03*
X424180Y271780D03*
X449580Y271780D03*
D10*
X543560Y487680D03*
X746760Y487680D03*
X746760Y284480D03*
X543560Y284480D03*
D11*
X695960Y500380D03*
X670560Y500380D03*
X645160Y500380D03*
X619760Y500380D03*
X594360Y500380D03*
D12*
X599567Y436880D03*
X589153Y436880D03*
X655574Y436880D03*
X645160Y436880D03*
X634746Y436880D03*
D13*
X525780Y505460D03*
X764540Y266700D03*
D12*
X716153Y436880D03*
X726567Y436880D03*
D11*
X581660Y271780D03*
X607060Y271780D03*
X632460Y271780D03*
X657860Y271780D03*
X683260Y271780D03*
X708660Y271780D03*
D10*
X802640Y487680D03*
X1005840Y487680D03*
X1005840Y284480D03*
X802640Y284480D03*
D11*
X955040Y500380D03*
X929640Y500380D03*
X904240Y500380D03*
X878840Y500380D03*
X853440Y500380D03*
D12*
X858647Y436880D03*
X848233Y436880D03*
X914654Y436880D03*
X904240Y436880D03*
X893826Y436880D03*
D13*
X784860Y505460D03*
X1023620Y266700D03*
D12*
X975233Y436880D03*
X985647Y436880D03*
D11*
X840740Y271780D03*
X866140Y271780D03*
X891540Y271780D03*
X916940Y271780D03*
X942340Y271780D03*
X967740Y271780D03*
D10*
X25400Y746760D03*
X228600Y746760D03*
X228600Y543560D03*
X25400Y543560D03*
D11*
X177800Y759460D03*
X152400Y759460D03*
X127000Y759460D03*
X101600Y759460D03*
X76200Y759460D03*
D12*
X81407Y695960D03*
X70993Y695960D03*
X137414Y695960D03*
X127000Y695960D03*
X116586Y695960D03*
D13*
X7620Y764540D03*
X246380Y525780D03*
D12*
X197993Y695960D03*
X208407Y695960D03*
D11*
X63500Y530860D03*
X88900Y530860D03*
X114300Y530860D03*
X139700Y530860D03*
X165100Y530860D03*
X190500Y530860D03*
D10*
X284480Y746760D03*
X487680Y746760D03*
X487680Y543560D03*
X284480Y543560D03*
D11*
X436880Y759460D03*
X411480Y759460D03*
X386080Y759460D03*
X360680Y759460D03*
X335280Y759460D03*
D12*
X340487Y695960D03*
X330073Y695960D03*
X396494Y695960D03*
X386080Y695960D03*
X375666Y695960D03*
D13*
X266700Y764540D03*
X505460Y525780D03*
D12*
X457073Y695960D03*
X467487Y695960D03*
D11*
X322580Y530860D03*
X347980Y530860D03*
X373380Y530860D03*
X398780Y530860D03*
X424180Y530860D03*
X449580Y530860D03*
D10*
X543560Y746760D03*
X746760Y746760D03*
X746760Y543560D03*
X543560Y543560D03*
D11*
X695960Y759460D03*
X670560Y759460D03*
X645160Y759460D03*
X619760Y759460D03*
X594360Y759460D03*
D12*
X599567Y695960D03*
X589153Y695960D03*
X655574Y695960D03*
X645160Y695960D03*
X634746Y695960D03*
D13*
X525780Y764540D03*
X764540Y525780D03*
D12*
X716153Y695960D03*
X726567Y695960D03*
D11*
X581660Y530860D03*
X607060Y530860D03*
X632460Y530860D03*
X657860Y530860D03*
X683260Y530860D03*
X708660Y530860D03*
D10*
X802640Y746760D03*
X1005840Y746760D03*
X1005840Y543560D03*
X802640Y543560D03*
D11*
X955040Y759460D03*
X929640Y759460D03*
X904240Y759460D03*
X878840Y759460D03*
X853440Y759460D03*
D12*
X858647Y695960D03*
X848233Y695960D03*
X914654Y695960D03*
X904240Y695960D03*
X893826Y695960D03*
D13*
X784860Y764540D03*
X1023620Y525780D03*
D12*
X975233Y695960D03*
X985647Y695960D03*
D11*
X840740Y530860D03*
X866140Y530860D03*
X891540Y530860D03*
X916940Y530860D03*
X942340Y530860D03*
X967740Y530860D03*
D10*
X25400Y1005840D03*
X228600Y1005840D03*
X228600Y802640D03*
X25400Y802640D03*
D11*
X177800Y1018540D03*
X152400Y1018540D03*
X127000Y1018540D03*
X101600Y1018540D03*
X76200Y1018540D03*
D12*
X81407Y955040D03*
X70993Y955040D03*
X137414Y955040D03*
X127000Y955040D03*
X116586Y955040D03*
D13*
X7620Y1023620D03*
X246380Y784860D03*
D12*
X197993Y955040D03*
X208407Y955040D03*
D11*
X63500Y789940D03*
X88900Y789940D03*
X114300Y789940D03*
X139700Y789940D03*
X165100Y789940D03*
X190500Y789940D03*
D10*
X284480Y1005840D03*
X487680Y1005840D03*
X487680Y802640D03*
X284480Y802640D03*
D11*
X436880Y1018540D03*
X411480Y1018540D03*
X386080Y1018540D03*
X360680Y1018540D03*
X335280Y1018540D03*
D12*
X340487Y955040D03*
X330073Y955040D03*
X396494Y955040D03*
X386080Y955040D03*
X375666Y955040D03*
D13*
X266700Y1023620D03*
X505460Y784860D03*
D12*
X457073Y955040D03*
X467487Y955040D03*
D11*
X322580Y789940D03*
X347980Y789940D03*
X373380Y789940D03*
X398780Y789940D03*
X424180Y789940D03*
X449580Y789940D03*
D10*
X543560Y1005840D03*
X746760Y1005840D03*
X746760Y802640D03*
X543560Y802640D03*
D11*
X695960Y1018540D03*
X670560Y1018540D03*
X645160Y1018540D03*
X619760Y1018540D03*
X594360Y1018540D03*
D12*
X599567Y955040D03*
X589153Y955040D03*
X655574Y955040D03*
X645160Y955040D03*
X634746Y955040D03*
D13*
X525780Y1023620D03*
X764540Y784860D03*
D12*
X716153Y955040D03*
X726567Y955040D03*
D11*
X581660Y789940D03*
X607060Y789940D03*
X632460Y789940D03*
X657860Y789940D03*
X683260Y789940D03*
X708660Y789940D03*
D10*
X802640Y1005840D03*
X1005840Y1005840D03*
X1005840Y802640D03*
X802640Y802640D03*
D11*
X955040Y1018540D03*
X929640Y1018540D03*
X904240Y1018540D03*
X878840Y1018540D03*
X853440Y1018540D03*
D12*
X858647Y955040D03*
X848233Y955040D03*
X914654Y955040D03*
X904240Y955040D03*
X893826Y955040D03*
D13*
X784860Y1023620D03*
X1023620Y784860D03*
D12*
X975233Y955040D03*
X985647Y955040D03*
D11*
X840740Y789940D03*
X866140Y789940D03*
X891540Y789940D03*
X916940Y789940D03*
X942340Y789940D03*
X967740Y789940D03*
D13*
X-26238Y1004570D03*
X1057478Y1004570D03*
D14*
X-35293Y63500D02*
X-35290Y63722D01*
X-35282Y63944D01*
X-35268Y64166D01*
X-35249Y64388D01*
X-35225Y64608D01*
X-35195Y64829D01*
X-35160Y65048D01*
X-35119Y65267D01*
X-35073Y65484D01*
X-35022Y65700D01*
X-34965Y65915D01*
X-34903Y66129D01*
X-34836Y66340D01*
X-34764Y66551D01*
X-34686Y66759D01*
X-34604Y66965D01*
X-34516Y67169D01*
X-34424Y67372D01*
X-34326Y67571D01*
X-34224Y67768D01*
X-34117Y67963D01*
X-34005Y68155D01*
X-33888Y68344D01*
X-33767Y68531D01*
X-33641Y68714D01*
X-33511Y68894D01*
X-33376Y69071D01*
X-33238Y69244D01*
X-33095Y69414D01*
X-32947Y69581D01*
X-32796Y69744D01*
X-32641Y69903D01*
X-32482Y70058D01*
X-32319Y70209D01*
X-32152Y70357D01*
X-31982Y70500D01*
X-31809Y70638D01*
X-31632Y70773D01*
X-31452Y70903D01*
X-31269Y71029D01*
X-31082Y71150D01*
X-30893Y71267D01*
X-30701Y71379D01*
X-30506Y71486D01*
X-30309Y71588D01*
X-30110Y71686D01*
X-29907Y71778D01*
X-29703Y71866D01*
X-29497Y71948D01*
X-29289Y72026D01*
X-29078Y72098D01*
X-28867Y72165D01*
X-28653Y72227D01*
X-28438Y72284D01*
X-28222Y72335D01*
X-28005Y72381D01*
X-27786Y72422D01*
X-27567Y72457D01*
X-27346Y72487D01*
X-27126Y72511D01*
X-26904Y72530D01*
X-26682Y72544D01*
X-26460Y72552D01*
X-26238Y72555D01*
X-26016Y72552D01*
X-25794Y72544D01*
X-25572Y72530D01*
X-25350Y72511D01*
X-25130Y72487D01*
X-24909Y72457D01*
X-24690Y72422D01*
X-24471Y72381D01*
X-24254Y72335D01*
X-24038Y72284D01*
X-23823Y72227D01*
X-23609Y72165D01*
X-23398Y72098D01*
X-23187Y72026D01*
X-22979Y71948D01*
X-22773Y71866D01*
X-22569Y71778D01*
X-22366Y71686D01*
X-22167Y71588D01*
X-21970Y71486D01*
X-21775Y71379D01*
X-21583Y71267D01*
X-21394Y71150D01*
X-21207Y71029D01*
X-21024Y70903D01*
X-20844Y70773D01*
X-20667Y70638D01*
X-20494Y70500D01*
X-20324Y70357D01*
X-20157Y70209D01*
X-19994Y70058D01*
X-19835Y69903D01*
X-19680Y69744D01*
X-19529Y69581D01*
X-19381Y69414D01*
X-19238Y69244D01*
X-19100Y69071D01*
X-18965Y68894D01*
X-18835Y68714D01*
X-18709Y68531D01*
X-18588Y68344D01*
X-18471Y68155D01*
X-18359Y67963D01*
X-18252Y67768D01*
X-18150Y67571D01*
X-18052Y67372D01*
X-17960Y67169D01*
X-17872Y66965D01*
X-17790Y66759D01*
X-17712Y66551D01*
X-17640Y66340D01*
X-17573Y66129D01*
X-17511Y65915D01*
X-17454Y65700D01*
X-17403Y65484D01*
X-17357Y65267D01*
X-17316Y65048D01*
X-17281Y64829D01*
X-17251Y64608D01*
X-17227Y64388D01*
X-17208Y64166D01*
X-17194Y63944D01*
X-17186Y63722D01*
X-17183Y63500D01*
X-17186Y63278D01*
X-17194Y63056D01*
X-17208Y62834D01*
X-17227Y62612D01*
X-17251Y62392D01*
X-17281Y62171D01*
X-17316Y61952D01*
X-17357Y61733D01*
X-17403Y61516D01*
X-17454Y61300D01*
X-17511Y61085D01*
X-17573Y60871D01*
X-17640Y60660D01*
X-17712Y60449D01*
X-17790Y60241D01*
X-17872Y60035D01*
X-17960Y59831D01*
X-18052Y59628D01*
X-18150Y59429D01*
X-18252Y59232D01*
X-18359Y59037D01*
X-18471Y58845D01*
X-18588Y58656D01*
X-18709Y58469D01*
X-18835Y58286D01*
X-18965Y58106D01*
X-19100Y57929D01*
X-19238Y57756D01*
X-19381Y57586D01*
X-19529Y57419D01*
X-19680Y57256D01*
X-19835Y57097D01*
X-19994Y56942D01*
X-20157Y56791D01*
X-20324Y56643D01*
X-20494Y56500D01*
X-20667Y56362D01*
X-20844Y56227D01*
X-21024Y56097D01*
X-21207Y55971D01*
X-21394Y55850D01*
X-21583Y55733D01*
X-21775Y55621D01*
X-21970Y55514D01*
X-22167Y55412D01*
X-22366Y55314D01*
X-22569Y55222D01*
X-22773Y55134D01*
X-22979Y55052D01*
X-23187Y54974D01*
X-23398Y54902D01*
X-23609Y54835D01*
X-23823Y54773D01*
X-24038Y54716D01*
X-24254Y54665D01*
X-24471Y54619D01*
X-24690Y54578D01*
X-24909Y54543D01*
X-25130Y54513D01*
X-25350Y54489D01*
X-25572Y54470D01*
X-25794Y54456D01*
X-26016Y54448D01*
X-26238Y54445D01*
X-26460Y54448D01*
X-26682Y54456D01*
X-26904Y54470D01*
X-27126Y54489D01*
X-27346Y54513D01*
X-27567Y54543D01*
X-27786Y54578D01*
X-28005Y54619D01*
X-28222Y54665D01*
X-28438Y54716D01*
X-28653Y54773D01*
X-28867Y54835D01*
X-29078Y54902D01*
X-29289Y54974D01*
X-29497Y55052D01*
X-29703Y55134D01*
X-29907Y55222D01*
X-30110Y55314D01*
X-30309Y55412D01*
X-30506Y55514D01*
X-30701Y55621D01*
X-30893Y55733D01*
X-31082Y55850D01*
X-31269Y55971D01*
X-31452Y56097D01*
X-31632Y56227D01*
X-31809Y56362D01*
X-31982Y56500D01*
X-32152Y56643D01*
X-32319Y56791D01*
X-32482Y56942D01*
X-32641Y57097D01*
X-32796Y57256D01*
X-32947Y57419D01*
X-33095Y57586D01*
X-33238Y57756D01*
X-33376Y57929D01*
X-33511Y58106D01*
X-33641Y58286D01*
X-33767Y58469D01*
X-33888Y58656D01*
X-34005Y58845D01*
X-34117Y59037D01*
X-34224Y59232D01*
X-34326Y59429D01*
X-34424Y59628D01*
X-34516Y59831D01*
X-34604Y60035D01*
X-34686Y60241D01*
X-34764Y60449D01*
X-34836Y60660D01*
X-34903Y60871D01*
X-34965Y61085D01*
X-35022Y61300D01*
X-35073Y61516D01*
X-35119Y61733D01*
X-35160Y61952D01*
X-35195Y62171D01*
X-35225Y62392D01*
X-35249Y62612D01*
X-35268Y62834D01*
X-35282Y63056D01*
X-35290Y63278D01*
X-35293Y63500D01*
D15*
X-26238Y63500D03*
M02*
