G04 EAGLE Gerber RS-274X export*
G75*
%MOMM*%
%FSLAX34Y34*%
%LPD*%
%INSoldermask Top*%
%IPPOS*%
%AMOC8*
5,1,8,0,0,1.08239X$1,22.5*%
G01*
%ADD10R,1.203200X1.303200*%
%ADD11C,0.505344*%
%ADD12C,1.203200*%
%ADD13C,3.505200*%
%ADD14R,2.203200X1.403200*%
%ADD15R,1.553200X0.803200*%
%ADD16C,2.082800*%
%ADD17C,0.427719*%
%ADD18C,1.270000*%
%ADD19C,1.703200*%


D10*
X177800Y186300D03*
X177800Y169300D03*
X127000Y169300D03*
X127000Y186300D03*
D11*
X199710Y70920D02*
X206690Y70920D01*
X206690Y63940D01*
X199710Y63940D01*
X199710Y70920D01*
X199710Y68740D02*
X206690Y68740D01*
X206690Y88460D02*
X199710Y88460D01*
X206690Y88460D02*
X206690Y81480D01*
X199710Y81480D01*
X199710Y88460D01*
X199710Y86280D02*
X206690Y86280D01*
D12*
X246380Y7620D03*
X7620Y246380D03*
D13*
X25400Y228600D03*
X228600Y228600D03*
X228600Y25400D03*
X25400Y25400D03*
D14*
X239950Y99000D03*
X239950Y155000D03*
D15*
X203200Y112000D03*
X203200Y122000D03*
X203200Y132000D03*
X203200Y142000D03*
D14*
X14050Y155000D03*
X14050Y99000D03*
D15*
X50800Y142000D03*
X50800Y132000D03*
X50800Y122000D03*
X50800Y112000D03*
D16*
X177800Y241300D03*
X152400Y241300D03*
X127000Y241300D03*
X101600Y241300D03*
X76200Y241300D03*
D10*
X177800Y84700D03*
X177800Y67700D03*
D17*
X119082Y108892D02*
X119082Y115148D01*
X119838Y115148D01*
X119838Y108892D01*
X119082Y108892D01*
X119082Y112955D02*
X119838Y112955D01*
X124082Y115148D02*
X124082Y108892D01*
X124082Y115148D02*
X124838Y115148D01*
X124838Y108892D01*
X124082Y108892D01*
X124082Y112955D02*
X124838Y112955D01*
X129082Y115148D02*
X129082Y108892D01*
X129082Y115148D02*
X129838Y115148D01*
X129838Y108892D01*
X129082Y108892D01*
X129082Y112955D02*
X129838Y112955D01*
X134082Y115148D02*
X134082Y108892D01*
X134082Y115148D02*
X134838Y115148D01*
X134838Y108892D01*
X134082Y108892D01*
X134082Y112955D02*
X134838Y112955D01*
X138952Y119918D02*
X145208Y119918D01*
X145208Y119162D01*
X138952Y119162D01*
X138952Y119918D01*
X138952Y124918D02*
X145208Y124918D01*
X145208Y124162D01*
X138952Y124162D01*
X138952Y124918D01*
X138952Y129918D02*
X145208Y129918D01*
X145208Y129162D01*
X138952Y129162D01*
X138952Y129918D01*
X138952Y134918D02*
X145208Y134918D01*
X145208Y134162D01*
X138952Y134162D01*
X138952Y134918D01*
X134838Y138932D02*
X134838Y145188D01*
X134838Y138932D02*
X134082Y138932D01*
X134082Y145188D01*
X134838Y145188D01*
X134838Y142995D02*
X134082Y142995D01*
X129838Y145188D02*
X129838Y138932D01*
X129082Y138932D01*
X129082Y145188D01*
X129838Y145188D01*
X129838Y142995D02*
X129082Y142995D01*
X124838Y145188D02*
X124838Y138932D01*
X124082Y138932D01*
X124082Y145188D01*
X124838Y145188D01*
X124838Y142995D02*
X124082Y142995D01*
X119838Y145188D02*
X119838Y138932D01*
X119082Y138932D01*
X119082Y145188D01*
X119838Y145188D01*
X119838Y142995D02*
X119082Y142995D01*
X115168Y134262D02*
X108912Y134262D01*
X108912Y135018D01*
X115168Y135018D01*
X115168Y134262D01*
X115168Y129262D02*
X108912Y129262D01*
X108912Y130018D01*
X115168Y130018D01*
X115168Y129262D01*
X115168Y124262D02*
X108912Y124262D01*
X108912Y125018D01*
X115168Y125018D01*
X115168Y124262D01*
X115168Y119262D02*
X108912Y119262D01*
X108912Y120018D01*
X115168Y120018D01*
X115168Y119262D01*
D10*
X76200Y186300D03*
X76200Y169300D03*
X101600Y169300D03*
X101600Y186300D03*
X441808Y186300D03*
X441808Y169300D03*
X391008Y169300D03*
X391008Y186300D03*
D11*
X463718Y70920D02*
X470698Y70920D01*
X470698Y63940D01*
X463718Y63940D01*
X463718Y70920D01*
X463718Y68740D02*
X470698Y68740D01*
X470698Y88460D02*
X463718Y88460D01*
X470698Y88460D02*
X470698Y81480D01*
X463718Y81480D01*
X463718Y88460D01*
X463718Y86280D02*
X470698Y86280D01*
D12*
X510388Y7620D03*
X271628Y246380D03*
D13*
X289408Y228600D03*
X492608Y228600D03*
X492608Y25400D03*
X289408Y25400D03*
D14*
X503958Y99000D03*
X503958Y155000D03*
D15*
X467208Y112000D03*
X467208Y122000D03*
X467208Y132000D03*
X467208Y142000D03*
D14*
X278058Y155000D03*
X278058Y99000D03*
D15*
X314808Y142000D03*
X314808Y132000D03*
X314808Y122000D03*
X314808Y112000D03*
D16*
X441808Y241300D03*
X416408Y241300D03*
X391008Y241300D03*
X365608Y241300D03*
X340208Y241300D03*
D10*
X441808Y84700D03*
X441808Y67700D03*
D17*
X383090Y108892D02*
X383090Y115148D01*
X383846Y115148D01*
X383846Y108892D01*
X383090Y108892D01*
X383090Y112955D02*
X383846Y112955D01*
X388090Y115148D02*
X388090Y108892D01*
X388090Y115148D02*
X388846Y115148D01*
X388846Y108892D01*
X388090Y108892D01*
X388090Y112955D02*
X388846Y112955D01*
X393090Y115148D02*
X393090Y108892D01*
X393090Y115148D02*
X393846Y115148D01*
X393846Y108892D01*
X393090Y108892D01*
X393090Y112955D02*
X393846Y112955D01*
X398090Y115148D02*
X398090Y108892D01*
X398090Y115148D02*
X398846Y115148D01*
X398846Y108892D01*
X398090Y108892D01*
X398090Y112955D02*
X398846Y112955D01*
X402960Y119918D02*
X409216Y119918D01*
X409216Y119162D01*
X402960Y119162D01*
X402960Y119918D01*
X402960Y124918D02*
X409216Y124918D01*
X409216Y124162D01*
X402960Y124162D01*
X402960Y124918D01*
X402960Y129918D02*
X409216Y129918D01*
X409216Y129162D01*
X402960Y129162D01*
X402960Y129918D01*
X402960Y134918D02*
X409216Y134918D01*
X409216Y134162D01*
X402960Y134162D01*
X402960Y134918D01*
X398846Y138932D02*
X398846Y145188D01*
X398846Y138932D02*
X398090Y138932D01*
X398090Y145188D01*
X398846Y145188D01*
X398846Y142995D02*
X398090Y142995D01*
X393846Y145188D02*
X393846Y138932D01*
X393090Y138932D01*
X393090Y145188D01*
X393846Y145188D01*
X393846Y142995D02*
X393090Y142995D01*
X388846Y145188D02*
X388846Y138932D01*
X388090Y138932D01*
X388090Y145188D01*
X388846Y145188D01*
X388846Y142995D02*
X388090Y142995D01*
X383846Y145188D02*
X383846Y138932D01*
X383090Y138932D01*
X383090Y145188D01*
X383846Y145188D01*
X383846Y142995D02*
X383090Y142995D01*
X379176Y134262D02*
X372920Y134262D01*
X372920Y135018D01*
X379176Y135018D01*
X379176Y134262D01*
X379176Y129262D02*
X372920Y129262D01*
X372920Y130018D01*
X379176Y130018D01*
X379176Y129262D01*
X379176Y124262D02*
X372920Y124262D01*
X372920Y125018D01*
X379176Y125018D01*
X379176Y124262D01*
X379176Y119262D02*
X372920Y119262D01*
X372920Y120018D01*
X379176Y120018D01*
X379176Y119262D01*
D10*
X340208Y186300D03*
X340208Y169300D03*
X365608Y169300D03*
X365608Y186300D03*
X705790Y186300D03*
X705790Y169300D03*
X654990Y169300D03*
X654990Y186300D03*
D11*
X727700Y70920D02*
X734680Y70920D01*
X734680Y63940D01*
X727700Y63940D01*
X727700Y70920D01*
X727700Y68740D02*
X734680Y68740D01*
X734680Y88460D02*
X727700Y88460D01*
X734680Y88460D02*
X734680Y81480D01*
X727700Y81480D01*
X727700Y88460D01*
X727700Y86280D02*
X734680Y86280D01*
D12*
X774370Y7620D03*
X535610Y246380D03*
D13*
X553390Y228600D03*
X756590Y228600D03*
X756590Y25400D03*
X553390Y25400D03*
D14*
X767940Y99000D03*
X767940Y155000D03*
D15*
X731190Y112000D03*
X731190Y122000D03*
X731190Y132000D03*
X731190Y142000D03*
D14*
X542040Y155000D03*
X542040Y99000D03*
D15*
X578790Y142000D03*
X578790Y132000D03*
X578790Y122000D03*
X578790Y112000D03*
D16*
X705790Y241300D03*
X680390Y241300D03*
X654990Y241300D03*
X629590Y241300D03*
X604190Y241300D03*
D10*
X705790Y84700D03*
X705790Y67700D03*
D17*
X647072Y108892D02*
X647072Y115148D01*
X647828Y115148D01*
X647828Y108892D01*
X647072Y108892D01*
X647072Y112955D02*
X647828Y112955D01*
X652072Y115148D02*
X652072Y108892D01*
X652072Y115148D02*
X652828Y115148D01*
X652828Y108892D01*
X652072Y108892D01*
X652072Y112955D02*
X652828Y112955D01*
X657072Y115148D02*
X657072Y108892D01*
X657072Y115148D02*
X657828Y115148D01*
X657828Y108892D01*
X657072Y108892D01*
X657072Y112955D02*
X657828Y112955D01*
X662072Y115148D02*
X662072Y108892D01*
X662072Y115148D02*
X662828Y115148D01*
X662828Y108892D01*
X662072Y108892D01*
X662072Y112955D02*
X662828Y112955D01*
X666942Y119918D02*
X673198Y119918D01*
X673198Y119162D01*
X666942Y119162D01*
X666942Y119918D01*
X666942Y124918D02*
X673198Y124918D01*
X673198Y124162D01*
X666942Y124162D01*
X666942Y124918D01*
X666942Y129918D02*
X673198Y129918D01*
X673198Y129162D01*
X666942Y129162D01*
X666942Y129918D01*
X666942Y134918D02*
X673198Y134918D01*
X673198Y134162D01*
X666942Y134162D01*
X666942Y134918D01*
X662828Y138932D02*
X662828Y145188D01*
X662828Y138932D02*
X662072Y138932D01*
X662072Y145188D01*
X662828Y145188D01*
X662828Y142995D02*
X662072Y142995D01*
X657828Y145188D02*
X657828Y138932D01*
X657072Y138932D01*
X657072Y145188D01*
X657828Y145188D01*
X657828Y142995D02*
X657072Y142995D01*
X652828Y145188D02*
X652828Y138932D01*
X652072Y138932D01*
X652072Y145188D01*
X652828Y145188D01*
X652828Y142995D02*
X652072Y142995D01*
X647828Y145188D02*
X647828Y138932D01*
X647072Y138932D01*
X647072Y145188D01*
X647828Y145188D01*
X647828Y142995D02*
X647072Y142995D01*
X643158Y134262D02*
X636902Y134262D01*
X636902Y135018D01*
X643158Y135018D01*
X643158Y134262D01*
X643158Y129262D02*
X636902Y129262D01*
X636902Y130018D01*
X643158Y130018D01*
X643158Y129262D01*
X643158Y124262D02*
X636902Y124262D01*
X636902Y125018D01*
X643158Y125018D01*
X643158Y124262D01*
X643158Y119262D02*
X636902Y119262D01*
X636902Y120018D01*
X643158Y120018D01*
X643158Y119262D01*
D10*
X604190Y186300D03*
X604190Y169300D03*
X629590Y169300D03*
X629590Y186300D03*
X177800Y450308D03*
X177800Y433308D03*
X127000Y433308D03*
X127000Y450308D03*
D11*
X199710Y334928D02*
X206690Y334928D01*
X206690Y327948D01*
X199710Y327948D01*
X199710Y334928D01*
X199710Y332748D02*
X206690Y332748D01*
X206690Y352468D02*
X199710Y352468D01*
X206690Y352468D02*
X206690Y345488D01*
X199710Y345488D01*
X199710Y352468D01*
X199710Y350288D02*
X206690Y350288D01*
D12*
X246380Y271628D03*
X7620Y510388D03*
D13*
X25400Y492608D03*
X228600Y492608D03*
X228600Y289408D03*
X25400Y289408D03*
D14*
X239950Y363008D03*
X239950Y419008D03*
D15*
X203200Y376008D03*
X203200Y386008D03*
X203200Y396008D03*
X203200Y406008D03*
D14*
X14050Y419008D03*
X14050Y363008D03*
D15*
X50800Y406008D03*
X50800Y396008D03*
X50800Y386008D03*
X50800Y376008D03*
D16*
X177800Y505308D03*
X152400Y505308D03*
X127000Y505308D03*
X101600Y505308D03*
X76200Y505308D03*
D10*
X177800Y348708D03*
X177800Y331708D03*
D17*
X119082Y372900D02*
X119082Y379156D01*
X119838Y379156D01*
X119838Y372900D01*
X119082Y372900D01*
X119082Y376963D02*
X119838Y376963D01*
X124082Y379156D02*
X124082Y372900D01*
X124082Y379156D02*
X124838Y379156D01*
X124838Y372900D01*
X124082Y372900D01*
X124082Y376963D02*
X124838Y376963D01*
X129082Y379156D02*
X129082Y372900D01*
X129082Y379156D02*
X129838Y379156D01*
X129838Y372900D01*
X129082Y372900D01*
X129082Y376963D02*
X129838Y376963D01*
X134082Y379156D02*
X134082Y372900D01*
X134082Y379156D02*
X134838Y379156D01*
X134838Y372900D01*
X134082Y372900D01*
X134082Y376963D02*
X134838Y376963D01*
X138952Y383926D02*
X145208Y383926D01*
X145208Y383170D01*
X138952Y383170D01*
X138952Y383926D01*
X138952Y388926D02*
X145208Y388926D01*
X145208Y388170D01*
X138952Y388170D01*
X138952Y388926D01*
X138952Y393926D02*
X145208Y393926D01*
X145208Y393170D01*
X138952Y393170D01*
X138952Y393926D01*
X138952Y398926D02*
X145208Y398926D01*
X145208Y398170D01*
X138952Y398170D01*
X138952Y398926D01*
X134838Y402940D02*
X134838Y409196D01*
X134838Y402940D02*
X134082Y402940D01*
X134082Y409196D01*
X134838Y409196D01*
X134838Y407003D02*
X134082Y407003D01*
X129838Y409196D02*
X129838Y402940D01*
X129082Y402940D01*
X129082Y409196D01*
X129838Y409196D01*
X129838Y407003D02*
X129082Y407003D01*
X124838Y409196D02*
X124838Y402940D01*
X124082Y402940D01*
X124082Y409196D01*
X124838Y409196D01*
X124838Y407003D02*
X124082Y407003D01*
X119838Y409196D02*
X119838Y402940D01*
X119082Y402940D01*
X119082Y409196D01*
X119838Y409196D01*
X119838Y407003D02*
X119082Y407003D01*
X115168Y398270D02*
X108912Y398270D01*
X108912Y399026D01*
X115168Y399026D01*
X115168Y398270D01*
X115168Y393270D02*
X108912Y393270D01*
X108912Y394026D01*
X115168Y394026D01*
X115168Y393270D01*
X115168Y388270D02*
X108912Y388270D01*
X108912Y389026D01*
X115168Y389026D01*
X115168Y388270D01*
X115168Y383270D02*
X108912Y383270D01*
X108912Y384026D01*
X115168Y384026D01*
X115168Y383270D01*
D10*
X76200Y450308D03*
X76200Y433308D03*
X101600Y433308D03*
X101600Y450308D03*
X441808Y450308D03*
X441808Y433308D03*
X391008Y433308D03*
X391008Y450308D03*
D11*
X463718Y334928D02*
X470698Y334928D01*
X470698Y327948D01*
X463718Y327948D01*
X463718Y334928D01*
X463718Y332748D02*
X470698Y332748D01*
X470698Y352468D02*
X463718Y352468D01*
X470698Y352468D02*
X470698Y345488D01*
X463718Y345488D01*
X463718Y352468D01*
X463718Y350288D02*
X470698Y350288D01*
D12*
X510388Y271628D03*
X271628Y510388D03*
D13*
X289408Y492608D03*
X492608Y492608D03*
X492608Y289408D03*
X289408Y289408D03*
D14*
X503958Y363008D03*
X503958Y419008D03*
D15*
X467208Y376008D03*
X467208Y386008D03*
X467208Y396008D03*
X467208Y406008D03*
D14*
X278058Y419008D03*
X278058Y363008D03*
D15*
X314808Y406008D03*
X314808Y396008D03*
X314808Y386008D03*
X314808Y376008D03*
D16*
X441808Y505308D03*
X416408Y505308D03*
X391008Y505308D03*
X365608Y505308D03*
X340208Y505308D03*
D10*
X441808Y348708D03*
X441808Y331708D03*
D17*
X383090Y372900D02*
X383090Y379156D01*
X383846Y379156D01*
X383846Y372900D01*
X383090Y372900D01*
X383090Y376963D02*
X383846Y376963D01*
X388090Y379156D02*
X388090Y372900D01*
X388090Y379156D02*
X388846Y379156D01*
X388846Y372900D01*
X388090Y372900D01*
X388090Y376963D02*
X388846Y376963D01*
X393090Y379156D02*
X393090Y372900D01*
X393090Y379156D02*
X393846Y379156D01*
X393846Y372900D01*
X393090Y372900D01*
X393090Y376963D02*
X393846Y376963D01*
X398090Y379156D02*
X398090Y372900D01*
X398090Y379156D02*
X398846Y379156D01*
X398846Y372900D01*
X398090Y372900D01*
X398090Y376963D02*
X398846Y376963D01*
X402960Y383926D02*
X409216Y383926D01*
X409216Y383170D01*
X402960Y383170D01*
X402960Y383926D01*
X402960Y388926D02*
X409216Y388926D01*
X409216Y388170D01*
X402960Y388170D01*
X402960Y388926D01*
X402960Y393926D02*
X409216Y393926D01*
X409216Y393170D01*
X402960Y393170D01*
X402960Y393926D01*
X402960Y398926D02*
X409216Y398926D01*
X409216Y398170D01*
X402960Y398170D01*
X402960Y398926D01*
X398846Y402940D02*
X398846Y409196D01*
X398846Y402940D02*
X398090Y402940D01*
X398090Y409196D01*
X398846Y409196D01*
X398846Y407003D02*
X398090Y407003D01*
X393846Y409196D02*
X393846Y402940D01*
X393090Y402940D01*
X393090Y409196D01*
X393846Y409196D01*
X393846Y407003D02*
X393090Y407003D01*
X388846Y409196D02*
X388846Y402940D01*
X388090Y402940D01*
X388090Y409196D01*
X388846Y409196D01*
X388846Y407003D02*
X388090Y407003D01*
X383846Y409196D02*
X383846Y402940D01*
X383090Y402940D01*
X383090Y409196D01*
X383846Y409196D01*
X383846Y407003D02*
X383090Y407003D01*
X379176Y398270D02*
X372920Y398270D01*
X372920Y399026D01*
X379176Y399026D01*
X379176Y398270D01*
X379176Y393270D02*
X372920Y393270D01*
X372920Y394026D01*
X379176Y394026D01*
X379176Y393270D01*
X379176Y388270D02*
X372920Y388270D01*
X372920Y389026D01*
X379176Y389026D01*
X379176Y388270D01*
X379176Y383270D02*
X372920Y383270D01*
X372920Y384026D01*
X379176Y384026D01*
X379176Y383270D01*
D10*
X340208Y450308D03*
X340208Y433308D03*
X365608Y433308D03*
X365608Y450308D03*
X705790Y450308D03*
X705790Y433308D03*
X654990Y433308D03*
X654990Y450308D03*
D11*
X727700Y334928D02*
X734680Y334928D01*
X734680Y327948D01*
X727700Y327948D01*
X727700Y334928D01*
X727700Y332748D02*
X734680Y332748D01*
X734680Y352468D02*
X727700Y352468D01*
X734680Y352468D02*
X734680Y345488D01*
X727700Y345488D01*
X727700Y352468D01*
X727700Y350288D02*
X734680Y350288D01*
D12*
X774370Y271628D03*
X535610Y510388D03*
D13*
X553390Y492608D03*
X756590Y492608D03*
X756590Y289408D03*
X553390Y289408D03*
D14*
X767940Y363008D03*
X767940Y419008D03*
D15*
X731190Y376008D03*
X731190Y386008D03*
X731190Y396008D03*
X731190Y406008D03*
D14*
X542040Y419008D03*
X542040Y363008D03*
D15*
X578790Y406008D03*
X578790Y396008D03*
X578790Y386008D03*
X578790Y376008D03*
D16*
X705790Y505308D03*
X680390Y505308D03*
X654990Y505308D03*
X629590Y505308D03*
X604190Y505308D03*
D10*
X705790Y348708D03*
X705790Y331708D03*
D17*
X647072Y372900D02*
X647072Y379156D01*
X647828Y379156D01*
X647828Y372900D01*
X647072Y372900D01*
X647072Y376963D02*
X647828Y376963D01*
X652072Y379156D02*
X652072Y372900D01*
X652072Y379156D02*
X652828Y379156D01*
X652828Y372900D01*
X652072Y372900D01*
X652072Y376963D02*
X652828Y376963D01*
X657072Y379156D02*
X657072Y372900D01*
X657072Y379156D02*
X657828Y379156D01*
X657828Y372900D01*
X657072Y372900D01*
X657072Y376963D02*
X657828Y376963D01*
X662072Y379156D02*
X662072Y372900D01*
X662072Y379156D02*
X662828Y379156D01*
X662828Y372900D01*
X662072Y372900D01*
X662072Y376963D02*
X662828Y376963D01*
X666942Y383926D02*
X673198Y383926D01*
X673198Y383170D01*
X666942Y383170D01*
X666942Y383926D01*
X666942Y388926D02*
X673198Y388926D01*
X673198Y388170D01*
X666942Y388170D01*
X666942Y388926D01*
X666942Y393926D02*
X673198Y393926D01*
X673198Y393170D01*
X666942Y393170D01*
X666942Y393926D01*
X666942Y398926D02*
X673198Y398926D01*
X673198Y398170D01*
X666942Y398170D01*
X666942Y398926D01*
X662828Y402940D02*
X662828Y409196D01*
X662828Y402940D02*
X662072Y402940D01*
X662072Y409196D01*
X662828Y409196D01*
X662828Y407003D02*
X662072Y407003D01*
X657828Y409196D02*
X657828Y402940D01*
X657072Y402940D01*
X657072Y409196D01*
X657828Y409196D01*
X657828Y407003D02*
X657072Y407003D01*
X652828Y409196D02*
X652828Y402940D01*
X652072Y402940D01*
X652072Y409196D01*
X652828Y409196D01*
X652828Y407003D02*
X652072Y407003D01*
X647828Y409196D02*
X647828Y402940D01*
X647072Y402940D01*
X647072Y409196D01*
X647828Y409196D01*
X647828Y407003D02*
X647072Y407003D01*
X643158Y398270D02*
X636902Y398270D01*
X636902Y399026D01*
X643158Y399026D01*
X643158Y398270D01*
X643158Y393270D02*
X636902Y393270D01*
X636902Y394026D01*
X643158Y394026D01*
X643158Y393270D01*
X643158Y388270D02*
X636902Y388270D01*
X636902Y389026D01*
X643158Y389026D01*
X643158Y388270D01*
X643158Y383270D02*
X636902Y383270D01*
X636902Y384026D01*
X643158Y384026D01*
X643158Y383270D01*
D10*
X604190Y450308D03*
X604190Y433308D03*
X629590Y433308D03*
X629590Y450308D03*
X177800Y714290D03*
X177800Y697290D03*
X127000Y697290D03*
X127000Y714290D03*
D11*
X199710Y598910D02*
X206690Y598910D01*
X206690Y591930D01*
X199710Y591930D01*
X199710Y598910D01*
X199710Y596730D02*
X206690Y596730D01*
X206690Y616450D02*
X199710Y616450D01*
X206690Y616450D02*
X206690Y609470D01*
X199710Y609470D01*
X199710Y616450D01*
X199710Y614270D02*
X206690Y614270D01*
D12*
X246380Y535610D03*
X7620Y774370D03*
D13*
X25400Y756590D03*
X228600Y756590D03*
X228600Y553390D03*
X25400Y553390D03*
D14*
X239950Y626990D03*
X239950Y682990D03*
D15*
X203200Y639990D03*
X203200Y649990D03*
X203200Y659990D03*
X203200Y669990D03*
D14*
X14050Y682990D03*
X14050Y626990D03*
D15*
X50800Y669990D03*
X50800Y659990D03*
X50800Y649990D03*
X50800Y639990D03*
D16*
X177800Y769290D03*
X152400Y769290D03*
X127000Y769290D03*
X101600Y769290D03*
X76200Y769290D03*
D10*
X177800Y612690D03*
X177800Y595690D03*
D17*
X119082Y636882D02*
X119082Y643138D01*
X119838Y643138D01*
X119838Y636882D01*
X119082Y636882D01*
X119082Y640945D02*
X119838Y640945D01*
X124082Y643138D02*
X124082Y636882D01*
X124082Y643138D02*
X124838Y643138D01*
X124838Y636882D01*
X124082Y636882D01*
X124082Y640945D02*
X124838Y640945D01*
X129082Y643138D02*
X129082Y636882D01*
X129082Y643138D02*
X129838Y643138D01*
X129838Y636882D01*
X129082Y636882D01*
X129082Y640945D02*
X129838Y640945D01*
X134082Y643138D02*
X134082Y636882D01*
X134082Y643138D02*
X134838Y643138D01*
X134838Y636882D01*
X134082Y636882D01*
X134082Y640945D02*
X134838Y640945D01*
X138952Y647908D02*
X145208Y647908D01*
X145208Y647152D01*
X138952Y647152D01*
X138952Y647908D01*
X138952Y652908D02*
X145208Y652908D01*
X145208Y652152D01*
X138952Y652152D01*
X138952Y652908D01*
X138952Y657908D02*
X145208Y657908D01*
X145208Y657152D01*
X138952Y657152D01*
X138952Y657908D01*
X138952Y662908D02*
X145208Y662908D01*
X145208Y662152D01*
X138952Y662152D01*
X138952Y662908D01*
X134838Y666922D02*
X134838Y673178D01*
X134838Y666922D02*
X134082Y666922D01*
X134082Y673178D01*
X134838Y673178D01*
X134838Y670985D02*
X134082Y670985D01*
X129838Y673178D02*
X129838Y666922D01*
X129082Y666922D01*
X129082Y673178D01*
X129838Y673178D01*
X129838Y670985D02*
X129082Y670985D01*
X124838Y673178D02*
X124838Y666922D01*
X124082Y666922D01*
X124082Y673178D01*
X124838Y673178D01*
X124838Y670985D02*
X124082Y670985D01*
X119838Y673178D02*
X119838Y666922D01*
X119082Y666922D01*
X119082Y673178D01*
X119838Y673178D01*
X119838Y670985D02*
X119082Y670985D01*
X115168Y662252D02*
X108912Y662252D01*
X108912Y663008D01*
X115168Y663008D01*
X115168Y662252D01*
X115168Y657252D02*
X108912Y657252D01*
X108912Y658008D01*
X115168Y658008D01*
X115168Y657252D01*
X115168Y652252D02*
X108912Y652252D01*
X108912Y653008D01*
X115168Y653008D01*
X115168Y652252D01*
X115168Y647252D02*
X108912Y647252D01*
X108912Y648008D01*
X115168Y648008D01*
X115168Y647252D01*
D10*
X76200Y714290D03*
X76200Y697290D03*
X101600Y697290D03*
X101600Y714290D03*
X441808Y714290D03*
X441808Y697290D03*
X391008Y697290D03*
X391008Y714290D03*
D11*
X463718Y598910D02*
X470698Y598910D01*
X470698Y591930D01*
X463718Y591930D01*
X463718Y598910D01*
X463718Y596730D02*
X470698Y596730D01*
X470698Y616450D02*
X463718Y616450D01*
X470698Y616450D02*
X470698Y609470D01*
X463718Y609470D01*
X463718Y616450D01*
X463718Y614270D02*
X470698Y614270D01*
D12*
X510388Y535610D03*
X271628Y774370D03*
D13*
X289408Y756590D03*
X492608Y756590D03*
X492608Y553390D03*
X289408Y553390D03*
D14*
X503958Y626990D03*
X503958Y682990D03*
D15*
X467208Y639990D03*
X467208Y649990D03*
X467208Y659990D03*
X467208Y669990D03*
D14*
X278058Y682990D03*
X278058Y626990D03*
D15*
X314808Y669990D03*
X314808Y659990D03*
X314808Y649990D03*
X314808Y639990D03*
D16*
X441808Y769290D03*
X416408Y769290D03*
X391008Y769290D03*
X365608Y769290D03*
X340208Y769290D03*
D10*
X441808Y612690D03*
X441808Y595690D03*
D17*
X383090Y636882D02*
X383090Y643138D01*
X383846Y643138D01*
X383846Y636882D01*
X383090Y636882D01*
X383090Y640945D02*
X383846Y640945D01*
X388090Y643138D02*
X388090Y636882D01*
X388090Y643138D02*
X388846Y643138D01*
X388846Y636882D01*
X388090Y636882D01*
X388090Y640945D02*
X388846Y640945D01*
X393090Y643138D02*
X393090Y636882D01*
X393090Y643138D02*
X393846Y643138D01*
X393846Y636882D01*
X393090Y636882D01*
X393090Y640945D02*
X393846Y640945D01*
X398090Y643138D02*
X398090Y636882D01*
X398090Y643138D02*
X398846Y643138D01*
X398846Y636882D01*
X398090Y636882D01*
X398090Y640945D02*
X398846Y640945D01*
X402960Y647908D02*
X409216Y647908D01*
X409216Y647152D01*
X402960Y647152D01*
X402960Y647908D01*
X402960Y652908D02*
X409216Y652908D01*
X409216Y652152D01*
X402960Y652152D01*
X402960Y652908D01*
X402960Y657908D02*
X409216Y657908D01*
X409216Y657152D01*
X402960Y657152D01*
X402960Y657908D01*
X402960Y662908D02*
X409216Y662908D01*
X409216Y662152D01*
X402960Y662152D01*
X402960Y662908D01*
X398846Y666922D02*
X398846Y673178D01*
X398846Y666922D02*
X398090Y666922D01*
X398090Y673178D01*
X398846Y673178D01*
X398846Y670985D02*
X398090Y670985D01*
X393846Y673178D02*
X393846Y666922D01*
X393090Y666922D01*
X393090Y673178D01*
X393846Y673178D01*
X393846Y670985D02*
X393090Y670985D01*
X388846Y673178D02*
X388846Y666922D01*
X388090Y666922D01*
X388090Y673178D01*
X388846Y673178D01*
X388846Y670985D02*
X388090Y670985D01*
X383846Y673178D02*
X383846Y666922D01*
X383090Y666922D01*
X383090Y673178D01*
X383846Y673178D01*
X383846Y670985D02*
X383090Y670985D01*
X379176Y662252D02*
X372920Y662252D01*
X372920Y663008D01*
X379176Y663008D01*
X379176Y662252D01*
X379176Y657252D02*
X372920Y657252D01*
X372920Y658008D01*
X379176Y658008D01*
X379176Y657252D01*
X379176Y652252D02*
X372920Y652252D01*
X372920Y653008D01*
X379176Y653008D01*
X379176Y652252D01*
X379176Y647252D02*
X372920Y647252D01*
X372920Y648008D01*
X379176Y648008D01*
X379176Y647252D01*
D10*
X340208Y714290D03*
X340208Y697290D03*
X365608Y697290D03*
X365608Y714290D03*
X705790Y714290D03*
X705790Y697290D03*
X654990Y697290D03*
X654990Y714290D03*
D11*
X727700Y598910D02*
X734680Y598910D01*
X734680Y591930D01*
X727700Y591930D01*
X727700Y598910D01*
X727700Y596730D02*
X734680Y596730D01*
X734680Y616450D02*
X727700Y616450D01*
X734680Y616450D02*
X734680Y609470D01*
X727700Y609470D01*
X727700Y616450D01*
X727700Y614270D02*
X734680Y614270D01*
D12*
X774370Y535610D03*
X535610Y774370D03*
D13*
X553390Y756590D03*
X756590Y756590D03*
X756590Y553390D03*
X553390Y553390D03*
D14*
X767940Y626990D03*
X767940Y682990D03*
D15*
X731190Y639990D03*
X731190Y649990D03*
X731190Y659990D03*
X731190Y669990D03*
D14*
X542040Y682990D03*
X542040Y626990D03*
D15*
X578790Y669990D03*
X578790Y659990D03*
X578790Y649990D03*
X578790Y639990D03*
D16*
X705790Y769290D03*
X680390Y769290D03*
X654990Y769290D03*
X629590Y769290D03*
X604190Y769290D03*
D10*
X705790Y612690D03*
X705790Y595690D03*
D17*
X647072Y636882D02*
X647072Y643138D01*
X647828Y643138D01*
X647828Y636882D01*
X647072Y636882D01*
X647072Y640945D02*
X647828Y640945D01*
X652072Y643138D02*
X652072Y636882D01*
X652072Y643138D02*
X652828Y643138D01*
X652828Y636882D01*
X652072Y636882D01*
X652072Y640945D02*
X652828Y640945D01*
X657072Y643138D02*
X657072Y636882D01*
X657072Y643138D02*
X657828Y643138D01*
X657828Y636882D01*
X657072Y636882D01*
X657072Y640945D02*
X657828Y640945D01*
X662072Y643138D02*
X662072Y636882D01*
X662072Y643138D02*
X662828Y643138D01*
X662828Y636882D01*
X662072Y636882D01*
X662072Y640945D02*
X662828Y640945D01*
X666942Y647908D02*
X673198Y647908D01*
X673198Y647152D01*
X666942Y647152D01*
X666942Y647908D01*
X666942Y652908D02*
X673198Y652908D01*
X673198Y652152D01*
X666942Y652152D01*
X666942Y652908D01*
X666942Y657908D02*
X673198Y657908D01*
X673198Y657152D01*
X666942Y657152D01*
X666942Y657908D01*
X666942Y662908D02*
X673198Y662908D01*
X673198Y662152D01*
X666942Y662152D01*
X666942Y662908D01*
X662828Y666922D02*
X662828Y673178D01*
X662828Y666922D02*
X662072Y666922D01*
X662072Y673178D01*
X662828Y673178D01*
X662828Y670985D02*
X662072Y670985D01*
X657828Y673178D02*
X657828Y666922D01*
X657072Y666922D01*
X657072Y673178D01*
X657828Y673178D01*
X657828Y670985D02*
X657072Y670985D01*
X652828Y673178D02*
X652828Y666922D01*
X652072Y666922D01*
X652072Y673178D01*
X652828Y673178D01*
X652828Y670985D02*
X652072Y670985D01*
X647828Y673178D02*
X647828Y666922D01*
X647072Y666922D01*
X647072Y673178D01*
X647828Y673178D01*
X647828Y670985D02*
X647072Y670985D01*
X643158Y662252D02*
X636902Y662252D01*
X636902Y663008D01*
X643158Y663008D01*
X643158Y662252D01*
X643158Y657252D02*
X636902Y657252D01*
X636902Y658008D01*
X643158Y658008D01*
X643158Y657252D01*
X643158Y652252D02*
X636902Y652252D01*
X636902Y653008D01*
X643158Y653008D01*
X643158Y652252D01*
X643158Y647252D02*
X636902Y647252D01*
X636902Y648008D01*
X643158Y648008D01*
X643158Y647252D01*
D10*
X604190Y714290D03*
X604190Y697290D03*
X629590Y697290D03*
X629590Y714290D03*
D12*
X-31166Y760247D03*
X813156Y760247D03*
D18*
X-40221Y63500D02*
X-40218Y63722D01*
X-40210Y63944D01*
X-40196Y64166D01*
X-40177Y64388D01*
X-40153Y64608D01*
X-40123Y64829D01*
X-40088Y65048D01*
X-40047Y65267D01*
X-40001Y65484D01*
X-39950Y65700D01*
X-39893Y65915D01*
X-39831Y66129D01*
X-39764Y66340D01*
X-39692Y66551D01*
X-39614Y66759D01*
X-39532Y66965D01*
X-39444Y67169D01*
X-39352Y67372D01*
X-39254Y67571D01*
X-39152Y67768D01*
X-39045Y67963D01*
X-38933Y68155D01*
X-38816Y68344D01*
X-38695Y68531D01*
X-38569Y68714D01*
X-38439Y68894D01*
X-38304Y69071D01*
X-38166Y69244D01*
X-38023Y69414D01*
X-37875Y69581D01*
X-37724Y69744D01*
X-37569Y69903D01*
X-37410Y70058D01*
X-37247Y70209D01*
X-37080Y70357D01*
X-36910Y70500D01*
X-36737Y70638D01*
X-36560Y70773D01*
X-36380Y70903D01*
X-36197Y71029D01*
X-36010Y71150D01*
X-35821Y71267D01*
X-35629Y71379D01*
X-35434Y71486D01*
X-35237Y71588D01*
X-35038Y71686D01*
X-34835Y71778D01*
X-34631Y71866D01*
X-34425Y71948D01*
X-34217Y72026D01*
X-34006Y72098D01*
X-33795Y72165D01*
X-33581Y72227D01*
X-33366Y72284D01*
X-33150Y72335D01*
X-32933Y72381D01*
X-32714Y72422D01*
X-32495Y72457D01*
X-32274Y72487D01*
X-32054Y72511D01*
X-31832Y72530D01*
X-31610Y72544D01*
X-31388Y72552D01*
X-31166Y72555D01*
X-30944Y72552D01*
X-30722Y72544D01*
X-30500Y72530D01*
X-30278Y72511D01*
X-30058Y72487D01*
X-29837Y72457D01*
X-29618Y72422D01*
X-29399Y72381D01*
X-29182Y72335D01*
X-28966Y72284D01*
X-28751Y72227D01*
X-28537Y72165D01*
X-28326Y72098D01*
X-28115Y72026D01*
X-27907Y71948D01*
X-27701Y71866D01*
X-27497Y71778D01*
X-27294Y71686D01*
X-27095Y71588D01*
X-26898Y71486D01*
X-26703Y71379D01*
X-26511Y71267D01*
X-26322Y71150D01*
X-26135Y71029D01*
X-25952Y70903D01*
X-25772Y70773D01*
X-25595Y70638D01*
X-25422Y70500D01*
X-25252Y70357D01*
X-25085Y70209D01*
X-24922Y70058D01*
X-24763Y69903D01*
X-24608Y69744D01*
X-24457Y69581D01*
X-24309Y69414D01*
X-24166Y69244D01*
X-24028Y69071D01*
X-23893Y68894D01*
X-23763Y68714D01*
X-23637Y68531D01*
X-23516Y68344D01*
X-23399Y68155D01*
X-23287Y67963D01*
X-23180Y67768D01*
X-23078Y67571D01*
X-22980Y67372D01*
X-22888Y67169D01*
X-22800Y66965D01*
X-22718Y66759D01*
X-22640Y66551D01*
X-22568Y66340D01*
X-22501Y66129D01*
X-22439Y65915D01*
X-22382Y65700D01*
X-22331Y65484D01*
X-22285Y65267D01*
X-22244Y65048D01*
X-22209Y64829D01*
X-22179Y64608D01*
X-22155Y64388D01*
X-22136Y64166D01*
X-22122Y63944D01*
X-22114Y63722D01*
X-22111Y63500D01*
X-22114Y63278D01*
X-22122Y63056D01*
X-22136Y62834D01*
X-22155Y62612D01*
X-22179Y62392D01*
X-22209Y62171D01*
X-22244Y61952D01*
X-22285Y61733D01*
X-22331Y61516D01*
X-22382Y61300D01*
X-22439Y61085D01*
X-22501Y60871D01*
X-22568Y60660D01*
X-22640Y60449D01*
X-22718Y60241D01*
X-22800Y60035D01*
X-22888Y59831D01*
X-22980Y59628D01*
X-23078Y59429D01*
X-23180Y59232D01*
X-23287Y59037D01*
X-23399Y58845D01*
X-23516Y58656D01*
X-23637Y58469D01*
X-23763Y58286D01*
X-23893Y58106D01*
X-24028Y57929D01*
X-24166Y57756D01*
X-24309Y57586D01*
X-24457Y57419D01*
X-24608Y57256D01*
X-24763Y57097D01*
X-24922Y56942D01*
X-25085Y56791D01*
X-25252Y56643D01*
X-25422Y56500D01*
X-25595Y56362D01*
X-25772Y56227D01*
X-25952Y56097D01*
X-26135Y55971D01*
X-26322Y55850D01*
X-26511Y55733D01*
X-26703Y55621D01*
X-26898Y55514D01*
X-27095Y55412D01*
X-27294Y55314D01*
X-27497Y55222D01*
X-27701Y55134D01*
X-27907Y55052D01*
X-28115Y54974D01*
X-28326Y54902D01*
X-28537Y54835D01*
X-28751Y54773D01*
X-28966Y54716D01*
X-29182Y54665D01*
X-29399Y54619D01*
X-29618Y54578D01*
X-29837Y54543D01*
X-30058Y54513D01*
X-30278Y54489D01*
X-30500Y54470D01*
X-30722Y54456D01*
X-30944Y54448D01*
X-31166Y54445D01*
X-31388Y54448D01*
X-31610Y54456D01*
X-31832Y54470D01*
X-32054Y54489D01*
X-32274Y54513D01*
X-32495Y54543D01*
X-32714Y54578D01*
X-32933Y54619D01*
X-33150Y54665D01*
X-33366Y54716D01*
X-33581Y54773D01*
X-33795Y54835D01*
X-34006Y54902D01*
X-34217Y54974D01*
X-34425Y55052D01*
X-34631Y55134D01*
X-34835Y55222D01*
X-35038Y55314D01*
X-35237Y55412D01*
X-35434Y55514D01*
X-35629Y55621D01*
X-35821Y55733D01*
X-36010Y55850D01*
X-36197Y55971D01*
X-36380Y56097D01*
X-36560Y56227D01*
X-36737Y56362D01*
X-36910Y56500D01*
X-37080Y56643D01*
X-37247Y56791D01*
X-37410Y56942D01*
X-37569Y57097D01*
X-37724Y57256D01*
X-37875Y57419D01*
X-38023Y57586D01*
X-38166Y57756D01*
X-38304Y57929D01*
X-38439Y58106D01*
X-38569Y58286D01*
X-38695Y58469D01*
X-38816Y58656D01*
X-38933Y58845D01*
X-39045Y59037D01*
X-39152Y59232D01*
X-39254Y59429D01*
X-39352Y59628D01*
X-39444Y59831D01*
X-39532Y60035D01*
X-39614Y60241D01*
X-39692Y60449D01*
X-39764Y60660D01*
X-39831Y60871D01*
X-39893Y61085D01*
X-39950Y61300D01*
X-40001Y61516D01*
X-40047Y61733D01*
X-40088Y61952D01*
X-40123Y62171D01*
X-40153Y62392D01*
X-40177Y62612D01*
X-40196Y62834D01*
X-40210Y63056D01*
X-40218Y63278D01*
X-40221Y63500D01*
D19*
X-31166Y63500D03*
M02*
