M48
;GenerationSoftware,Autodesk,EAGLE,9.6.2*%
;CreationDate,2021-11-18T22:52:16Z*%
FMAT,2
ICI,OFF
METRIC,TZ,000.000
T4C0.305
T3C0.381
T2C1.016
T1C3.302
%
G90
M71
T1
X22860Y22860
X100584Y2540
X100584Y54356
X80264Y80264
X100584Y80264
X2540Y22860
X2540Y48768
X100584Y100584
X100584Y22860
X80264Y22860
X54356Y2540
X74676Y2540
X80264Y100584
X54356Y80264
X74676Y80264
X100584Y74676
X74676Y22860
X54356Y22860
X74676Y100584
X54356Y100584
X28448Y80264
X48768Y80264
X48768Y100584
X28448Y2540
X48768Y2540
X28448Y100584
X2540Y80264
X22860Y80264
X22860Y100584
X80264Y74676
X22860Y48768
X48768Y22860
X28448Y22860
X2540Y100584
X80264Y54356
X80264Y2540
X54356Y54356
X74676Y54356
X74676Y74676
X54356Y74676
X28448Y54356
X48768Y54356
X48768Y74676
X28448Y74676
X2540Y54356
X22860Y54356
X22860Y74676
X2540Y74676
X80264Y28448
X100584Y28448
X100584Y48768
X80264Y48768
X54356Y28448
X74676Y28448
X74676Y48768
X54356Y48768
X28448Y28448
X48768Y28448
X48768Y48768
X2540Y2540
X22860Y2540
X2540Y28448
X28448Y48768
X22860Y28448
T2
X43688Y50038
X19050Y27178
X16510Y27178
X13970Y27178
X11430Y27178
X8890Y27178
X6350Y27178
X7620Y50038
X10160Y50038
X12700Y50038
X15240Y50038
X17780Y50038
X96774Y1270
X94234Y1270
X91694Y1270
X89154Y1270
X86614Y1270
X84074Y1270
X85344Y24130
X87884Y24130
X90424Y24130
X92964Y24130
X95504Y24130
X70866Y1270
X68326Y1270
X65786Y1270
X63246Y1270
X60706Y1270
X58166Y1270
X59436Y24130
X61976Y24130
X64516Y24130
X67056Y24130
X69596Y24130
X44958Y1270
X42418Y1270
X39878Y1270
X37338Y1270
X34798Y1270
X32258Y1270
X33528Y24130
X36068Y24130
X38608Y24130
X41148Y24130
X43688Y24130
X19050Y1270
X16510Y1270
X13970Y1270
X11430Y1270
X8890Y1270
X7620Y24130
X10160Y24130
X12700Y24130
X15240Y24130
X17780Y24130
X63246Y27178
X38608Y50038
X91694Y27178
X89154Y27178
X86614Y27178
X84074Y27178
X85344Y50038
X87884Y50038
X90424Y50038
X92964Y50038
X95504Y50038
X70866Y27178
X68326Y27178
X65786Y27178
X60706Y27178
X58166Y27178
X59436Y50038
X61976Y50038
X64516Y50038
X67056Y50038
X69596Y50038
X44958Y27178
X42418Y27178
X96774Y78994
X94234Y78994
X91694Y78994
X89154Y78994
X86614Y78994
X84074Y78994
X85344Y101854
X87884Y101854
X90424Y101854
X92964Y101854
X95504Y101854
X70866Y78994
X68326Y78994
X65786Y78994
X63246Y78994
X60706Y78994
X58166Y78994
X59436Y101854
X61976Y101854
X64516Y101854
X67056Y101854
X69596Y101854
X44958Y78994
X42418Y78994
X39878Y78994
X39878Y27178
X37338Y27178
X37338Y78994
X34798Y78994
X32258Y78994
X33528Y101854
X34798Y27178
X32258Y27178
X36068Y101854
X38608Y101854
X41148Y101854
X43688Y101854
X33528Y50038
X16510Y78994
X13970Y78994
X11430Y78994
X8890Y78994
X6350Y78994
X7620Y101854
X10160Y101854
X12700Y101854
X15240Y101854
X17780Y101854
X96774Y53086
X94234Y53086
X91694Y53086
X89154Y53086
X86614Y53086
X84074Y53086
X85344Y75946
X87884Y75946
X90424Y75946
X92964Y75946
X95504Y75946
X70866Y53086
X68326Y53086
X36068Y50038
X65786Y53086
X63246Y53086
X60706Y53086
X58166Y53086
X59436Y75946
X6350Y1270
X41148Y50038
X61976Y75946
X64516Y75946
X67056Y75946
X69596Y75946
X44958Y53086
X42418Y53086
X39878Y53086
X37338Y53086
X34798Y53086
X32258Y53086
X33528Y75946
X36068Y75946
X38608Y75946
X41148Y75946
X43688Y75946
X19050Y53086
X16510Y53086
X13970Y53086
X11430Y53086
X8890Y53086
X6350Y53086
X7620Y75946
X10160Y75946
X12700Y75946
X15240Y75946
X17780Y75946
X96774Y27178
X94234Y27178
X19050Y78994
T3
X63246Y19812
X3556Y90932
X39878Y19812
X37338Y19812
X18288Y89916
X13970Y97536
X11430Y97536
X29464Y90932
X44196Y89916
X39878Y97536
X37338Y97536
X55372Y90932
X81280Y13208
X96012Y12192
X70104Y89916
X65786Y97536
X63246Y97536
X81280Y90932
X91694Y19812
X89154Y19812
X96012Y89916
X91694Y97536
X89154Y97536
X3556Y13208
X18288Y12192
X3556Y39116
X18288Y38100
X13970Y45720
X11430Y45720
X13970Y19812
X11430Y19812
X29464Y39116
X39878Y45720
X37338Y45720
X55372Y39116
X70104Y38100
X55372Y13208
X70104Y12192
X65786Y45720
X63246Y45720
X81280Y39116
X96012Y38100
X65786Y19812
X91694Y45720
X89154Y45720
X3556Y65024
X18288Y64008
X13970Y71628
X11430Y71628
X29464Y65024
X44196Y64008
X39878Y71628
X37338Y71628
X55372Y65024
X70104Y64008
X65786Y71628
X63246Y71628
X44196Y38100
X81280Y65024
X29464Y13208
X44196Y12192
X96012Y64008
X91694Y71628
X89154Y71628
T4
X11430Y22606
X13970Y22606
X16510Y21336
X16510Y22606
X20320Y8890
X21336Y8890
X17780Y3810
X17780Y5080
X17780Y2540
X10160Y3810
X10160Y5080
X10160Y2540
X7620Y3810
X7620Y5080
X7620Y2540
X12700Y3810
X12700Y5080
X12700Y2540
X15240Y3810
X15240Y5080
X15240Y2540
X16510Y20066
X17780Y15748
X12446Y12192
X8636Y19558
X8890Y14224
X10160Y10414
X16764Y12192
X15748Y10566
X20320Y19812
X19050Y8890
X37338Y21336
X37338Y22606
X39878Y22606
X42418Y21336
X42418Y22606
X46228Y8890
X47244Y8890
X43688Y3810
X43688Y5080
X43688Y2540
X36068Y3810
X36068Y5080
X36068Y2540
X33528Y3810
X33528Y5080
X33528Y2540
X38608Y3810
X38608Y5080
X38608Y2540
X41148Y3810
X41148Y5080
X41148Y2540
X42418Y20066
X43688Y15748
X38354Y12192
X34544Y19558
X34798Y14224
X36068Y10414
X42672Y12192
X41656Y10566
X46228Y19812
X44958Y8890
X63246Y21336
X63246Y22606
X65786Y22606
X68326Y21336
X68326Y22606
X72136Y8890
X73152Y8890
X69596Y3810
X69596Y5080
X69596Y2540
X61976Y3810
X61976Y5080
X61976Y2540
X59436Y3810
X59436Y5080
X59436Y2540
X64516Y3810
X64516Y5080
X64516Y2540
X67056Y3810
X67056Y5080
X67056Y2540
X68326Y20066
X69596Y15748
X64262Y12192
X60452Y19558
X60706Y14224
X61976Y10414
X68580Y12192
X67564Y10566
X72136Y19812
X70866Y8890
X89154Y21336
X89154Y22606
X91694Y22606
X94234Y21336
X94234Y22606
X98044Y8890
X99060Y8890
X95504Y3810
X95504Y5080
X95504Y2540
X87884Y3810
X87884Y5080
X87884Y2540
X85344Y3810
X85344Y5080
X85344Y2540
X90424Y3810
X90424Y5080
X90424Y2540
X92964Y3810
X92964Y5080
X92964Y2540
X94234Y20066
X95504Y15748
X90170Y12192
X86360Y19558
X86614Y14224
X87884Y10414
X94488Y12192
X93472Y10566
X93472Y62382
X98044Y71628
X96774Y60706
X11430Y99060
X11430Y100330
X13970Y100330
X16510Y99060
X16510Y100330
X20320Y86614
X21336Y86614
X17780Y81534
X17780Y82804
X17780Y80264
X10160Y81534
X10160Y82804
X10160Y80264
X7620Y81534
X7620Y82804
X7620Y80264
X12700Y81534
X12700Y82804
X12700Y80264
X15240Y81534
X15240Y82804
X15240Y80264
X16510Y97790
X90424Y56896
X90424Y54356
X17780Y93472
X12446Y89916
X8636Y97282
X8890Y91948
X92964Y55626
X92964Y56896
X10160Y88138
X16764Y89916
X15748Y88290
X20320Y97536
X19050Y86614
X37338Y99060
X37338Y100330
X39878Y100330
X42418Y99060
X42418Y100330
X46228Y86614
X47244Y86614
X43688Y81534
X43688Y82804
X43688Y80264
X36068Y81534
X36068Y82804
X36068Y80264
X33528Y81534
X33528Y82804
X33528Y80264
X38608Y81534
X38608Y82804
X38608Y80264
X41148Y81534
X41148Y82804
X41148Y80264
X42418Y97790
X92964Y54356
X94234Y71882
X43688Y93472
X38354Y89916
X34544Y97282
X34798Y91948
X85344Y55626
X85344Y56896
X36068Y88138
X42672Y89916
X41656Y88290
X46228Y97536
X44958Y86614
X63246Y99060
X63246Y100330
X65786Y100330
X68326Y99060
X68326Y100330
X72136Y86614
X73152Y86614
X69596Y81534
X69596Y82804
X69596Y80264
X61976Y81534
X61976Y82804
X61976Y80264
X59436Y81534
X59436Y82804
X59436Y80264
X64516Y81534
X64516Y82804
X64516Y80264
X67056Y81534
X67056Y82804
X67056Y80264
X68326Y97790
X95504Y67564
X90170Y64008
X69596Y93472
X64262Y89916
X60452Y97282
X60706Y91948
X86360Y71374
X86614Y66040
X61976Y88138
X68580Y89916
X67564Y88290
X72136Y97536
X70866Y86614
X89154Y99060
X89154Y100330
X91694Y100330
X94234Y99060
X94234Y100330
X98044Y86614
X99060Y86614
X95504Y81534
X95504Y82804
X95504Y80264
X87884Y81534
X87884Y82804
X87884Y80264
X85344Y81534
X85344Y82804
X85344Y80264
X90424Y81534
X90424Y82804
X90424Y80264
X92964Y81534
X92964Y82804
X92964Y80264
X94234Y97790
X85344Y54356
X90424Y55626
X95504Y93472
X90170Y89916
X86360Y97282
X86614Y91948
X87884Y62230
X94488Y64008
X87884Y88138
X94488Y89916
X93472Y88290
X98044Y97536
X96774Y86614
X87884Y56896
X87884Y55626
X95504Y54356
X95504Y56896
X95504Y55626
X99060Y60706
X98044Y60706
X94234Y74422
X94234Y73152
X91694Y74422
X89154Y74422
X89154Y73152
X70866Y60706
X72136Y71628
X67564Y62382
X68580Y64008
X61976Y62230
X60706Y66040
X60452Y71374
X64262Y64008
X69596Y67564
X68326Y71882
X67056Y54356
X67056Y56896
X67056Y55626
X64516Y54356
X64516Y56896
X64516Y55626
X59436Y54356
X59436Y56896
X59436Y55626
X61976Y54356
X61976Y56896
X61976Y55626
X69596Y54356
X69596Y56896
X69596Y55626
X73152Y60706
X72136Y60706
X68326Y74422
X68326Y73152
X65786Y74422
X63246Y74422
X63246Y73152
X44958Y60706
X46228Y71628
X41656Y62382
X42672Y64008
X36068Y62230
X34798Y66040
X34544Y71374
X38354Y64008
X43688Y67564
X42418Y71882
X41148Y54356
X41148Y56896
X41148Y55626
X38608Y54356
X38608Y56896
X38608Y55626
X33528Y54356
X33528Y56896
X33528Y55626
X36068Y54356
X36068Y56896
X36068Y55626
X43688Y54356
X43688Y56896
X43688Y55626
X47244Y60706
X46228Y60706
X42418Y74422
X42418Y73152
X39878Y74422
X37338Y74422
X37338Y73152
X19050Y60706
X20320Y71628
X15748Y62382
X16764Y64008
X10160Y62230
X8890Y66040
X8636Y71374
X12446Y64008
X17780Y67564
X16510Y71882
X15240Y54356
X15240Y56896
X15240Y55626
X12700Y54356
X12700Y56896
X12700Y55626
X7620Y54356
X7620Y56896
X7620Y55626
X10160Y54356
X10160Y56896
X10160Y55626
X17780Y54356
X17780Y56896
X17780Y55626
X21336Y60706
X20320Y60706
X16510Y74422
X16510Y73152
X13970Y74422
X11430Y74422
X11430Y73152
X96774Y34798
X98044Y45720
X93472Y36474
X94488Y38100
X87884Y36322
X86614Y40132
X86360Y45466
X90170Y38100
X95504Y41656
X94234Y45974
X92964Y28448
X92964Y30988
X92964Y29718
X90424Y28448
X90424Y30988
X90424Y29718
X85344Y28448
X85344Y30988
X85344Y29718
X87884Y28448
X87884Y30988
X87884Y29718
X95504Y28448
X95504Y30988
X95504Y29718
X99060Y34798
X98044Y34798
X94234Y48514
X94234Y47244
X87884Y54356
X91694Y48514
X89154Y48514
X89154Y47244
X70866Y34798
X72136Y45720
X67564Y36474
X68580Y38100
X61976Y36322
X60706Y40132
X60452Y45466
X64262Y38100
X69596Y41656
X68326Y45974
X67056Y28448
X67056Y30988
X67056Y29718
X64516Y28448
X64516Y30988
X64516Y29718
X59436Y28448
X59436Y30988
X59436Y29718
X61976Y28448
X61976Y30988
X61976Y29718
X69596Y28448
X69596Y30988
X69596Y29718
X73152Y34798
X72136Y34798
X68326Y48514
X68326Y47244
X65786Y48514
X63246Y48514
X63246Y47244
X44958Y34798
X46228Y45720
X41656Y36474
X42672Y38100
X36068Y36322
X34798Y40132
X34544Y45466
X38354Y38100
X43688Y41656
X11430Y21336
X42418Y45974
X41148Y28448
X41148Y30988
X41148Y29718
X38608Y28448
X38608Y30988
X38608Y29718
X33528Y28448
X33528Y30988
X33528Y29718
X36068Y28448
X36068Y30988
X36068Y29718
X43688Y28448
X43688Y30988
X43688Y29718
X47244Y34798
X46228Y34798
X42418Y48514
X42418Y47244
X39878Y48514
X37338Y48514
X37338Y47244
X19050Y34798
X20320Y45720
X15748Y36474
X16764Y38100
X10160Y36322
X8890Y40132
X8636Y45466
X12446Y38100
X17780Y41656
X16510Y45974
X15240Y28448
X15240Y30988
X15240Y29718
X12700Y28448
X12700Y30988
X12700Y29718
X7620Y28448
X7620Y30988
X7620Y29718
X10160Y28448
X10160Y30988
X10160Y29718
X17780Y28448
X17780Y30988
X17780Y29718
X21336Y34798
X20320Y34798
X16510Y48514
X16510Y47244
X13970Y48514
X11430Y48514
X11430Y47244
X96774Y8890
X98044Y19812
M30